<?xml version="1.0" encoding="UTF-8"?>
<svg xmlns="http://www.w3.org/2000/svg" xmlns:xlink="http://www.w3.org/1999/xlink" version="1.1" viewBox="0 0 47 47">
  <defs>
    <style>
      .cls-1 {
        fill: none;
      }

      .cls-2 {
        fill: #fff;
      }

      .cls-3 {
        clip-path: url(#clippath);
      }
    </style>
    <clipPath id="clippath">
      <rect class="cls-1" width="47" height="47"/>
    </clipPath>
  </defs>
  <!-- Generator: Adobe Illustrator 28.6.0, SVG Export Plug-In . SVG Version: 1.2.0 Build 709)  -->
  <g>
    <g id="Layer_1">
      <g class="cls-3">
        <g>
          <path class="cls-2" d="M23.5,4.2c6.3,0,7,0,9.5.1,2.3.1,3.5.5,4.4.8,1.1.4,1.9.9,2.7,1.8.8.8,1.3,1.6,1.8,2.7.3.8.7,2.1.8,4.4.1,2.5.1,3.2.1,9.5s0,7-.1,9.5c-.1,2.3-.5,3.5-.8,4.4-.4,1.1-.9,1.9-1.8,2.7s-1.6,1.3-2.7,1.8c-.8.3-2.1.7-4.4.8-2.5.1-3.2.1-9.5.1s-7,0-9.5-.1c-2.3-.1-3.5-.5-4.4-.8-1.1-.4-1.9-.9-2.7-1.8-.8-.8-1.3-1.6-1.8-2.7-.3-.8-.7-2.1-.8-4.4-.1-2.5-.1-3.2-.1-9.5s0-7,.1-9.5c.1-2.3.5-3.5.8-4.4.4-1.1.9-1.9,1.8-2.7.8-.8,1.6-1.3,2.7-1.8.8-.3,2.1-.7,4.4-.8,2.5-.1,3.2-.1,9.5-.1ZM23.5,0c-6.4,0-7.2,0-9.7.1-2.5.1-4.2.5-5.7,1.1-1.5.6-2.9,1.4-4.2,2.7-1.3,1.3-2.1,2.6-2.7,4.2-.6,1.5-1,3.2-1.1,5.7-.1,2.5-.1,3.3-.1,9.7s0,7.2.1,9.7c.1,2.5.5,4.2,1.1,5.7.6,1.5,1.4,2.9,2.7,4.2,1.3,1.3,2.6,2.1,4.2,2.7,1.5.6,3.2,1,5.7,1.1,2.5.1,3.3.1,9.7.1s7.2,0,9.7-.1c2.5-.1,4.2-.5,5.7-1.1,1.5-.6,2.9-1.4,4.2-2.7,1.3-1.3,2.1-2.6,2.7-4.2.6-1.5,1-3.2,1.1-5.7.1-2.5.1-3.3.1-9.7s0-7.2-.1-9.7c-.1-2.5-.5-4.2-1.1-5.7-.6-1.5-1.4-2.9-2.7-4.2-1.3-1.3-2.6-2.1-4.2-2.7-1.5-.6-3.2-1-5.7-1.1-2.5-.1-3.3-.1-9.7-.1Z"/>
          <path class="cls-2" d="M23.5,11.4c-6.7,0-12.1,5.4-12.1,12.1s5.4,12.1,12.1,12.1,12.1-5.4,12.1-12.1-5.4-12.1-12.1-12.1ZM23.5,31.3c-4.3,0-7.8-3.5-7.8-7.8s3.5-7.8,7.8-7.8,7.8,3.5,7.8,7.8-3.5,7.8-7.8,7.8Z"/>
          <path class="cls-2" d="M36,13.8c1.6,0,2.8-1.3,2.8-2.8s-1.3-2.8-2.8-2.8-2.8,1.3-2.8,2.8,1.3,2.8,2.8,2.8Z"/>
        </g>
      </g>
    </g>
  </g>
</svg>