<?xml version="1.0" encoding="UTF-8"?>
<svg xmlns="http://www.w3.org/2000/svg" version="1.1" viewBox="0 0 1200 484">
  <defs>
    <style>
      .cls-1 {
        fill: #fd3d18;
      }
    </style>
  </defs>
  <!-- Generator: Adobe Illustrator 28.6.0, SVG Export Plug-In . SVG Version: 1.2.0 Build 709)  -->
  <g>
    <g id="Layer_1">
      <path class="cls-1" d="M386.4,317.9v80.5h-59.3v76.3h-95.4v-76.3H0v-25.4L144.1,8.5h98.2l-123.6,309.4h113v-130.7h95.4v130.7h59.3ZM414.7,238c0-71.6,15.8-129,47.3-172.3C493.6,21.9,539.5,0,599.8,0s106,21.9,137,65.7c31.6,43.3,47.3,100.8,47.3,172.3s-16,130.9-48,176.6c-32,45.7-77.5,68.5-136.3,68.5s-105-22.8-137-68.5c-32-45.7-48-104.5-48-176.6ZM686,238.7c0-100.3-28.7-150.4-86.2-150.4s-86.9,50.1-86.9,150.4,29,156.1,86.9,156.1,86.2-52,86.2-156.1ZM1200,317.9v80.5h-59.3v76.3h-95.4v-76.3h-231.7v-25.4L957.7,8.5h98.2l-123.6,309.4h113v-130.7h95.4v130.7h59.3Z"/>
    </g>
  </g>
</svg>