<svg width="1471" height="390" viewBox="0 0 1471 390" fill="none" xmlns="http://www.w3.org/2000/svg">
<path d="M208.02 383L189.15 339.14H51.45L32.58 383H-41.37L109.08 40.28H132.03L281.97 383H208.02ZM165.18 282.53L120.3 168.8L75.42 282.53H165.18ZM540.098 162.68C563.218 187.5 574.778 218.95 574.778 257.03C574.778 295.11 563.218 326.73 540.098 351.89C516.978 376.71 487.738 389.12 452.378 389.12C416.678 389.12 389.648 376.71 371.288 351.89V383H308.048V0.49997H376.898V155.03C395.258 134.97 420.418 124.94 452.378 124.94C487.738 124.94 516.978 137.52 540.098 162.68ZM504.908 256.52C504.908 236.12 498.618 219.46 486.038 206.54C473.798 193.62 458.328 187.16 439.628 187.16C421.268 187.16 405.968 193.45 393.728 206.03C381.828 218.27 375.878 235.27 375.878 257.03C375.878 278.79 381.828 295.79 393.728 308.03C405.968 320.27 421.268 326.39 439.628 326.39C458.668 326.39 474.308 319.93 486.548 307.01C498.788 294.09 504.908 277.26 504.908 256.52ZM599.21 256.52C598.53 220.48 611.62 189.37 638.48 163.19C665.34 137.01 697.3 124.26 734.36 124.94C771.42 124.26 803.38 137.01 830.24 163.19C857.44 189.37 870.7 220.48 870.02 256.52C870.7 292.56 857.44 323.84 830.24 350.36C803.04 376.54 770.91 389.29 733.85 388.61C696.79 389.29 664.83 376.54 637.97 350.36C611.45 323.84 598.53 292.56 599.21 256.52ZM780.77 305.99C793.35 293.07 799.64 276.75 799.64 257.03C799.64 237.31 793.35 220.82 780.77 207.56C768.53 194.3 753.06 187.67 734.36 187.67C715.32 187.67 699.68 194.3 687.44 207.56C675.2 220.48 669.08 236.97 669.08 257.03C669.08 276.75 675.2 293.07 687.44 305.99C699.68 318.91 715.32 325.37 734.36 325.37C753.06 325.37 768.53 318.91 780.77 305.99ZM905.923 271.82V130.55H974.773V277.43C974.773 292.05 979.193 303.78 988.033 312.62C997.213 321.46 1008.77 325.88 1022.71 325.88C1036.31 325.88 1047.53 321.46 1056.37 312.62C1065.21 303.44 1069.63 291.71 1069.63 277.43V130.55H1138.48V271.82C1138.48 306.5 1127.43 334.72 1105.33 356.48C1083.57 378.24 1056.03 389.12 1022.71 389.12C988.713 389.12 960.663 378.41 938.563 356.99C916.803 335.23 905.923 306.84 905.923 271.82ZM1351.19 325.37V383C1334.87 387.08 1319.06 389.12 1303.76 389.12C1271.46 389.12 1246.47 381.13 1228.79 365.15C1211.45 349.17 1202.78 325.54 1202.78 294.26V188.69H1163V130.55H1202.78V66.8H1271.63V130.55H1343.03V188.69H1271.63V288.14C1271.63 302.42 1275.2 312.62 1282.34 318.74C1289.82 324.52 1301.89 327.41 1318.55 327.41C1324.33 327.41 1335.21 326.73 1351.19 325.37ZM1375.68 341.69C1375.68 328.43 1380.27 317.21 1389.45 308.03C1398.63 298.85 1410.02 294.26 1423.62 294.26C1436.88 294.26 1447.93 298.85 1456.77 308.03C1465.95 317.21 1470.54 328.43 1470.54 341.69C1470.54 355.29 1466.12 366.68 1457.28 375.86C1448.44 384.7 1437.22 389.12 1423.62 389.12C1410.02 389.12 1398.63 384.7 1389.45 375.86C1380.27 366.68 1375.68 355.29 1375.68 341.69Z" fill="#FF3F1A"/>
</svg>
