<?xml version="1.0" encoding="UTF-8"?>
<svg xmlns="http://www.w3.org/2000/svg" version="1.1" viewBox="0 0 200 44">
  <defs>
    <style>
      .cls-1 {
        fill: #f0ede8;
      }
    </style>
  </defs>
  <!-- Generator: Adobe Illustrator 28.6.0, SVG Export Plug-In . SVG Version: 1.2.0 Build 709)  -->
  <g>
    <g id="Layer_1">
      <g>
        <path class="cls-1" d="M24.1.8c-5.5,0-10.3,4-11.3,9.4l-1.7,9.1h-6.9l-1,5.3h6.9l-1.5,8.2c-.5,2.9-3.1,5-6,5H1l-1,5.3h2.8c5.5,0,10.3-4,11.3-9.4l1.7-9.1h6.9l1-5.3h-6.9l1.5-8.2c.5-2.9,3.1-5,6-5h1.8l1-5.3h-2.8Z"/>
        <g>
          <g>
            <path class="cls-1" d="M54.6,18.1v13.5h-5v-13.5h-3.1v-4.2h3.1v-1.7c0-1.8.5-3.2,1.6-4.3,1-1.1,2.5-1.6,4.4-1.6s3.2.2,4.5.7v4c-1.1-.4-2.1-.6-3-.6-1.6,0-2.4.8-2.4,2.4v1h5.5v4.2h-5.5Z"/>
            <path class="cls-1" d="M74.7,25.1v-11.2h5v17.6h-5v-2.1c-1.6,1.7-3.5,2.6-5.9,2.6s-3.6-.6-4.7-1.9c-1.1-1.3-1.7-3.1-1.7-5.4v-10.8h5v9.8c0,1.3.3,2.2.9,2.8.6.6,1.4.9,2.4.9s1.5-.2,2.2-.7c.7-.4,1.3-1,1.8-1.6Z"/>
            <path class="cls-1" d="M89.1,20.3v11.2h-5V13.9h5v2.1c1.6-1.7,3.5-2.6,5.9-2.6s3.6.6,4.7,1.9c1.1,1.3,1.7,3.1,1.7,5.4v10.8h-5v-9.8c0-1.3-.3-2.2-.9-2.8-.6-.6-1.4-.9-2.4-.9s-1.5.2-2.2.7c-.7.4-1.3,1-1.8,1.6Z"/>
            <path class="cls-1" d="M113.8,32c-2.6,0-4.9-.8-6.8-2.5-1.9-1.7-2.8-4-2.8-6.8s.9-5,2.8-6.7c1.9-1.7,4.2-2.5,6.8-2.5s3.7.4,5.2,1.2v4.2c-1.5-.7-3-1.1-4.5-1.1s-2.9.5-3.9,1.4c-1,.9-1.6,2.1-1.6,3.5s.5,2.7,1.6,3.6c1.1.9,2.4,1.4,3.9,1.4s3.4-.4,4.8-1.2v4.2c-1.7.9-3.5,1.3-5.6,1.3Z"/>
            <path class="cls-1" d="M124.8,26.1v-8h-3.5v-4.2h3.5v-4.8h5v4.8h5v4.2h-5v7c0,.9.2,1.5.6,1.9.4.4,1,.6,1.8.6s1.7-.2,2.6-.6v4.1c-1,.6-2.4,1-4.2,1-3.8,0-5.8-2-5.8-5.9Z"/>
            <path class="cls-1" d="M137.9,9.2c0-.8.3-1.6.9-2.1.6-.6,1.3-.9,2.1-.9s1.5.3,2.1.9c.6.6.9,1.3.9,2.1s-.3,1.5-.9,2.1c-.6.6-1.3.9-2.1.9s-1.5-.3-2.1-.9c-.6-.6-.9-1.3-.9-2.1ZM143.4,31.5h-5V13.9h5v17.6Z"/>
            <path class="cls-1" d="M146.8,22.7c0-2.6.9-4.8,2.8-6.6,1.8-1.8,4.2-2.7,7-2.7s5.2.9,7,2.7c1.8,1.8,2.8,4,2.8,6.6s-.9,4.9-2.8,6.6c-1.8,1.8-4.2,2.7-7,2.7s-5.2-.9-7-2.7c-1.8-1.8-2.8-4-2.8-6.6ZM151.8,22.7c0,1.4.5,2.6,1.4,3.5.9.9,2.1,1.4,3.5,1.4s2.6-.5,3.5-1.4c.9-1,1.4-2.1,1.4-3.5s-.5-2.6-1.4-3.5c-.9-.9-2.1-1.4-3.5-1.4s-2.6.5-3.5,1.4c-.9.9-1.4,2.1-1.4,3.5Z"/>
            <path class="cls-1" d="M174.6,20.3v11.2h-5V13.9h5v2.1c1.6-1.7,3.5-2.6,5.9-2.6s3.6.6,4.7,1.9c1.1,1.3,1.7,3.1,1.7,5.4v10.8h-5v-9.8c0-1.3-.3-2.2-.9-2.8-.6-.6-1.4-.9-2.4-.9s-1.5.2-2.2.7c-.7.4-1.3,1-1.8,1.6Z"/>
          </g>
          <path class="cls-1" d="M38,43.9c-6.3-14-6.3-30,0-43.9l4.9,2.2c-5.7,12.6-5.7,27,0,39.5l-4.9,2.2Z"/>
          <path class="cls-1" d="M195.3,43.9l-4.9-2.2c5.7-12.6,5.7-27,0-39.5l4.9-2.2c6.3,14,6.3,30,0,43.9Z"/>
        </g>
      </g>
    </g>
  </g>
</svg>