<svg width="232" height="51" viewBox="0 0 232 51" fill="none" xmlns="http://www.w3.org/2000/svg">
<g clip-path="url(#clip0_728_2107)">
<path d="M28.0105 0.90625C21.5899 0.90625 16.0866 5.49639 14.9436 11.8237L13.0245 22.4022H5.02354L3.89465 28.6025H11.8815L10.16 38.0793C9.53908 41.4548 6.60398 43.9123 3.17499 43.9123H1.12889L0 50.1126H3.1891C9.60963 50.1126 15.1129 45.5224 16.2559 39.1951L18.1751 28.6166H26.1619L27.2908 22.4164H19.3039L21.0255 12.9395C21.6464 9.56396 24.5815 7.10647 28.0105 7.10647H30.0848L31.2137 0.90625H28.0246H28.0105Z" fill="white"/>
<path d="M63.2882 20.9877V36.6224H57.5027V20.9877H53.8479V16.1433H57.5027V14.2084C57.5027 12.1322 58.1094 10.4656 59.3089 9.2369C60.5083 8.00815 62.2158 7.38672 64.4312 7.38672C66.4209 7.38672 68.1706 7.66919 69.6382 8.24825V12.9231C68.4105 12.4571 67.2252 12.2311 66.1104 12.2311C64.2195 12.2311 63.2741 13.1491 63.2741 14.9852V16.1292H69.6382V20.9735H63.2741L63.2882 20.9877Z" fill="white"/>
<path d="M86.7127 29.1907V16.1406H92.4982V36.6197H86.7127V34.1622C84.8782 36.1536 82.5922 37.1564 79.8688 37.1564C77.5123 37.1564 75.6919 36.4079 74.3796 34.9249C73.0673 33.4278 72.4041 31.3658 72.4041 28.7105V16.1406H78.1896V27.5101C78.1896 28.993 78.5565 30.0805 79.2761 30.8008C79.9958 31.507 80.9412 31.8742 82.0842 31.8742C82.9591 31.8742 83.834 31.62 84.6948 31.1115C85.5556 30.6031 86.2329 29.9675 86.7268 29.2049L86.7127 29.1907Z" fill="white"/>
<path d="M103.321 23.5711V36.6213H97.5356V16.1422H103.321V18.5997C105.156 16.6082 107.442 15.6055 110.165 15.6055C112.522 15.6055 114.342 16.354 115.654 17.837C116.967 19.3341 117.616 21.3961 117.616 24.0513V36.6071H111.83V25.2377C111.83 23.7547 111.463 22.6672 110.744 21.9469C110.024 21.2407 109.078 20.8735 107.935 20.8735C107.061 20.8735 106.186 21.1278 105.325 21.6362C104.464 22.1447 103.787 22.7802 103.293 23.5429L103.321 23.5711Z" fill="white"/>
<path d="M132.023 37.1555C128.989 37.1555 126.379 36.1669 124.191 34.2037C122.004 32.1841 120.904 29.5571 120.904 26.3228C120.904 23.0885 121.99 20.5039 124.191 18.569C126.407 16.5917 129.046 15.6172 132.108 15.6172C134.351 15.6172 136.369 16.0691 138.176 16.973V21.9021C136.398 21.083 134.662 20.6734 132.969 20.6734C131.162 20.6734 129.652 21.2101 128.411 22.2694C127.211 23.3145 126.604 24.6845 126.604 26.3793C126.604 28.0741 127.225 29.4582 128.453 30.5316C129.681 31.605 131.191 32.1276 132.969 32.1276C135.071 32.1276 136.92 31.6615 138.5 30.7293V35.6584C136.581 36.6753 134.422 37.1838 132.023 37.1838V37.1555Z" fill="white"/>
<path d="M144.737 30.2525V20.9733H140.716V16.129H144.737V10.5078H150.523V16.129H156.351V20.9733H150.523V29.1085C150.523 30.1254 150.749 30.8598 151.186 31.3117C151.623 31.7637 152.329 31.9897 153.317 31.9897C154.305 31.9897 155.321 31.7496 156.308 31.2552V36.0572C155.109 36.7917 153.472 37.1589 151.426 37.1589C146.967 37.1589 144.737 34.8567 144.737 30.2666V30.2525Z" fill="white"/>
<path d="M160.005 10.719C160.005 9.73033 160.344 8.91117 161.007 8.23324C161.67 7.56943 162.489 7.23047 163.448 7.23047C164.408 7.23047 165.212 7.56943 165.89 8.23324C166.553 8.91117 166.892 9.73033 166.892 10.719C166.892 11.7076 166.553 12.4844 165.89 13.1623C165.212 13.8403 164.408 14.1651 163.448 14.1651C162.489 14.1651 161.685 13.8261 161.007 13.1623C160.33 12.4985 160.005 11.6794 160.005 10.719ZM166.369 36.6215H160.584V16.1424H166.369V36.6215Z" fill="white"/>
<path d="M170.335 26.352C170.335 23.3154 171.407 20.7732 173.538 18.7111C175.64 16.635 178.364 15.5898 181.694 15.5898C185.024 15.5898 187.748 16.635 189.85 18.7111C191.981 20.7873 193.054 23.3295 193.054 26.352C193.054 29.3744 191.981 31.9872 189.85 34.0634C187.72 36.1113 184.996 37.1423 181.694 37.1423C178.392 37.1423 175.669 36.1113 173.538 34.0634C171.407 31.9872 170.335 29.4168 170.335 26.352ZM176.036 26.352C176.036 27.9903 176.572 29.3603 177.63 30.4619C178.703 31.5635 180.043 32.1002 181.694 32.1002C183.345 32.1002 184.686 31.5494 185.758 30.4619C186.831 29.3461 187.353 27.9762 187.353 26.352C187.353 24.7278 186.816 23.3578 185.758 22.2844C184.686 21.1969 183.345 20.6461 181.694 20.6461C180.043 20.6461 178.703 21.1969 177.63 22.2844C176.558 23.3578 176.036 24.6995 176.036 26.352Z" fill="white"/>
<path d="M202.494 23.5711V36.6213H196.708V16.1422H202.494V18.5997C204.328 16.6082 206.614 15.6055 209.338 15.6055C211.694 15.6055 213.515 16.354 214.827 17.837C216.139 19.3341 216.802 21.3961 216.802 24.0513V36.6071H211.017V25.2377C211.017 23.7547 210.65 22.6672 209.93 21.9469C209.211 21.2407 208.265 20.8735 207.122 20.8735C206.247 20.8735 205.372 21.1278 204.512 21.6362C203.651 22.1447 202.974 22.7802 202.48 23.5429L202.494 23.5711Z" fill="white"/>
<path d="M44.0407 51C36.7452 34.8003 36.7452 16.1997 44.0407 0L49.6851 2.54223C43.1234 17.1318 43.1234 33.8682 49.6851 48.4578L44.0407 51Z" fill="white"/>
<path d="M226.539 51L220.895 48.4578C227.456 33.8682 227.456 17.1318 220.895 2.54223L226.539 0C233.834 16.1997 233.834 34.8003 226.539 51Z" fill="white"/>
</g>
<defs>
<clipPath id="clip0_728_2107">
<rect width="232" height="51" fill="white"/>
</clipPath>
</defs>
</svg>
