<?xml version="1.0" encoding="UTF-8"?>
<svg xmlns="http://www.w3.org/2000/svg" version="1.1" viewBox="0 0 100 60">
  <defs>
    <style>
      .cls-1 {
        fill: #20201e;
      }
    </style>
  </defs>
  <!-- Generator: Adobe Illustrator 28.6.0, SVG Export Plug-In . SVG Version: 1.2.0 Build 709)  -->
  <g>
    <g id="Layer_1">
      <path class="cls-1" d="M31.4,2.4c-7.2,0-13.4,5.1-14.7,12.2l-2.2,11.9H5.6l-1.3,6.9h9l-1.9,10.6c-.7,3.8-4,6.5-7.8,6.5H1.3L0,57.5h3.6c7.2,0,13.4-5.1,14.7-12.2l2.2-11.9h9l1.3-6.9h-9l1.9-10.6c.7-3.8,4-6.5,7.8-6.5h2.3l1.3-6.9h-3.6Z"/>
      <path class="cls-1" d="M49.4,58.5c-8.2-18.2-8.2-39,0-57.2l6.3,2.8c-7.4,16.4-7.4,35.1,0,51.5l-6.3,2.8Z"/>
      <path class="cls-1" d="M93.9,58.5l-6.3-2.8c7.4-16.4,7.4-35.1,0-51.5l6.3-2.8c8.2,18.2,8.2,39,0,57.2Z"/>
    </g>
  </g>
</svg>