<?xml version="1.0" encoding="UTF-8"?>
<svg xmlns="http://www.w3.org/2000/svg" version="1.1" viewBox="0 0 1900 391">
  <defs>
    <style>
      .cls-1 {
        fill: #ff3f1a;
      }
    </style>
  </defs>
  <!-- Generator: Adobe Illustrator 28.6.0, SVG Export Plug-In . SVG Version: 1.2.0 Build 709)  -->
  <g>
    <g id="Layer_1">
      <g>
        <path class="cls-1" d="M486.8,281.9h-175.6c4,15.9,12.1,28.2,24.3,36.9,12.5,8.4,27.8,12.7,46.1,12.7s47.9-8.4,69.8-25.3l28.3,46.6c-30,25-63.4,37.5-100.2,37.5-38.5.7-71.2-11.8-98.2-37.5-26.7-26-39.6-57.2-39-93.6-.7-36.1,12-67.1,38-93.1,26-26,57-38.6,93.1-38,34.4,0,62.6,11.1,84.5,33.4,22.3,22.3,33.4,49.9,33.4,83s-1.5,24.6-4.6,37.5ZM311.2,233.8h113.9c-.3-15.2-5.7-27.3-16.2-36.4-10.1-9.4-22.8-14.2-38-14.2s-27.2,4.6-38,13.7c-10.8,9.1-18.1,21.4-21.8,36.9ZM683.4,133.6v60.2h-18.2c-20.9,0-37.5,5.6-49.6,16.7-11.8,11.1-17.7,27.3-17.7,48.6v125h-68.3v-250.5h62.8v29.9c17.5-21.9,40.5-32.9,68.8-32.9s15.9,1,22.3,3ZM881.1,133.6h72.4l-124,256.6h-22.8l-124-256.6h71.9l63.3,141.7,63.3-141.7ZM978.1,384.2v-250.5h68.3v250.5h-68.3ZM968.5,42.5c0-12.1,4.2-22.3,12.7-30.4,8.4-8.1,18.7-12.1,30.9-12.1s22.4,4,30.9,12.1c8.8,8.1,13.2,18.2,13.2,30.4s-4.4,21.8-13.2,29.9c-8.4,8.1-18.7,12.1-30.9,12.1s-22.4-4-30.9-12.1c-8.4-8.1-12.7-18.1-12.7-29.9ZM1084.7,258.6c0-36.4,13-67.3,39-92.6,26-25.3,57.7-38,95.2-38s85.5,20.6,108.8,61.8l-47.6,36.9c-16.9-24.3-36.9-36.4-60.2-36.4s-35.1,6.6-47.6,19.7c-12.1,12.8-18.2,29-18.2,48.6s6.1,36.4,18.2,49.6c12.5,12.8,28.3,19.2,47.6,19.2s43.4-12,60.2-35.9l47.6,36.4c-11.1,19.6-26.2,34.9-45,46.1-18.6,10.8-39.8,16.2-63.8,16.2-36.8.7-68.5-12-95.2-38-26.7-26.3-39.6-57.5-39-93.6ZM1588.3,281.9h-175.6c4,15.9,12.1,28.2,24.3,36.9,12.5,8.4,27.8,12.7,46.1,12.7s47.9-8.4,69.8-25.3l28.3,46.6c-30,25-63.4,37.5-100.2,37.5-38.5.7-71.2-11.8-98.2-37.5-26.7-26-39.6-57.2-39-93.6-.7-36.1,12-67.1,38-93.1,26-26,57-38.6,93.1-38,34.4,0,62.6,11.1,84.5,33.4,22.3,22.3,33.4,49.9,33.4,83s-1.5,24.6-4.6,37.5ZM1412.6,233.8h113.9c-.3-15.2-5.7-27.3-16.2-36.4-10.1-9.4-22.8-14.2-38-14.2s-27.2,4.6-38,13.7c-10.8,9.1-18.1,21.4-21.8,36.9ZM1608.2,341.7l34.4-41.5c21.6,22.6,45,33.9,70.4,33.9s17-1.7,22.8-5.1c6.1-3.7,9.1-8.9,9.1-15.7s-1.9-8.9-5.6-11.6c-3.4-3-10.1-6.7-20.2-11.1l-26.8-11.1c-24-9.8-41.3-20.4-52.1-31.9-10.8-11.8-16.2-26.7-16.2-44.5s8.4-41.5,25.3-54.7c16.9-13.5,39.1-20.2,66.8-20.2s67.1,12.5,90.1,37.5l-34.4,42c-16.9-15.9-35.6-23.8-56.2-23.8s-26.8,5.9-26.8,17.7,1.9,8.6,5.6,11.6,10.6,6.6,20.8,10.6l24.3,10.1c25,10.1,42.9,20.9,53.7,32.4,11.1,11.5,16.7,26.2,16.7,44s-9.3,44.5-27.8,58.7c-18.2,14.2-41.5,21.3-69.8,21.3-44.9,0-79.5-16.2-103.8-48.6Z"/>
        <path class="cls-1" d="M196.5,234.4c-13.2-15.2-34.1-29.2-62.8-42l-38-16.7c-14.8-6.7-25.1-12.7-30.9-17.7-5.4-5.4-8.1-12.3-8.1-20.8s3.9-18.1,11.6-23.8c7.8-5.7,17.7-8.6,29.9-8.6,25.3,0,46.6,12.8,63.8,38.5l46.6-35.9c-10.8-19.6-25.6-34.9-44.5-46.1-18.9-11.5-40.8-17.2-65.8-17.2s-58.5,8.8-79.5,26.3c-7.7,6.3-14,13.4-18.8,21.2v90.7c12.9,20.5,35.7,38,68.4,52.5l35.9,16.2c16.9,7.8,28.2,14.3,33.9,19.7,5.7,5.1,8.6,12.3,8.6,21.8s-4.2,20.6-12.7,27.3c-8.4,6.4-20.1,9.6-34.9,9.6-31,0-58.4-16.2-82-48.6l-17.3,13v59.5c7.1,6.4,14.9,12.1,23.4,17.1,22.6,13.2,47.9,19.7,75.9,19.7s62.1-9.1,84-27.3c21.9-18.6,32.9-42.9,32.9-72.9s-6.6-40.8-19.7-55.7Z"/>
        <path class="cls-1" d="M1900,298.9c-5-1.8-10.5-2.8-16.4-2.8-13.5,0-24.8,4.6-33.9,13.7-9.1,9.1-13.7,20.2-13.7,33.4s4.6,24.8,13.7,33.9c9.1,8.8,20.4,13.2,33.9,13.2s11.4-.8,16.4-2.5v-88.8Z"/>
      </g>
    </g>
  </g>
</svg>