<?xml version="1.0" encoding="UTF-8"?>
<svg xmlns="http://www.w3.org/2000/svg" version="1.1" viewBox="0 0 100 100">
  <defs>
    <style>
      .cls-1 {
        fill: #ff3f1a;
      }
    </style>
  </defs>
  <!-- Generator: Adobe Illustrator 28.6.0, SVG Export Plug-In . SVG Version: 1.2.0 Build 709)  -->
  <g>
    <g id="Layer_1">
      <g>
        <path class="cls-1" d="M33.3,54.5h-10.1v9h9.9c9.1,0,8.5-9,.1-9Z"/>
        <path class="cls-1" d="M33,36.6h-9.7v8.9h10.7c7.5,0,8.6-8.9-.9-8.9Z"/>
        <path class="cls-1" d="M69.4,44.9c-4.4,0-6.8,2.3-7.4,6.6h14.8c-.3-4.6-3.4-6.6-7.4-6.6Z"/>
        <path class="cls-1" d="M99.7,29.4c-.2-5.3-1.1-9-2.3-12.1-1.3-3.3-3-6.1-5.8-8.9-2.8-2.8-5.6-4.5-8.9-5.8-3.2-1.2-6.8-2.1-12.1-2.3-5.3-.2-7-.3-20.6-.3s-15.3,0-20.6.3c-5.3.2-9,1.1-12.1,2.3-3.3,1.3-6.1,3-8.9,5.8-2.8,2.8-4.5,5.6-5.8,8.9-1.2,3.2-2.1,6.8-2.3,12.1C0,34.7,0,36.4,0,50s0,15.3.3,20.6c.2,5.3,1.1,9,2.3,12.1,1.3,3.3,3,6.1,5.8,8.9,2.8,2.8,5.6,4.5,8.9,5.8,3.2,1.2,6.8,2.1,12.1,2.3,5.3.2,7,.3,20.6.3s15.3,0,20.6-.3c5.3-.2,9-1.1,12.1-2.3,3.3-1.3,6.1-3,8.9-5.8,2.8-2.8,4.5-5.6,5.8-8.9,1.2-3.2,2.1-6.8,2.3-12.1.2-5.3.3-7,.3-20.6s0-15.3-.3-20.6ZM33.6,72.3H14.3V27.8h20.7c16.3.2,16.6,16.2,8.1,20.5,10.3,3.7,10.6,24-9.5,24ZM58.9,27.7h20.8v5.9h-20.8v-5.9ZM85.6,57.3h-23.9c.4,9.5,10.3,9.8,13.6,6h9.4c-1.3,3.9-6,8.9-15.2,8.9s-16.5-5.1-16.5-16.9,6.9-17.6,16.2-17.6,14.8,5.3,16,13.2c.2,1.5.3,3.5.3,6.4Z"/>
      </g>
    </g>
  </g>
</svg>