<?xml version="1.0" encoding="UTF-8"?>
<svg xmlns="http://www.w3.org/2000/svg" version="1.1" viewBox="0 0 100 100">
  <defs>
    <style>
      .cls-1 {
        fill: #f0ede8;
      }
    </style>
  </defs>
  <!-- Generator: Adobe Illustrator 28.6.0, SVG Export Plug-In . SVG Version: 1.2.0 Build 709)  -->
  <g>
    <g id="Layer_1">
      <g>
        <path class="cls-1" d="M53.1,46.8h0c0,0,0,0,0,0h0Z"/>
        <path class="cls-1" d="M99.7,29.4c-.2-5.3-1.1-9-2.3-12.1-1.3-3.3-3-6.1-5.8-8.9-2.8-2.8-5.6-4.5-8.9-5.8-3.2-1.2-6.8-2.1-12.1-2.3-5.3-.2-7-.3-20.6-.3s-15.3,0-20.6.3c-5.3.2-9,1.1-12.1,2.3-3.3,1.3-6.1,3-8.9,5.8-2.8,2.8-4.5,5.6-5.8,8.9-1.2,3.2-2.1,6.8-2.3,12.1-.2,5.3-.3,7-.3,20.6s0,15.3.3,20.6c.2,5.3,1.1,9,2.3,12.1,1.3,3.3,3,6.1,5.8,8.9,2.8,2.8,5.6,4.5,8.9,5.8,3.2,1.2,6.8,2.1,12.1,2.3,5.3.2,7,.3,20.6.3s15.3,0,20.6-.3c5.3-.2,9-1.1,12.1-2.3,3.3-1.3,6.1-3,8.9-5.8,2.8-2.8,4.5-5.6,5.8-8.9,1.2-3.2,2.1-6.8,2.3-12.1.2-5.3.3-7,.3-20.6s0-15.3-.3-20.6ZM33.8,78.8h-12.4v-37.4h12.4v37.4ZM27.6,36.3h0c-4.2,0-6.9-2.9-6.9-6.5s2.8-6.5,7-6.5,6.9,2.8,6.9,6.5c0,3.6-2.7,6.5-7,6.5ZM78.6,78.8h-12.4v-20c0-5-1.8-8.5-6.3-8.5s-5.5,2.3-6.4,4.5c-.3.8-.4,1.9-.4,3v20.9h-12.4s.2-33.9,0-37.4h12.4v5.3c1.7-2.5,4.6-6.2,11.2-6.2s14.3,5.3,14.3,16.8v21.4Z"/>
      </g>
    </g>
  </g>
</svg>