<?xml version="1.0" encoding="UTF-8"?>
<svg xmlns="http://www.w3.org/2000/svg" version="1.1" viewBox="0 0 100 100">
  <!-- Generator: Adobe Illustrator 28.6.0, SVG Export Plug-In . SVG Version: 1.2.0 Build 709)  -->
  <g>
    <g id="Layer_1">
      <path d="M92.6,76.2c4.7-7.6,7.4-16.6,7.4-26.2C100,22.4,77.6,0,50,0S0,22.4,0,50s22.4,50,50,50,18.6-2.7,26.2-7.4l23.8,7.4-7.4-23.8ZM38.2,61.8c-13.6-13.6-13.5-25.6-12-29.6,1.5-4,5.4-6.6,6.4-6.6.9,0,2.3,0,3.5.1,1.2,0,1.9.6,2.6,2.4.7,1.8,2.4,6.6,3.2,8.7.8,2.2.5,2.6,0,3.5-.5.9-2.3,2.9-3.2,3.9-1,1-.8,1.6-.4,2.7.4,1.1,3.6,5.9,6.2,8.5,2.6,2.6,7.4,5.8,8.5,6.2,1.1.4,1.7.6,2.7-.4,1-1,3-2.8,3.9-3.2.9-.5,1.4-.7,3.5,0,2.2.8,7,2.6,8.7,3.2,1.8.7,2.3,1.4,2.4,2.6,0,1.2.1,2.6.1,3.5,0,.9-2.6,4.9-6.6,6.4-4,1.5-16,1.6-29.6-12Z"/>
    </g>
  </g>
</svg>