<?xml version="1.0" encoding="UTF-8"?>
<svg xmlns="http://www.w3.org/2000/svg" version="1.1" viewBox="0 0 100 100">
  <defs>
    <style>
      .cls-1 {
        fill: #f0ede8;
      }
    </style>
  </defs>
  <!-- Generator: Adobe Illustrator 28.6.0, SVG Export Plug-In . SVG Version: 1.2.0 Build 709)  -->
  <g>
    <g id="Layer_1">
      <path class="cls-1" d="M99.7,29.4c-.2-5.3-1.1-9-2.3-12.1-1.3-3.3-3-6.1-5.8-8.9-2.8-2.8-5.6-4.5-8.9-5.8-3.2-1.2-6.8-2.1-12.1-2.3-5.3-.2-7-.3-20.6-.3s-15.3,0-20.6.3c-5.3.2-9,1.1-12.1,2.3-3.3,1.3-6.1,3-8.9,5.8-2.8,2.8-4.5,5.6-5.8,8.9-1.2,3.2-2.1,6.8-2.3,12.1-.2,5.3-.3,7-.3,20.6s0,15.3.3,20.6c.2,5.3,1.1,9,2.3,12.1,1.3,3.3,3,6.1,5.8,8.9,2.8,2.8,5.6,4.5,8.9,5.8,3.2,1.2,6.8,2.1,12.1,2.3,5.3.2,7,.3,20.6.3s15.3,0,20.6-.3c5.3-.2,9-1.1,12.1-2.3,3.3-1.3,6.1-3,8.9-5.8,2.8-2.8,4.5-5.6,5.8-8.9,1.2-3.2,2.1-6.8,2.3-12.1.2-5.3.3-7,.3-20.6s0-15.3-.3-20.6ZM74.8,29.8c-1.1,5-2.1,9.9-3.2,14.9-1.2,5.7-2.4,11.4-3.6,17.1-.7,3.2-1.4,6.5-2.1,9.7-.1.6-.3,1.2-.6,1.7-.6,1.2-1.6,1.7-2.9,1.3-.7-.2-1.4-.5-1.9-.9-3.4-2.5-14.5-10.8-21-15.6,0-.1,0-.2.2-.3,7.4-6.8,14.9-13.6,22.3-20.4.8-.7,1.6-1.4,2.4-2.2.1-.1.3-.3.4-.5.2-.2,0-.5-.2-.5-.4-.1-.8,0-1.1,0-.3.1-.5.3-.8.5-9.6,6-19.2,12.1-28.8,18.1-.5.3-1.1.7-1.6,1-.2.1-.3.1-.5,0-4.3-1.3-8.7-2.7-13-4-.4-.1-.9-.3-1.3-.5-.9-.5-1.1-1.2-.6-2.1.3-.5.8-.9,1.4-1.1,1.3-.6,2.7-1.1,4-1.6,8.3-3.2,16.5-6.4,24.8-9.6,8-3.1,16-6.2,24-9.2.4-.1.7-.2,1.1-.3,1.6-.3,2.6,1.1,2.8,2.1.1.7,0,1.5,0,2.2Z"/>
    </g>
  </g>
</svg>