<?xml version="1.0" encoding="UTF-8"?>
<svg xmlns="http://www.w3.org/2000/svg" version="1.1" viewBox="0 0 100 100">
  <defs>
    <style>
      .cls-1 {
        fill: #fff;
      }
    </style>
  </defs>
  <!-- Generator: Adobe Illustrator 28.6.0, SVG Export Plug-In . SVG Version: 1.2.0 Build 709)  -->
  <g>
    <g id="Layer_1">
      <g>
        <path class="cls-1" d="M63,56.7c-1.1-.4-3.9-1.4-5.2-1.9-1.3-.5-1.5-.3-2.1,0-.5.3-1.7,1.3-2.3,1.9s-1,.5-1.6.2c-.6-.2-3.5-2.2-5-3.7-1.5-1.5-3.5-4.4-3.7-5-.2-.6-.3-1,.2-1.6.6-.6,1.7-1.8,1.9-2.3.3-.5.4-.8,0-2.1s-1.5-4.2-1.9-5.2c-.4-1.1-.8-1.4-1.6-1.4-.7,0-1.5,0-2.1,0-.6,0-2.9,1.5-3.8,3.9-.9,2.4-1,9.5,7.1,17.6,8.1,8.1,15.2,8,17.6,7.1s3.9-3.2,3.9-3.8c0-.6,0-1.4,0-2.1,0-.7-.4-1.2-1.4-1.6Z"/>
        <path class="cls-1" d="M99.7,29.4c-.2-5.3-1.1-9-2.3-12.1-1.3-3.3-3-6.1-5.8-8.9-2.8-2.8-5.6-4.5-8.9-5.8-3.2-1.2-6.8-2.1-12.1-2.3-5.3-.2-7-.3-20.6-.3s-15.3,0-20.6.3c-5.3.2-9,1.1-12.1,2.3-3.3,1.3-6.1,3-8.9,5.8-2.8,2.8-4.5,5.6-5.8,8.9-1.2,3.2-2.1,6.8-2.3,12.1C0,34.7,0,36.4,0,50s0,15.3.3,20.6c.2,5.3,1.1,9,2.3,12.1,1.3,3.3,3,6.1,5.8,8.9,2.8,2.8,5.6,4.5,8.9,5.8,3.2,1.2,6.8,2.1,12.1,2.3,5.3.2,7,.3,20.6.3s15.3,0,20.6-.3c5.3-.2,9-1.1,12.1-2.3,3.3-1.3,6.1-3,8.9-5.8,2.8-2.8,4.5-5.6,5.8-8.9,1.2-3.2,2.1-6.8,2.3-12.1.2-5.3.3-7,.3-20.6s0-15.3-.3-20.6ZM79.7,79.7l-14.2-4.4c-4.5,2.8-9.9,4.4-15.6,4.4-16.4,0-29.7-13.3-29.7-29.7s13.3-29.7,29.7-29.7,29.7,13.3,29.7,29.7-1.6,11.1-4.4,15.6l4.4,14.2Z"/>
      </g>
    </g>
  </g>
</svg>