<?xml version="1.0" encoding="UTF-8"?>
<svg xmlns="http://www.w3.org/2000/svg" version="1.1" viewBox="0 0 100 100">
  <defs>
    <style>
      .cls-1 {
        fill: #ff3f1a;
      }
    </style>
  </defs>
  <!-- Generator: Adobe Illustrator 28.6.0, SVG Export Plug-In . SVG Version: 1.2.0 Build 709)  -->
  <g>
    <g id="Layer_1">
      <path class="cls-1" d="M50,.1C22.4.1,0,22.5,0,50.1s22.4,50,50,50,50-22.4,50-50S77.6.1,50,.1ZM75.2,31.2c-1.1,5.2-2.2,10.3-3.3,15.5-1.3,5.9-2.5,11.8-3.8,17.7-.7,3.4-1.4,6.7-2.2,10.1-.1.6-.3,1.2-.6,1.8-.6,1.3-1.6,1.7-3,1.4-.7-.2-1.4-.5-2-1-3.5-2.6-15.1-11.2-21.9-16.3,0-.1,0-.2.2-.3,7.7-7.1,15.5-14.1,23.2-21.2.8-.7,1.6-1.5,2.4-2.2.2-.1.3-.3.4-.5.2-.2,0-.5-.2-.6-.4-.1-.8,0-1.2,0-.3.1-.6.3-.8.5-10,6.3-20,12.6-29.9,18.8-.6.3-1.1.7-1.7,1-.2.1-.3.1-.5,0-4.5-1.4-9-2.8-13.5-4.1-.5-.1-.9-.3-1.4-.5-.9-.5-1.1-1.3-.6-2.2.3-.6.9-.9,1.4-1.2,1.4-.6,2.8-1.1,4.2-1.7,8.6-3.3,17.2-6.6,25.8-9.9,8.3-3.2,16.6-6.4,24.9-9.6.4-.1.8-.2,1.2-.3,1.6-.3,2.7,1.1,2.9,2.2.1.8,0,1.5,0,2.3Z"/>
    </g>
  </g>
</svg>