<?xml version="1.0" encoding="UTF-8"?>
<svg xmlns="http://www.w3.org/2000/svg" version="1.1" viewBox="0 0 100 100">
  <defs>
    <style>
      .cls-1 {
        fill: #ff3f1a;
      }
    </style>
  </defs>
  <!-- Generator: Adobe Illustrator 28.6.0, SVG Export Plug-In . SVG Version: 1.2.0 Build 709)  -->
  <g>
    <g id="Layer_1">
      <g>
        <path class="cls-1" d="M39.1,56.6c4.7-3.9,9.3-6.3,13.9-7.3-.7-1.6-1.3-3-2-4.3-7.8,2.5-16.3,3.8-25.4,3.8s-3.1,0-4,0c0,.2,0,.4,0,.7,0,.3,0,.5,0,.7,0,7.1,2.4,13.4,7.2,18.8,2.2-4.3,5.6-8.3,10.4-12.2Z"/>
        <path class="cls-1" d="M42.1,60.8c-4.3,3.7-7.4,7.6-9.5,11.6,5.1,4,10.9,6,17.4,6s6.7-.6,10-1.9c-.9-7.8-2.7-15.3-5.3-22.6-4.2.9-8.4,3.2-12.7,6.9Z"/>
        <path class="cls-1" d="M68.2,28.1c-5.3-4.4-11.3-6.6-18.2-6.6s-4.6.3-7,1c4,4.1,7.7,9.3,11.1,15.5,6.2-2.6,10.8-5.9,14-9.9Z"/>
        <path class="cls-1" d="M48.5,40c-3.5-6.1-7.3-11.3-11.4-15.4-3.6,1.8-6.7,4.3-9.2,7.6-2.6,3.2-4.4,6.8-5.4,10.7,1,0,2.5.1,4.4.1,7.6,0,14.8-1,21.6-3.1Z"/>
        <path class="cls-1" d="M60.6,53.1c2.3,6.7,3.9,13.6,4.7,20.7,3.6-2.3,6.5-5.3,8.8-8.9,2.3-3.6,3.6-7.6,4.1-11.8-3.3-.2-6.3-.3-9.1-.3s-5.3.1-8.5.3Z"/>
        <path class="cls-1" d="M99.7,29.4c-.2-5.3-1.1-9-2.3-12.1-1.3-3.3-3-6.1-5.8-8.9-2.8-2.8-5.6-4.5-8.9-5.8-3.2-1.2-6.8-2.1-12.1-2.3-5.3-.2-7-.3-20.6-.3s-15.3,0-20.6.3c-5.3.2-9,1.1-12.1,2.3-3.3,1.3-6.1,3-8.9,5.8-2.8,2.8-4.5,5.6-5.8,8.9-1.2,3.2-2.1,6.8-2.3,12.1-.2,5.3-.3,7-.3,20.6s0,15.3.3,20.6c.2,5.3,1.1,9,2.3,12.1,1.3,3.3,3,6.1,5.8,8.9,2.8,2.8,5.6,4.5,8.9,5.8,3.2,1.2,6.8,2.1,12.1,2.3,5.3.2,7,.3,20.6.3s15.3,0,20.6-.3c5.3-.2,9-1.1,12.1-2.3,3.3-1.3,6.1-3,8.9-5.8,2.8-2.8,4.5-5.6,5.8-8.9,1.2-3.2,2.1-6.8,2.3-12.1.2-5.3.3-7,.3-20.6s0-15.3-.3-20.6ZM79.5,67.1c-3,5.2-7.2,9.4-12.4,12.4-5.2,3-10.9,4.6-17.1,4.6s-11.9-1.5-17.1-4.6c-5.2-3-9.4-7.2-12.4-12.4-3-5.2-4.6-10.9-4.6-17.1s1.5-11.9,4.6-17.1c3-5.2,7.2-9.4,12.4-12.4,5.2-3,10.9-4.6,17.1-4.6s11.9,1.5,17.1,4.6c5.2,3,9.4,7.2,12.4,12.4,3,5.2,4.6,10.9,4.6,17.1s-1.5,11.9-4.6,17.1Z"/>
        <path class="cls-1" d="M56.6,42.8c.7,1.5,1.5,3.3,2.3,5.5,3.4-.3,7-.5,11-.5s5.6,0,8.4.2c-.4-6.2-2.6-11.7-6.7-16.5-3,4.4-8,8.2-15,11.3Z"/>
      </g>
    </g>
  </g>
</svg>