<svg width="143" height="74" viewBox="0 0 143 74" fill="none" xmlns="http://www.w3.org/2000/svg">
<g clip-path="url(#clip0_763_787)">
<path d="M78.2978 28.5586H71.6648V29.1775C71.9322 29.1951 72.1909 29.2393 72.4583 29.2924C72.6653 29.3277 72.8551 29.4162 73.019 29.5488C73.4158 29.8936 73.4071 30.5389 73.4071 31.7148V39.592C73.4071 41.1922 73.5451 43.4642 71.3284 43.4377C70.3796 43.4289 69.4049 42.7305 69.103 41.4662H68.3439C68.6631 43.588 69.7671 45.0291 72.4411 45.0291H72.4497C74.7182 45.0291 76.7452 43.9593 76.7452 40.3258V31.7236C76.7452 30.5478 76.7452 29.9289 77.1334 29.5841C77.3921 29.3631 77.5991 29.257 78.2892 29.1775V28.5586H78.2978Z" fill="white"/>
<path d="M85.9056 28.5586H79.2639V29.1775C79.954 29.2482 80.1696 29.3543 80.4197 29.5753C80.7389 29.8494 80.7906 30.3091 80.8079 31.0782V42.0762C80.7993 42.8542 80.7389 43.3051 80.4197 43.5792C80.1696 43.8002 79.954 43.9063 79.2639 43.977V44.6047H89.2868L90.3477 41.4574H89.5714C88.8038 43.1813 87.6134 43.3847 86.518 43.3847C85.6296 43.3847 85.0344 43.3316 84.6204 43.0576C84.284 42.8365 84.1546 42.253 84.146 41.2629V31.7236C84.146 30.5478 84.146 29.9024 84.5341 29.5576C84.7843 29.3366 85.2069 29.257 85.897 29.1863V28.5586H85.9056Z" fill="white"/>
<path d="M96.9635 28.5586H90.3304V29.1775C91.0205 29.2482 91.2361 29.3543 91.4863 29.5753C91.8054 29.8494 91.8572 30.3091 91.8744 31.0782V42.0762C91.8658 42.8542 91.8054 43.3051 91.4863 43.5792C91.2361 43.8002 91.0205 43.9063 90.3304 43.977V44.6047H100.353L101.414 41.4574H100.638C99.8703 43.1813 98.68 43.3847 97.5845 43.3847C96.6961 43.3847 96.1009 43.3316 95.6869 43.0576C95.3505 42.8365 95.2211 42.253 95.2125 41.2629V31.7236C95.2125 30.5478 95.2125 29.9024 95.6007 29.5576C95.8508 29.3366 96.2734 29.257 96.9635 29.1863V28.5586Z" fill="white"/>
<path d="M52.4643 49.4598C52.7748 49.3095 53.0681 49.1416 53.3441 48.9382C53.4045 48.894 53.4649 48.8586 53.5253 48.8144C53.8789 48.5404 54.2067 48.2398 54.4999 47.9127C54.8967 47.4795 55.259 47.0109 55.5695 46.5158C55.8197 46.1268 56.0525 45.7202 56.2596 45.2958C57.0617 43.6426 57.6051 41.8744 57.8639 40.0532C58.0364 38.9039 58.1227 37.7457 58.114 36.5876C58.114 35.4294 58.0278 34.2624 57.8639 33.1131C57.6051 31.2919 57.0617 29.5237 56.2596 27.8705C56.1647 27.6848 56.0612 27.4903 55.9577 27.3047C55.5264 28.118 55.1641 28.9756 54.8795 29.8508C55.397 31.4687 55.7161 33.1485 55.8283 34.8459C55.8628 35.4206 55.88 35.9952 55.88 36.5699C55.88 37.1445 55.8628 37.728 55.8283 38.2938C55.7075 40.3714 55.2504 42.4137 54.4913 44.341C54.1894 45.0836 53.8358 45.8086 53.4218 46.4981C53.3269 46.6573 53.232 46.8253 53.1285 46.9844C52.9215 47.3027 52.6886 47.6209 52.4471 47.9215C52.171 48.2752 51.8778 48.6111 51.5673 48.9205C51.2309 49.2565 50.8772 49.5659 50.4977 49.84C50.4632 49.8665 50.4373 49.8842 50.4114 49.9107V49.9461C51.1187 49.9195 51.8088 49.7516 52.4557 49.4421L52.4643 49.4598Z" fill="white"/>
<path d="M56.5442 49.4573C56.8547 49.307 57.148 49.139 57.4326 48.9357C57.493 48.8915 57.5534 48.8561 57.6138 48.8119C58.7955 47.9013 59.6839 46.6282 60.3567 45.2932C61.1589 43.64 61.7023 41.8718 61.9611 40.0506C62.1336 38.9013 62.2198 37.7432 62.2112 36.585C62.2112 35.4269 62.1249 34.2599 61.9611 33.1106C61.7023 31.2893 61.1589 29.5212 60.3567 27.8679C59.7443 26.6302 58.9335 25.4544 57.8812 24.5703C57.5448 24.9416 57.2343 25.3306 56.941 25.7461C57.0445 25.8876 57.1394 26.0291 57.2343 26.1705C58.9162 28.7343 59.727 31.8021 59.9254 34.8522C59.9686 35.4269 59.9858 36.0015 59.9858 36.5762C59.9858 37.1508 59.9686 37.7343 59.9254 38.3001C59.7184 41.3591 58.9162 44.4268 57.2343 46.9818C57.0272 47.3001 56.7944 47.6184 56.5528 47.919C56.2768 48.2726 55.9836 48.6085 55.673 48.918C55.3366 49.2539 54.983 49.5634 54.6035 49.8374L54.5172 49.9081V49.9435C55.2245 49.917 55.9146 49.749 56.5528 49.4396L56.5442 49.4573Z" fill="white"/>
<path d="M61.685 48.815C62.8667 47.9044 63.7551 46.6313 64.4279 45.2964C65.2301 43.6431 65.7735 41.875 66.0323 40.0538C66.2048 38.9044 66.291 37.7463 66.2824 36.5882C66.2824 35.43 66.1962 34.263 66.0323 33.1137C65.7735 31.2925 65.2301 29.5243 64.4279 27.8711C63.7638 26.5273 62.8753 25.263 61.685 24.3524C60.8052 23.6805 59.6925 23.2385 58.5884 23.2031V23.2385C59.6666 24.0076 60.5809 25.0685 61.3055 26.1736C62.9875 28.7375 63.7983 31.8053 64.0053 34.8553C64.0398 35.43 64.0657 36.0047 64.0657 36.5793C64.0657 37.154 64.0484 37.7375 64.0053 38.3033C63.7983 41.3622 62.9961 44.43 61.3055 46.985C60.5723 48.0901 59.6666 49.1421 58.5884 49.9201V49.9555C59.7011 49.929 60.8052 49.4781 61.685 48.8062V48.815Z" fill="white"/>
<path d="M56.5442 23.706C56.2337 23.8563 55.9405 24.0243 55.6644 24.2276C55.6041 24.2718 55.5437 24.3072 55.4833 24.3514C55.1297 24.6255 54.8019 24.9261 54.5086 25.2532C54.1118 25.6864 53.7582 26.1549 53.439 26.65C53.1889 27.0479 52.956 27.4545 52.749 27.8701C51.9468 29.5233 51.4034 31.2915 51.1447 33.1127C50.9721 34.262 50.8859 35.4201 50.8945 36.5871C50.8945 37.7453 50.9808 38.9123 51.1447 40.0527C51.4034 41.8739 51.9468 43.651 52.749 45.2953C52.8439 45.481 52.9474 45.6755 53.0509 45.8612C53.4822 45.0478 53.8444 44.1902 54.1291 43.3062C53.6029 41.6883 53.2924 40.0085 53.1803 38.3111C53.1458 37.7364 53.1285 37.1618 53.1285 36.5871C53.1285 36.0125 53.1458 35.429 53.1803 34.8632C53.301 32.7856 53.7582 30.7433 54.5172 28.816C54.8191 28.0646 55.1728 27.3484 55.5868 26.6589C55.6817 26.4997 55.7766 26.3318 55.8801 26.1726C56.0871 25.8543 56.32 25.5361 56.5615 25.2355C56.8375 24.8819 57.1308 24.5459 57.4413 24.2365C57.7777 23.9005 58.1313 23.5911 58.5109 23.317C58.5454 23.2905 58.5712 23.2728 58.5971 23.2463V23.2109C57.8898 23.2375 57.1998 23.4054 56.5529 23.7149L56.5442 23.706Z" fill="white"/>
<path d="M52.4643 23.705C52.1537 23.8553 51.8605 24.0233 51.5758 24.2266C51.5155 24.2708 51.4551 24.3062 51.3947 24.3504C50.213 25.261 49.3246 26.5341 48.6518 27.869C47.8496 29.5223 47.3062 31.2904 47.0474 33.1116C46.8749 34.261 46.7887 35.4191 46.7973 36.5861C46.7973 37.7442 46.8835 38.9112 47.0474 40.0517C47.3062 41.8729 47.8496 43.6411 48.6518 45.2943C49.2642 46.532 50.075 47.7079 51.1273 48.592C51.4637 48.2206 51.7742 47.8316 52.0675 47.425C51.964 47.2835 51.8691 47.1421 51.7742 47.0006C50.0922 44.4368 49.2814 41.369 49.083 38.3189C49.0485 37.7442 49.0227 37.1696 49.0227 36.5949C49.0227 36.0203 49.0399 35.4368 49.083 34.871C49.2901 31.812 50.0922 28.7443 51.7742 26.1893C51.9812 25.871 52.2141 25.5527 52.4556 25.2521C52.7317 24.8985 53.0249 24.5626 53.3354 24.2531C53.6718 23.9172 54.0255 23.6077 54.405 23.3248C54.4395 23.2983 54.4654 23.2806 54.4913 23.2541V23.2188C53.784 23.2453 53.0939 23.4132 52.4556 23.7227L52.4643 23.705Z" fill="white"/>
<path d="M47.3235 24.3524C46.1418 25.263 45.2534 26.5361 44.5892 27.8711C43.787 29.5155 43.2436 31.2837 42.9762 33.1137C42.8037 34.263 42.7261 35.4212 42.7261 36.5882C42.7261 37.7463 42.8123 38.9133 42.9762 40.0538C43.235 41.875 43.7784 43.652 44.5806 45.2964C45.2447 46.6402 46.1332 47.9044 47.3235 48.815C48.2033 49.4958 49.316 49.9378 50.4201 49.9643V49.929C49.3332 49.151 48.4189 48.0901 47.703 46.985C46.021 44.4211 45.2102 41.3534 45.0032 38.3033C44.9687 37.7286 44.9428 37.154 44.9428 36.5793C44.9428 36.0047 44.9601 35.4212 45.0032 34.8553C45.2016 31.7964 46.0124 28.7286 47.703 26.1736C48.4276 25.0685 49.3419 24.0076 50.4287 23.2385V23.2031C49.316 23.2296 48.2119 23.6805 47.3235 24.3524Z" fill="white"/>
<path d="M55.2245 48.5903C55.5609 48.219 55.8714 47.83 56.1646 47.4145C56.0611 47.2731 55.9663 47.1316 55.8714 46.9902C55.7679 46.831 55.6816 46.6719 55.5781 46.5039C55.259 46.999 54.9053 47.4676 54.5085 47.9008C54.7328 48.1483 54.9743 48.3693 55.2245 48.5903Z" fill="white"/>
<path d="M57.4326 47.6914C57.1566 47.8947 56.8547 48.0627 56.5528 48.213C57.1911 48.5224 57.8898 48.6904 58.5884 48.7169V48.6816C58.1744 48.381 57.7862 48.0539 57.4326 47.6914Z" fill="white"/>
<path d="M54.1205 48.6904C54.2326 48.6816 54.3448 48.6551 54.4483 48.6374C54.3361 48.5578 54.224 48.4694 54.1205 48.3898C53.8531 48.1688 53.5943 47.9389 53.3528 47.6914C53.0768 47.8947 52.7749 48.0627 52.473 48.213C52.8957 48.4164 53.3442 48.5578 53.8014 48.6374C53.9135 48.6551 54.017 48.6727 54.1291 48.6904M54.5173 48.7169V48.6816C54.5173 48.6816 54.4828 48.6551 54.4655 48.6374C54.362 48.6551 54.2499 48.6727 54.1378 48.6904C54.2671 48.7081 54.3965 48.7169 54.5259 48.7169H54.5173Z" fill="white"/>
<path d="M53.7927 24.5703C53.4563 24.9416 53.1457 25.3306 52.8525 25.7461C52.956 25.8876 53.0509 26.0291 53.1457 26.1705C53.2493 26.3296 53.3355 26.4888 53.439 26.6568C53.7582 26.1617 54.1118 25.6931 54.5086 25.2599C54.2843 25.0124 54.0428 24.7913 53.7927 24.5703Z" fill="white"/>
<path d="M51.5845 24.2287C51.8605 24.0253 52.1624 23.8573 52.4643 23.7071C51.826 23.3976 51.1273 23.2296 50.42 23.2031V23.2385C50.8341 23.5391 51.2222 23.8662 51.5759 24.2287" fill="white"/>
<path d="M56.5442 23.7071C56.1215 23.5037 55.673 23.3623 55.2159 23.2827C55.1037 23.265 55.0002 23.2473 54.8881 23.2296C54.7587 23.212 54.6293 23.2031 54.4999 23.2031V23.2385C54.4999 23.2385 54.5344 23.265 54.5517 23.2827C54.6638 23.3623 54.776 23.4507 54.8795 23.5302C55.1469 23.7513 55.4056 23.9811 55.6471 24.2287C55.9232 24.0253 56.225 23.8573 56.5269 23.7071" fill="white"/>
</g>
<defs>
<clipPath id="clip0_763_787">
<rect width="58.6882" height="26.7701" fill="white" transform="translate(42.7261 23.2031)"/>
</clipPath>
</defs>
</svg>
