<?xml version="1.0" encoding="UTF-8"?>
<svg xmlns="http://www.w3.org/2000/svg" version="1.1" viewBox="0 0 200 100">
  <defs>
    <style>
      .cls-1 {
        opacity: 0;
      }

      .cls-1, .cls-2 {
        fill: #f0ede8;
      }
    </style>
  </defs>
  <!-- Generator: Adobe Illustrator 28.6.0, SVG Export Plug-In . SVG Version: 1.2.0 Build 709)  -->
  <g>
    <g id="Layer_1">
      <g>
        <g>
          <path class="cls-2" d="M91.2,65.2h3.5v.8h-2.6v1.4h2.5v.8h-2.5v1.8h-.8v-4.7Z"/>
          <path class="cls-2" d="M97.7,65.2c1.4,0,2.4,1,2.4,2.4s-1.1,2.4-2.4,2.4-2.4-1-2.4-2.4c0-1.4,1-2.4,2.4-2.4ZM97.7,69.3c.9,0,1.6-.7,1.6-1.7s-.7-1.7-1.6-1.7-1.6.7-1.6,1.7.7,1.7,1.6,1.7Z"/>
          <path class="cls-2" d="M101.1,69.9v-4.7h2c1.3,0,1.8.7,1.8,1.5s-.4,1.2-1,1.4l1.3,1.9h-1l-1.2-1.7h-1.1v1.7h-.9ZM101.9,66v1.5h1.1c.6,0,1-.3,1-.7s-.3-.7-1-.7h-1.1Z"/>
          <path class="cls-2" d="M107.6,65.2h3.9v.8h-1.6v3.9h-.8v-3.9h-1.6v-.8Z"/>
          <path class="cls-2" d="M115.6,68h-2.5v2h-.8v-4.7h.8v1.9h2.5v-1.9h.8v4.7h-.8v-2Z"/>
          <path class="cls-2" d="M117.7,65.2h3.5v.8h-2.7v1.2h2.4v.7h-2.4v1.3h2.7v.8h-3.6v-4.7h0Z"/>
          <path class="cls-2" d="M124.3,65.2h3.5v.8h-2.6v1.4h2.5v.8h-2.5v1.8h-.8v-4.7Z"/>
          <path class="cls-2" d="M132.7,68c0,1.5-1,2.1-2,2.1s-2.1-.7-2.1-2.1v-2.7h.8v2.6c0,.9.5,1.4,1.3,1.4s1.2-.5,1.2-1.4v-2.6h.8v2.7h0Z"/>
          <path class="cls-2" d="M133.4,65.2h3.9v.8h-1.6v3.9h-.8v-3.9h-1.6v-.8Z"/>
          <path class="cls-2" d="M142.2,68c0,1.5-1,2.1-2,2.1s-2.1-.7-2.1-2.1v-2.7h.8v2.6c0,.9.5,1.4,1.3,1.4s1.2-.5,1.2-1.4v-2.6h.8v2.7h0Z"/>
          <path class="cls-2" d="M143.4,69.9v-4.7h2c1.3,0,1.8.7,1.8,1.5s-.4,1.2-1,1.4l1.3,1.9h-1l-1.2-1.7h-1.1v1.7h-.9ZM144.2,66v1.5h1.1c.6,0,1-.3,1-.7s-.3-.7-1-.7h-1.1Z"/>
          <path class="cls-2" d="M148.3,65.2h3.5v.8h-2.7v1.2h2.4v.7h-2.4v1.3h2.7v.8h-3.6v-4.7h0Z"/>
          <path class="cls-2" d="M98.1,49.4h7.5v.9c0,4.7-3.4,7.1-7,7.1s-7.4-3.1-7.4-7.5,3.1-7.5,7.4-7.5,5.2,1.4,6.4,4l-1.7.5c-.9-1.8-2.7-2.8-4.7-2.8-3.2,0-5.5,2.3-5.5,5.7s2.3,5.7,5.5,5.7,4.9-1.5,5.2-4.3h-5.7v-1.8h0Z"/>
          <path class="cls-2" d="M107.9,46.2h1.7v1.3c.3-.9,1.2-1.4,2.5-1.4s.9,0,1,0v1.7c-.3,0-.6-.1-1-.1-1.6,0-2.5.9-2.5,2.4v7h-1.7v-10.9h0Z"/>
          <path class="cls-2" d="M119.9,46.1c3.4,0,5.8,2.4,5.8,5.6s-2.4,5.6-5.8,5.6-5.7-2.4-5.7-5.6,2.3-5.6,5.7-5.6ZM119.9,55.6c2.3,0,3.9-1.6,3.9-4s-1.7-3.9-3.9-3.9-3.9,1.6-3.9,3.9,1.6,4,3.9,4Z"/>
          <path class="cls-2" d="M135.9,55.4c-.6,1.2-1.9,1.9-3.5,1.9-3,0-4.5-1.5-4.5-4.8v-6.2h1.7v6c0,1.8.6,3.4,3,3.4s3.2-1.2,3.2-3.2v-6.1h1.7v10.8h-1.7v-1.7h0Z"/>
          <path class="cls-2" d="M142.5,55.5v5.8h-1.7v-15.1h1.7v1.9c.7-1.3,2.1-2.2,4.1-2.2,3,0,5.2,2.1,5.2,5.5s-2.2,5.7-5.4,5.7c-2,0-3.2-.6-4-1.7ZM150,51.6c0-2.4-1.6-3.9-3.8-3.9s-3.8,1.4-3.8,3.8v.4c0,2.5,1.7,3.7,3.8,3.7,2.2,0,3.7-1.5,3.7-4Z"/>
          <path class="cls-2" d="M73.8,57.1l-3-5-3,5h-3.5l4.6-7.6-4.7-7h3.7l3,4.7,2.8-4.7h3.6l-4.6,7.3,4.7,7.4h-3.6Z"/>
          <path class="cls-2" d="M88.9,52.1c0,3.2-2.4,5.2-5.6,5.2s-5.2-1.5-5.4-4.9h3c.2,1.5,1.4,2.1,2.6,2.1s2.3-1.1,2.3-2.4-1.1-2.3-2.6-2.3-2.1.6-2.4,1.2h-2.9l1-8.5h9.5l-.3,2.8h-6.8l-.3,2.8s.7-.9,2.9-.9c2.6,0,4.9,1.7,4.9,4.8Z"/>
          <path class="cls-2" d="M78.3,40.7c-1.6-6.3-6.7-10.7-17.3-10.7h-12.8l1.7,11.7c1.3,10.6,5.4,14,12.5,15.3,0,0,.3,0,.3-.2s0-.2-.1-.2c-4.8-2.1-5.4-8.7-6.5-15.5l-.8-5.4h7.3c6.8,0,12,0,15.2,5.1,0,0,.1.1.2.1.1,0,.2,0,.2-.2h0Z"/>
        </g>
        <rect class="cls-1" width="200" height="100"/>
      </g>
    </g>
  </g>
</svg>