<?xml version="1.0" encoding="UTF-8"?>
<svg xmlns="http://www.w3.org/2000/svg" version="1.1" viewBox="0 0 200 100">
  <defs>
    <style>
      .cls-1 {
        opacity: 0;
      }

      .cls-1, .cls-2 {
        fill: #f0ede8;
      }
    </style>
  </defs>
  <!-- Generator: Adobe Illustrator 28.6.0, SVG Export Plug-In . SVG Version: 1.2.0 Build 709)  -->
  <g>
    <g id="Layer_1">
      <g>
        <path class="cls-2" d="M58.7,44.1c-3.4,0-4.7,2.8-4.7,3-.8-1.8-2.7-3-4.7-3-1.4,0-2.7.6-3.7,1.6-1,1-1.5,2.4-1.6,3.8,0,5.8,5.5,10.6,10,10.6s10-4.7,10-10.6c0-1.4-.6-2.8-1.6-3.8-1-1-2.3-1.6-3.7-1.6h0ZM59.6,49.7c0,1.5-.6,3-1.7,4.1-1.1,1.1-2.5,1.7-4,1.7-1.5,0-2.9-.6-4-1.7-1.1-1.1-1.7-2.5-1.7-4.1v-.2h2v.2c0,1,.4,1.9,1.1,2.6.7.7,1.6,1.1,2.6,1.1,1,0,1.9-.4,2.6-1.1.7-.7,1.1-1.6,1.1-2.6v-.2h2v.2s0,0,0,0ZM148,44.1c-4.6,0-8,3.4-8,8s3.4,8,8,8,8-3.4,8-8-3.4-8-8-8h0ZM148,56.9c-2.5,0-4.3-2-4.3-4.8s1.7-4.8,4.3-4.8,4.3,2,4.3,4.8-1.7,4.8-4.3,4.8h0ZM130.2,44.1c-4.6,0-8,3.4-8,8s3.4,8,8,8,8-3.4,8-8c0-4.7-3.4-8-8-8h0ZM130.2,56.9c-2.5,0-4.3-2-4.3-4.8s1.7-4.8,4.3-4.8,4.3,2,4.3,4.8-1.7,4.8-4.3,4.8h0ZM78.1,44.1c-2.5,0-4.4,1.1-5.4,3v-7.2h-3.4v11.8c0,5,2.9,8.4,7.9,8.4s7.9-3,7.9-8.1c0-4.3-2.5-7.9-7-7.9h0ZM77.2,56.7c-2.7,0-4.3-2-4.3-4.6s1.5-4.8,4.3-4.8,4.3,2.1,4.3,4.8c0,2.6-1.5,4.6-4.2,4.6h0ZM94.9,44.1c-4.1,0-7.9,3-7.9,8.1s2.5,7.9,7,7.9,4.4-1.1,5.4-3v2.8h3.4v-7.4c0-5-2.9-8.4-7.9-8.4h0ZM94.9,56.9c-2.7,0-4.2-2.1-4.2-4.7s1.5-4.7,4.2-4.7,4.3,2,4.3,4.6c0,2.6-1.6,4.8-4.4,4.8ZM117,39.9v7.2c-1.1-1.9-2.9-3-5.4-3-4.5,0-7,3.6-7,7.9s3.6,8.1,7.8,8.1,8.1-3.4,8.1-8.4v-11.8h-3.4ZM112.5,56.7c-2.7,0-4.2-2-4.2-4.6s1.7-4.8,4.3-4.8,4.3,2.1,4.3,4.8c0,2.6-1.6,4.6-4.3,4.6h0Z"/>
        <rect class="cls-1" width="200" height="100"/>
      </g>
    </g>
  </g>
</svg>