<svg width="143" height="73" viewBox="0 0 143 73" fill="none" xmlns="http://www.w3.org/2000/svg">
<g clip-path="url(#clip0_763_685)">
<path d="M52.4422 52.434C52.2678 52.3479 52.0672 52.3651 51.8753 52.3221C51.0729 52.1326 50.3228 51.8399 49.782 51.1941C49.2064 50.5053 49.1017 49.7218 49.3982 48.9124C49.6948 48.1289 50.3664 47.707 51.1688 47.5864C52.4161 47.397 53.3406 47.9395 53.8029 49.0588C53.9599 49.4376 54.1081 49.8251 54.4221 50.1264C54.8495 50.5311 55.3641 50.4795 55.6694 49.9887C55.8787 49.6443 55.9834 49.2568 55.9747 48.8521C55.9747 42.317 55.9747 35.7818 55.9747 29.2466C55.9747 28.8247 55.6432 28.4803 55.2158 28.4717C55.2158 28.4717 55.2071 28.4717 55.1984 28.4717C54.8321 28.4717 54.4658 28.4717 54.0907 28.4717C53.515 28.4717 53.0179 28.0584 52.9045 27.5074C52.7998 26.9305 53.14 26.3622 53.7157 26.1814C53.925 26.1211 54.1343 26.0953 54.3436 26.1039H64.688C65.2637 26.1039 65.5428 25.9145 65.7434 25.372C65.944 24.8296 66.5109 24.4852 67.1651 24.4766H83.4578C83.7137 24.4766 83.8416 24.6028 83.8416 24.8554V26.6291C83.8416 26.9477 83.8416 26.9477 83.5102 26.9477H79.2538C78.5386 26.9477 78.1461 27.3352 78.1461 28.0412V42.8939C78.1461 43.5396 77.9106 44.0304 77.335 44.392C75.7127 45.408 74.1165 46.4499 72.5117 47.4745C72.407 47.5434 72.2936 47.6037 72.1715 47.6553C71.5174 47.905 70.9068 47.5175 70.8545 46.8287C70.8545 46.734 70.8545 46.6393 70.8545 46.5532V28.3856C70.8545 28.2306 70.8458 28.0843 70.8196 27.9293C70.7324 27.2749 70.3748 26.9563 69.7032 26.9563C68.9007 26.9563 68.0983 26.9563 67.2872 26.9563C66.7377 26.9563 66.5022 27.1285 66.3103 27.6365C66.1271 28.1445 65.63 28.4803 65.0892 28.4803C64.845 28.4803 64.5921 28.4803 64.3478 28.4803C63.9292 28.4631 63.5716 28.7903 63.5629 29.2122C63.5629 29.2208 63.5629 29.2294 63.5629 29.238V44.2026C63.5803 45.0464 63.3274 45.8644 62.8476 46.5618C62.4813 47.0784 61.9842 47.4401 61.4608 47.7845C59.7688 48.9124 58.0592 50.0231 56.3672 51.1597C55.5211 51.7366 54.6228 52.1843 53.6023 52.3565C53.4366 52.3823 53.2621 52.3307 53.1051 52.4254H52.4248L52.4422 52.434Z" fill="white"/>
<path d="M84.8708 33.5611C84.8708 30.6508 84.8708 27.7319 84.8708 24.8217C84.8708 24.5806 84.9319 24.5117 85.1761 24.5117C87.4264 24.5203 89.6767 24.5203 91.927 24.5117C92.1625 24.5117 92.2061 24.5806 92.2061 24.7959C92.2061 29.4109 92.2061 34.0346 92.2061 38.6497C92.2061 39.2869 91.9793 39.7949 91.3949 40.1565C89.7639 41.1811 88.1503 42.2316 86.528 43.2734C86.3623 43.3854 86.1791 43.4542 85.9872 43.4801C85.3593 43.5317 84.9929 43.2045 84.897 42.5071C84.8883 42.4038 84.8795 42.3005 84.8883 42.2057V33.5611H84.8708Z" fill="white"/>
<path d="M88.5254 20.5161H91.299C91.9183 20.4989 92.4416 20.9724 92.4765 21.5837C92.5201 22.264 92.1189 22.772 91.4473 22.8581C91.3252 22.8753 91.1943 22.8839 91.0635 22.8839H85.9349C85.4901 22.8839 85.0889 22.7978 84.8185 22.4017C84.5481 22.0057 84.4958 21.5837 84.7138 21.1618C84.897 20.7572 85.3069 20.5075 85.7518 20.5247H88.5167L88.5254 20.5161Z" fill="white"/>
</g>
<defs>
<clipPath id="clip0_763_685">
<rect width="43.2439" height="31.9181" fill="white" transform="translate(49.2325 20.5156)"/>
</clipPath>
</defs>
</svg>
