<?xml version="1.0" encoding="UTF-8"?>
<svg xmlns="http://www.w3.org/2000/svg" version="1.1" viewBox="0 0 200 100">
  <defs>
    <style>
      .cls-1 {
        opacity: 0;
      }

      .cls-1, .cls-2 {
        fill: #f0ede8;
      }
    </style>
  </defs>
  <!-- Generator: Adobe Illustrator 28.6.0, SVG Export Plug-In . SVG Version: 1.2.0 Build 709)  -->
  <g>
    <g id="Layer_1">
      <g>
        <g id="Layer_1-2">
          <path class="cls-2" d="M91.6,40.9h0l-1.5,8h-2.1l-2-9.7h1.7l1.4,7.5h0l1.5-7.5h2.2l1.5,7.5h0l1.4-7.5h1.6l-2,9.7h-2.1l-1.5-8Z"/>
          <path class="cls-2" d="M99.7,41.6c1.5,0,3.2.8,3.2,3.7s-1.7,3.7-3.2,3.7-3.2-.7-3.2-3.7c0-2.9,1.7-3.7,3.2-3.7ZM99.7,47.8c1.1,0,1.4-1.3,1.4-2.5s-.2-2.5-1.4-2.5-1.4,1.3-1.4,2.5.3,2.5,1.4,2.5Z"/>
          <path class="cls-2" d="M103.7,42.9c0-.4,0-.8,0-1.2h1.6c0,.4,0,.9,0,1.3h0c.2-.6.7-1.4,1.8-1.4s.2,0,.3,0v1.6c-.2,0-.3,0-.5,0-.7,0-1.5.4-1.5,1.8v3.9h-1.7v-6Z"/>
          <path class="cls-2" d="M108.2,38.5h1.7v10.4h-1.7v-10.4Z"/>
          <path class="cls-2" d="M116.9,38.5v9.2c0,.4,0,.8,0,1.2h-1.6c0-.4,0-.7,0-1.1h0c-.3.6-.8,1.2-1.9,1.2-1.8,0-2.5-1.7-2.5-3.7s.9-3.7,2.5-3.7c.8,0,1.5.4,1.9,1.1h0v-4.3h1.7ZM113.8,47.7c1,0,1.4-1.1,1.4-2.4s-.4-2.4-1.3-2.4-1.3.9-1.3,2.4.3,2.5,1.3,2.5Z"/>
          <path class="cls-2" d="M122.1,39.2h1.8v4h2.9v-4h1.8v9.7h-1.8v-4.3h-2.9v4.3h-1.8v-9.7Z"/>
          <path class="cls-2" d="M134.9,48.6c-.7.3-1.4.5-2.1.5-2.3,0-3.3-1.7-3.3-3.6s1.1-3.8,3-3.8,2.9.9,2.9,3.8v.3h-4.1c0,1.2.5,2,1.8,2s1.6-.3,1.9-.6v1.4ZM133.6,44.7c0-1.3-.4-1.9-1.2-1.9s-1.3,1-1.3,1.9h2.5Z"/>
          <path class="cls-2" d="M136.3,42.2c.7-.3,1.5-.5,2.3-.5,2.2,0,2.8,1.1,2.8,2.9v3.1c0,.4,0,.8,0,1.3h-1.6c0-.3-.1-.6,0-1h0c-.4.6-1,1.1-2,1.1s-2.1-.8-2.1-2.1c0-1.9,1.6-2.4,3.8-2.4h.3v-.3c0-.7-.3-1.4-1.3-1.4-.7,0-1.4.3-2,.7v-1.4ZM139.7,45.4h-.2c-1.5,0-2.3.3-2.3,1.4,0,.6.4,1.1,1,1.1h.1c1,0,1.4-.8,1.4-2v-.4h0Z"/>
          <path class="cls-2" d="M142.9,38.5h1.7v10.4h-1.7v-10.4Z"/>
          <path class="cls-2" d="M146.7,40.3l1.7-.5v2h1.4v1.3h-1.4v3.7c0,.8.3,1,.8,1s.5,0,.6-.2v1.2c-.4.2-.8.2-1.2.2-1.3,0-2-.6-2-2.1v-3.9h-1.1v-1.3h1.1v-1.5h0Z"/>
          <path class="cls-2" d="M150.4,38.5h1.7v4.2h0c.3-.4.7-1,1.8-1,1.6,0,2.1,1.2,2.1,2.7v4.6h-1.7v-4.3c0-1.1-.3-1.6-1-1.6s-1.2.8-1.2,1.7v4.2h-1.7v-10.4Z"/>
          <path class="cls-2" d="M89.9,51.5c2,0,3.9,1.5,3.9,5s-1.9,5-3.9,5-3.9-1.5-3.9-5,1.9-5,3.9-5ZM89.9,60.2c1.1,0,2-1,2-3.6s-.9-3.6-2-3.6-2,1-2,3.6c0,2.7.9,3.6,2,3.6h0Z"/>
          <path class="cls-2" d="M94.5,55.4c0-.4,0-.8,0-1.2h1.6c0,.4,0,.9,0,1.3h0c.2-.6.8-1.4,1.8-1.4s.2,0,.3,0v1.6c-.2,0-.3,0-.5,0-.7,0-1.5.4-1.5,1.8v3.9h-1.7v-6h0Z"/>
          <path class="cls-2" d="M99,62.5c.6.4,1.4.6,2.1.6,1.6,0,1.9-1.1,1.9-2.3v-.7h0c-.3.6-.8,1.2-1.9,1.2s-2.5-.7-2.5-3.6.7-3.7,2.6-3.7,1.5.6,1.9,1.2h0c0-.4,0-.7,0-1.1h1.6c0,.4,0,.7,0,1.1v5.3c0,2.3-.7,3.8-3.3,3.8s-1.7-.2-2.5-.4v-1.5ZM101.5,60.1c1.1,0,1.5-.8,1.5-2.4s-.6-2.3-1.4-2.3c-.9,0-1.3.9-1.3,2.3s.5,2.4,1.1,2.4Z"/>
          <path class="cls-2" d="M106.3,54.6c.7-.4,1.5-.5,2.3-.5,2.2,0,2.8,1.1,2.8,2.9v3.1c0,.4,0,.8,0,1.3h-1.6c0-.3-.1-.6,0-1h0c-.4.6-1,1.1-2,1.1s-2.1-.8-2.1-2.1c0-1.9,1.6-2.4,3.8-2.4h.3v-.3c0-.7-.3-1.4-1.3-1.4-.7,0-1.4.3-2,.7v-1.4ZM109.7,57.9h-.2c-1.5,0-2.3.3-2.3,1.4,0,.6.4,1.1,1,1.1h.1c1,0,1.4-.8,1.4-2v-.4Z"/>
          <path class="cls-2" d="M112.7,55.4c0-.4,0-.8,0-1.2h1.6c0,.4,0,.7,0,1.1h0c.2-.4.7-1.2,1.9-1.2s2.1,1.2,2.1,2.7v4.6h-1.7v-4.3c0-1.1-.3-1.6-1-1.6s-1.2.8-1.2,1.7v4.2h-1.7v-5.9h0Z"/>
          <path class="cls-2" d="M119.7,51.1h1.8v1.7h-1.8v-1.7ZM119.7,54.2h1.7v7.2h-1.7v-7.2Z"/>
          <path class="cls-2" d="M122.8,59.9l3.1-4.4h-3v-1.3h4.7v1.5l-3,4.4h3.1v1.3h-4.9v-1.5h0Z"/>
          <path class="cls-2" d="M129,54.6c.7-.4,1.5-.5,2.3-.5,2.2,0,2.8,1.1,2.8,2.9v3.1c0,.4,0,.8,0,1.3h-1.6c0-.3-.1-.6,0-1h0c-.4.6-1,1.1-2,1.1s-2.1-.8-2.1-2.1c0-1.9,1.6-2.4,3.8-2.4h.3v-.3c0-.7-.3-1.4-1.3-1.4-.7,0-1.4.3-2,.7v-1.4ZM132.4,57.9h-.2c-1.5,0-2.3.3-2.3,1.4,0,.6.4,1.1,1,1.1h.1c1,0,1.4-.8,1.4-2v-.4h0Z"/>
          <path class="cls-2" d="M135.9,52.7l1.7-.5v2h1.4v1.3h-1.4v3.7c0,.8.3,1,.8,1s.5,0,.6-.2v1.2c-.4.2-.8.2-1.2.2-1.3,0-2-.6-2-2.1v-3.9h-1.1v-1.3h1.1v-1.5Z"/>
          <path class="cls-2" d="M140.1,51.1h1.8v1.7h-1.8v-1.7ZM140.1,54.2h1.7v7.2h-1.7v-7.2Z"/>
          <path class="cls-2" d="M146,54.1c1.5,0,3.2.8,3.2,3.7s-1.7,3.7-3.2,3.7-3.2-.7-3.2-3.7c0-2.9,1.7-3.7,3.2-3.7ZM146,60.3c1.1,0,1.4-1.3,1.4-2.5s-.2-2.5-1.4-2.5-1.4,1.3-1.4,2.5.2,2.5,1.4,2.5Z"/>
          <path class="cls-2" d="M150.5,55.4c0-.4,0-.8,0-1.2h1.6c0,.4,0,.7,0,1.1h0c.2-.4.7-1.2,1.9-1.2s2.1,1.2,2.1,2.7v4.6h-1.7v-4.3c0-1.1-.3-1.6-1-1.6s-1.2.8-1.2,1.7v4.2h-1.7v-5.9Z"/>
          <g id="g640">
            <path id="path642" class="cls-2" d="M75.5,39.1c.7.9,2,1.4,2.8,2.3-.6-2.6-2.6-4.8-5-5.3,1.2.9,1.4,2.1,2.2,3M46.6,45.8c1.7-3.6,4.1-2.8,5.2-6.3-.6,1-3.3,1.5-4.5,4.2.6-1.6.3-4,1.4-5.4-3.2,2.4-1.9,6.3-2,7.5M49.6,54.4c.3,1.4-.6,3.4.8,5.4-1.4-1.6-4.5-2-5.7-4.5,1.5,6,5.6,4.8,7.4,6.1-1.5-2.2-.3-3.6-2.5-6.9M49.1,58.2c-.9-3.3.7-4.5-.5-7.7-.1,1.8-1.3,2.7-.5,6-1.4-2.8-3.6-3.9-4.3-5.8,0,5.3,4.3,6,5.3,7.5M55.6,63.8c-1.2-1.7-.4-2.7-3.9-5.8.7,1.1,0,2.6,2.3,4.8-2.3-1.4-5.5-.8-7-2.6,2.6,5.1,7.3,3,8.6,3.6M72.5,62.8c2.3-2.2,1.6-3.7,2.3-4.8-3.5,3.1-2.6,4.1-3.9,5.8,1.3-.6,5.9,1.4,8.6-3.6-1.5,1.8-4.7,1.2-7,2.6M76.2,59.8c1.4-1.9.5-4,.8-5.4-2.2,3.4-1,4.8-2.5,7,1.8-1.3,5.9,0,7.4-6.1-1.2,2.4-4.3,2.8-5.7,4.4M70.6,64c-1.2-.3-2.5-.5-3.8-.6-1.2,0-2.4.2-3.5.6-1.1-.4-2.3-.6-3.5-.6-1.3,0-2.6.2-3.8.6-2.1.6-3.9,1-5.5.2,1.5,1.3,3.3,1.8,5.8,1.5,2.1-.2,3.8-1.3,5.8-1.3h0c-1.3.6-2.4,1.5-3.3,2.6h1c0,.1,1-1.9,3.4-2.4,2.3.5,3.4,2.6,3.4,2.6h1c-.9-1.2-2-2.1-3.3-2.7h0c2,0,3.7,1.1,5.8,1.3,2.6.3,4.3-.2,5.8-1.5-1.5.8-3.3.4-5.4-.2M48.8,46.8c-.9,1.7-2.2,2-2.1,5.5-.7-3-2.5-4.2-2.4-6.1-1.2,5.1,2,5.7,2.8,7.8-.1-3.1,1.8-3.7,1.7-7.2M50,42.9c-.3.4-.5.6-1.3,1.3-1.2,1-2,2.3-2.3,3.8,0-1.9-1.1-4.5-.3-6.5-3,4.2.2,6.7.3,8.2.7-2.9,2.5-3,3.7-6.8M80.3,48c-.3-1.5-1.1-2.9-2.3-3.8-.8-.7-1-.8-1.3-1.3,1.1,3.9,2.9,3.9,3.7,6.8.1-1.5,3.2-4,.3-8.2.8,2-.4,4.6-.3,6.5M82.8,50.7c-.6,1.9-2.9,3-4.3,5.8.8-3.3-.4-4.2-.5-6-1.2,3.2.4,4.4-.5,7.7,1.1-1.5,5.3-2.2,5.3-7.5M77.8,46.8c-.2,3.5,1.8,4.1,1.7,7.2.8-2.1,4-2.7,2.8-7.8,0,1.9-1.7,3.1-2.4,6.1.2-3.4-1.2-3.8-2.1-5.5M51.1,39.1c.7-.9,1-2.1,2.2-3-2.4.5-4.4,2.7-5,5.3.7-.9,2.1-1.4,2.8-2.3M74.8,39.5c1.1,3.4,3.5,2.7,5.2,6.3-.2-1.2,1.2-5.1-2-7.4,1.1,1.3.8,3.8,1.4,5.4-1.2-2.7-4-3.2-4.5-4.2M66.4,41.4c-.6-.3-1.3-.4-2-.5v.4c.6,0,1.2.3,1.8.5,0-.1.1-.3.1-.4M65.9,37.2h.1c0-.1-.2-.2-.2-.2h-.7s-.2,0-.2,0h-.4s0,0,0,0c.2,0,.5,0,.7,0h.3s.3,0,.3,0ZM64.7,51.5c0-.1-.2-.2-.4-.3h0c0,0,0,.5,0,.8.2-.1.4-.2.4-.4M57,43c0,0,0-.2,0-.2,0,0-.2,0-.3,0l.2.2ZM53.9,40l1.6,1.6c-1.9,2-3,4.6-3,7.3h-2.2c0-3.3,1.3-6.5,3.6-8.9M53,52.2h-.1s-.1-.2-.1-.2h-.6c0,0,.2.2.2.2h-.6c0-.1.2-.2.2-.2h-.1c0-.1-.4,0-.4,0l-.2.3v.6c0,0,.5,1.1.5,1.1l.2.4h.1s-.4-.7-.4-.7v-.3c0,0,0,0,0,0v-.2c0,0,.2,0,.2,0l.3.5h0s0-.3,0-.3h.1c0,0,0,.3,0,.3h.3c0,0,.2,0,.2,0h0v.3l.2.2h.2s.4.7.4.7h.2c0,0,0-.2,0-.2.4.7.9,1.4,1.5,2l-1.6,1.6c-2.3-2.3-3.7-5.5-3.7-8.8h2.2c0,1,.2,2,.5,2.9M55.1,49.3c0,.2,0,.4,0,.6h-.3c0,0,0,.3,0,.3l-.6.7v1s-.6.2-.6.2h-.3c-.3-.9-.5-1.9-.5-2.9,0,0,2.2,0,2.2,0ZM55.6,55.5l.5.3h0c0,0-.4.4-.4.4-.2-.2-.3-.3-.5-.5l.2-.2ZM57.7,43.7l1.6,1.6c-.3.4-.6.8-.8,1.2h-.3c0,0,0,0,0,0l-.2.2h.3s.3,0,.3,0h0c0,0-.2.2-.2.2h-.1l-.3.3h-.3s-.5.9-.5.9v.2c0,0-.2.3-.2.3v.4h-1c0-2,.7-3.8,2-5.2M59.3,50.2h.1c0,0,.3.2.3.2h-.1c0,0,.3.3.3.3v-.2s.1-.3.1-.3l.2.2.2.3h-.3c0,0,.2.4.2.4h.2c0-.1,0-.2,0-.2h.2c0-.1,0-.6,0-.6.1.3.3.6.5.8l-1.6,1.6c-.8-.8-1.2-1.8-1.4-2.9l.3.3h.3l.4.2ZM57,48.5v-.4s.3-.2.3-.2h.5c0,0,0,.2,0,.2,0,.2,0,.5,0,.8h-.5l-.2-.3ZM56.3,50.1l-.2.3h-.4c0-.4,0-.7-.1-1.1h.7l-.2.5.2.2ZM57.8,54.4c-.2-.2-.3-.3-.5-.5v-.6c0,0-.1-.5-.1-.5v-.8c0,0-.3-.5-.3-.5v-.3c0,0-.3-.6-.3-.6h-.3c0-.1.1-.5.1-.5v-.2c-.1,0,0-.3,0-.3h.3v-.2h.6v.2c0,0,0,.5,0,.5h0c0,0,.2.5.2.5h-.1c0,0,0,0,0,0h0s0,.3,0,.3l.2.3h0v-.3s0,0,0,0v-.5s0-.6,0-.6v-.2c-.1,0,.2,0,.2,0,0,1.3.6,2.6,1.5,3.5l-1.5,1.5ZM71.1,56.5c1.9-1.9,3-4.5,3-7.2h2.2c0,3.3-1.4,6.4-3.7,8.8l-1.5-1.6ZM70.5,55.9l.2-.2-.2-.9h-.1s0-.2,0-.2h-.4c0-.1,0,.2,0,.2v.4s-.1,0-.1,0l-.7-.7c1.4-1.5,2.2-3.3,2.3-5.3h2.2c0,2.6-1.1,5.1-2.9,6.9l-.3-.3ZM68.5,58l.2-.4v-.2c0,0,.2-.3.2-.3v-.2l-.3-.2.2-.4.3-.4-.3-.3h-.2l-.2-.2c.1-.1.3-.2.4-.3l1.6,1.6c-.6.5-1.2,1-1.9,1.4M68.2,53.7l-.2-.2.2-.2.2-.4h0c0-.1.1-.4.1-.4v-.3s-.1-.3-.1-.3h-.2c0,0,0,.1,0,.1h-.1c.2-.3.3-.6.5-.8h.2c0,0,.1-.2.1-.2h0c0,0,.1-.1.1-.1h-.1c0-.1,0-.2,0-.2h.2c0,0,.3,0,.3,0h.2c0-.1.5-.3.5-.3v-.2c0,0-.1-.2-.1-.2h.3c0,.1.1,0,.1,0v-.2c0,0-.4.1-.4.1h-.4c0,0-.3-.7-.3-.7h1.7c0,1.9-.8,3.7-2.1,5l-.2-.2v-.3c0,0,0-.7,0-.7l-.3.5ZM67.4,45.3l1.6-1.6c.4.4.7.8,1,1.3h-.2c0,0,0,.4,0,.4l.6.4c.2.3.3.6.4,1v.2c0,0-.3.2-.3.2v.3c0,0-.2,0-.2,0v.2c-.1,0-.2,0-.2,0h-.2v-.2c.1,0,.2-.4.2-.4h.2c0,0-.4-.5-.4-.5h-.3c0,.1,0,.4,0,.4l-.2.2-.2-.2v-.2c0,0,0,0,0,0h0c0,.1,0,0,0,0v-.2h-.2c0,0,0,.1,0,.1l-.5-.6h-.2c0-.1,0-.2,0-.2h.2c0,0-.2-.1-.2-.1,0,0-.2,0-.2,0h0c0,.1-.2.1-.2.1-.1-.3-.3-.5-.5-.7M67.7,53.9h-.5c0-.1-.2,0-.2,0l-.3-.2h-.2c.1-.2.2-.3.4-.4l.4.3.3.2.2.2h0ZM66.8,46.5h.2c0,0-.2-.2-.2-.2v-.4c0,0,.3-.2.3-.2.2.2.3.3.4.5v.2c0,0-.3-.2-.3-.2h-.2s0,.2,0,.2h0v.2c0,0-.1,0-.1,0h-.2ZM69.5,48.1l.4-.2h.4c0,0,0-.2,0-.2h.2c0-.1,0-.3,0-.3v-.3c.1.1.1.2.2.3l-.2.6v.2l.3-.4c0,.4,0,.8.1,1.2h-1.9v-.2s.2-.2.2-.2h0c0-.1,0-.2,0-.2h.3s0-.1,0-.1h-.2ZM69.9,42.9h.5s.1.2.1.2v.2c0,0,.7.5.7.5h.2s.9,1.1.9,1.1h.4c.6,1.2.9,2.6,1,4.1h-2.2c0-.6,0-1.1-.2-1.7h0c0-.1.1-.9.1-.9v-.7c0,0-.4-.9-.4-.9l-.6-.9h.2c0,0,0,0,0,0l-.5-.3h0c0,.1.5.8.5.8l.3.6.2.6v.4c0,0,.1.6.1.6h-.2s-.2-.4-.3-.6v-.2c0,0-.1-.3-.1-.3v-.4c-.1,0-.3,0-.3,0,0-.1-.1-.2-.2-.3h.1c0,0,0,0,0,0h0c0-.1.2-.2.2-.2h0c0,0-.2,0-.2,0v-.3c0,0,0,0,0,0v.3c-.4-.4-.6-.7-.9-1l.6-.6ZM72.7,40c2.3,2.4,3.6,5.6,3.6,8.9h-2.2c0-1.6-.4-3.3-1.1-4.7h0s.2,0,.2,0h0c0-.1-.4-.8-.4-.8l-.5-.6-.6-.5c-.2-.2-.4-.5-.6-.7l1.5-1.6ZM66.2,53.2h0M63.3,62.5c7.4,0,13.5-6.1,13.5-13.5,0-6.9-5.2-12.7-12.1-13.4h0c0,.2,0,.3,0,.4,3,.3,5.7,1.6,7.8,3.7l-1.5,1.5v-.3c0,0-.1,0-.1,0h-.2s0-.1,0-.1l-.2-.6-.4-.4-1.2-.6h0c0,.1-.2.2-.2.2.4.6.6,1.3.6,1.9v.3l.6.7h-.3c0,0,.2.3.2.3l-.5.5-.2-.4c0,.3-.2.5-.4.8h.1c0,0-1.6,1.7-1.6,1.7,0,0-.2-.2-.3-.3-.2,0-.3.1-.5.2h.1c0,0,0,.2,0,.2h-.2c0,0,0,.3,0,.3h-.1c0-.1-.3,0-.3,0v.2c0,0,.3,0,.3,0h.2s0,0,0,0h.1c0,0,0-.1,0-.1h.2c0,0,.2,0,.2,0h0c0,0-.6.7-.6.7h0c0,0-.6,0-.6,0l-.2.2h-.1s.4-.4.4-.4h-.2c0,0-.4.4-.4.4h.1s0,.2,0,.2h.1c0,0,0,.2,0,.2h-.2s-.2,0-.2,0l-.6-.3s0,1.5,0,2.3c1.3.5,2.8,1.1,2.8,2.8,0,.7-.4,1.4-1,1.8h0s0,0,0,0c-.5.4-1.2.6-1.9.7v1.2c.9.5,2.1,1.2,2,3.2,0,.5-.2.6-.4.7h0c-.6.1-1.2.2-1.7.3v.4c2.5-.2,4.9-1.2,6.7-3l1.6,1.6c-5,4.9-13,4.9-18,0l1.6-1.6c1.8,1.7,4.2,2.7,6.6,2.9v-.4c-2.4-.2-4.6-1.2-6.3-2.8l.4-.4h.6c0,0,.3-.3.3-.3h.8s.1-.2.1-.2h0c1.2.8,2.6,1.4,4.1,1.5v-.4c-1.6-.2-3.2-.9-4.4-2l1.6-1.6c.4.3.8.6,1.3.9,0-.2,0-.3.2-.4-.4-.2-.8-.5-1.1-.7l1.6-1.6c.2.2.5.4.8.5v-.5c-.2,0-.4-.2-.5-.3l.4-.4c-.2,0-.3,0-.5-.2l-.3.3c-.2-.2-.3-.4-.4-.6-.3-.1-.5-.2-.8-.4-.9-.6-1.5-1.6-1.5-2.7,0-.7.2-1.5.6-2l-1.6-1.6c1.1-1.1,2.6-1.8,4.2-2.1v-.4c-1.7.2-3.3,1-4.5,2.2l-.3-.3c0,0-.1.2-.2.4l.2.2c-1.4,1.5-2.2,3.4-2.2,5.4h-2.2c0-2.6,1.1-5.1,2.9-7l.7.7h0c.1,0,.3,0,.4-.1l-.9-.9c.5-.5,1-.9,1.5-1.2,0-.1,0-.2.1-.3,0-.2.2-.3.3-.5-.8.5-1.6,1-2.3,1.7l-1.6-1.6c2.1-2,4.8-3.3,7.8-3.6,0,0,0,0,0,0,0-.1,0-.2,0-.3-7.4.8-12.8,7.4-12,14.8.7,6.8,6.5,12,13.4,12M70,39.2v-.2c-.1,0-.4-.2-.4-.2l-.2.2.3.2.3.2v-.2ZM68.6,45.4v.2s.4-.1.4-.1v-.2c.1,0-.2-.3-.2-.3v-.2c.1,0,.5.2.5.2h0c0,0,0-.1,0-.1v-.2c0,0,0,0,0,0l-.2-.2-.3.2v.2c-.1,0-.2.2-.2.2l.2.2h0c0,.1-.2.2-.2.2ZM52.6,55.3h0c0,0-.2-.5-.2-.5h-.2c0,0,.4.5.4.5ZM61.6,47c0,.4.2.6.6.9v-.2l-.2-.3v-.2c.1,0,.2,0,.2,0,0-.4,0-.9,0-1h0c-.4.2-.6.5-.6.9"/>
          </g>
          <g id="g644">
            <path id="path646" class="cls-2" d="M64.1,56.6c.7.3,1.3.8,1.6,1.8.1-1.5-.7-2.2-1.6-2.6v.9"/>
          </g>
          <g id="g648">
            <path id="path650" class="cls-2" d="M68.7,41.1c0-1.4-1-2.9-3.5-3.5-.2,0-.5,0-.7,0,0,.2,0,.7,0,.7,0,.2,0,.7,0,.8.2,0,.3,0,.5,0,1.4.3,1.9,1.2,1.9,2,0,1.3-1.1,1.8-2.5,2.2h-.5c-.4.2-.9.3-1.3.4-.2,0-.3,0-.5.1-1.5.5-2.8,1.2-2.8,3.1s1.5,2.6,3,3c0-.5,0-1.1,0-1.6-.7-.3-1.1-.7-1.1-1.4s.4-1.1,1.1-1.3c.1,0,.3-.1.5-.2.4-.1.8-.2,1.2-.3h.5c2.1-.6,4.4-1.3,4.4-4.1"/>
          </g>
          <g id="g652">
            <path id="path654" class="cls-2" d="M61.3,54.4c0,.8.6,1.2,1.1,1.5,0-.1,0-1.3,0-1.3,0-.2.2-.4.4-.5.3-.1.6-.2.9-.3.2,0,.3-.1.5-.2,1.1-.3,2.4-.8,2.4-2.1s-1.1-1.9-2.3-2.3c0,.4,0,1.1,0,1.5.5.2.9.4.9.8s-.5.8-.9.9c-.2,0-.4.1-.5.2-.3,0-.6.2-.9.3-.2,0-.3.1-.5.2-.5.3-1.1.7-1.1,1.4"/>
          </g>
          <g id="g656">
            <path id="path658" class="cls-2" d="M62.1,37.8c-.5.2-.9.3-1.4.6-.5.2-1.2.2-1.9,1-.2.3-.4.6-.6.8-.2.3-.2.8-.4,1.1-.2.4-.2.6-.2.6h0c0,.2-.1.3-.2.5-.2.3-.6.4-.9.3.3.2.8,0,.8,0,0,.2-.1.4-.2.6.4-.8.7-1.1.8-1.2.2,0,.5,0,1.1-.3.7-.4,1.7-1,2-1.4.3-.4.7-.7,1.2-.9,0-.6,0-1.1,0-1.5M59.3,40.3h-.3c0,0,.4-.6.4-.6h.5s-.6.6-.6.6"/>
          </g>
          <g id="g660">
            <path id="path662" class="cls-2" d="M63.5,54.3c0,0-.2,0-.3.1-.1,0-.2,0-.2.1,0,0,.1,5.9.1,6,0,1.2.6,1.2.6,0s.1-6.4.1-6.4c0,0-.2,0-.3,0"/>
          </g>
          <g id="g664">
            <path id="path666" class="cls-2" d="M62.8,52.3c.2,0,.4-.1.6-.2.1,0,.2,0,.4-.1,0-.4.1-5.5.1-6.4-.4,0-.8.2-1.2.3,0,.7.1,5.8.1,6.3"/>
          </g>
          <g id="g668">
            <path id="path670" class="cls-2" d="M63.4,32.8c-1.7,0-1,2.6-.9,3.4,0,0,.1,5.8.2,7.1.3,0,.5-.1.8-.2h.5c0-1.4.2-6.9.2-6.9,0-.9,1-3.4-.8-3.4"/>
          </g>
        </g>
        <rect class="cls-1" width="200" height="100"/>
      </g>
    </g>
  </g>
</svg>