<svg width="143" height="74" viewBox="0 0 143 74" fill="none" xmlns="http://www.w3.org/2000/svg">
<g clip-path="url(#clip0_763_805)">
<path fill-rule="evenodd" clip-rule="evenodd" d="M64.1908 42.5504H66.465L69.3015 33.7204L72.7087 42.5504H75.3237L79.3015 30.6336H77.1465L74.4208 38.9092L71.2351 30.6336H67.2572L67.8279 31.8501L64.1908 42.5504ZM100.196 30.4102C103.032 30.4102 106.218 30.9646 104.285 36.592C102.692 41.4498 99.4038 42.7738 96.1073 42.7738C92.5894 42.7738 90.3152 41.4498 91.908 36.592C93.5009 31.9577 96.448 30.4102 100.196 30.4102ZM95.0852 36.592C94.063 39.6788 94.5145 41.3339 96.5588 41.3339C99.2845 41.3339 100.196 39.3478 101.218 36.592C102.692 32.2887 101.329 31.8501 99.7445 31.8501C97.7002 31.8501 96.2266 33.1742 95.0852 36.592ZM90.3152 32.8432C86.7973 31.0805 84.523 31.9577 84.4123 33.5052C84.1823 35.3838 90.2044 35.4913 89.293 38.8016C87.9301 44.2055 79.4122 42.6663 78.5008 42.2194L79.1823 40.0098C82.5894 41.9959 85.8858 41.4415 85.9966 39.3478C86.1073 37.3616 80.2044 37.1382 81.1158 33.9438C82.4787 29.3095 89.7445 30.5177 90.9966 30.7412L90.3152 32.8349V32.8432ZM46.0221 30.6336C48.9778 30.6336 52.9471 30.9646 51.5843 35.8224C49.77 42.2194 45.7921 42.5504 40.9113 42.5504H37.9556L41.4735 31.8418L40.9113 30.6336H46.0221ZM48.5178 35.93C49.77 32.1811 47.8364 32.0653 45.9028 32.0653H44.54C44.4661 32.0653 44.3895 32.1011 44.31 32.1729L41.695 40.556C41.465 40.887 41.5843 41.1105 42.0357 41.1105C46.3543 41.218 47.2572 40.0098 48.5093 35.9217L48.5178 35.93ZM65.1022 32.0653H59.08L57.9471 35.5989H62.0357L61.5843 37.0306H57.385L56.3628 40.5643C56.2521 40.7877 56.2521 41.1187 56.7035 41.1187H62.385L61.9335 42.5504H52.6235L56.1328 31.8418L55.5621 30.6253H65.5536L65.1022 32.057V32.0653Z" fill="white"/>
</g>
<defs>
<clipPath id="clip0_763_805">
<rect width="66.9251" height="12.3554" fill="white" transform="translate(37.9556 30.4102)"/>
</clipPath>
</defs>
</svg>
