<?xml version="1.0" encoding="UTF-8"?>
<svg xmlns="http://www.w3.org/2000/svg" version="1.1" viewBox="0 0 200 100">
  <defs>
    <style>
      .cls-1 {
        opacity: 0;
      }

      .cls-1, .cls-2 {
        fill: #f0ede8;
      }
    </style>
  </defs>
  <!-- Generator: Adobe Illustrator 28.6.0, SVG Export Plug-In . SVG Version: 1.2.0 Build 709)  -->
  <g>
    <g id="Layer_1">
      <g>
        <g id="Layer_1-2">
          <path class="cls-2" d="M74.6,72.4c-.2-.1-.5,0-.8-.2-1.1-.3-2.1-.7-2.9-1.6-.8-1-.9-2.1-.5-3.2.4-1.1,1.3-1.7,2.4-1.9,1.7-.3,3,.5,3.6,2.1.2.5.4,1.1.8,1.5.6.6,1.3.5,1.7-.2.3-.5.4-1,.4-1.6,0-9.1,0-18.3,0-27.4,0-.6-.5-1.1-1.1-1.1,0,0,0,0,0,0-.5,0-1,0-1.5,0-.8,0-1.5-.6-1.6-1.4-.1-.8.3-1.6,1.1-1.9.3,0,.6-.1.9-.1h14.3c.8,0,1.2-.3,1.5-1,.3-.8,1.1-1.2,2-1.2h22.5q.5,0,.5.5v2.5c0,.4,0,.4-.5.4h-5.9c-1,0-1.5.5-1.5,1.5v20.8c0,.9-.3,1.6-1.1,2.1-2.2,1.4-4.4,2.9-6.7,4.3-.1,0-.3.2-.5.2-.9.3-1.7-.2-1.8-1.2,0-.1,0-.3,0-.4v-25.4c0-.2,0-.4,0-.6-.1-.9-.6-1.4-1.5-1.4-1.1,0-2.2,0-3.3,0s-1.1.2-1.3.9c-.3.7-.9,1.2-1.7,1.2-.3,0-.7,0-1,0-.6,0-1.1.4-1.1,1,0,0,0,0,0,0v20.9c0,1.2-.3,2.3-1,3.3-.5.7-1.2,1.2-1.9,1.7-2.3,1.6-4.7,3.1-7,4.7-1.2.8-2.4,1.4-3.8,1.7-.2,0-.5,0-.7,0h-.9Z"/>
          <path class="cls-2" d="M119.3,46c0-4.1,0-8.1,0-12.2,0-.3,0-.4.4-.4,3.1,0,6.2,0,9.3,0,.3,0,.4,0,.4.4,0,6.5,0,12.9,0,19.4,0,.9-.3,1.6-1.1,2.1-2.3,1.4-4.5,2.9-6.7,4.4-.2.2-.5.3-.8.3-.9,0-1.4-.4-1.5-1.4,0-.1,0-.3,0-.4v-12.1Z"/>
          <path class="cls-2" d="M124.4,27.8h3.8c.9,0,1.6.6,1.6,1.5,0,.9-.5,1.7-1.4,1.8-.2,0-.3,0-.5,0h-7.1c-.6,0-1.2-.1-1.5-.7-.4-.6-.4-1.1-.1-1.7.3-.6.8-.9,1.4-.9h3.8Z"/>
        </g>
        <rect class="cls-1" width="200" height="100"/>
      </g>
    </g>
  </g>
</svg>