<?xml version="1.0" encoding="UTF-8"?>
<svg xmlns="http://www.w3.org/2000/svg" version="1.1" viewBox="0 0 200 100">
  <defs>
    <style>
      .cls-1 {
        opacity: 0;
      }

      .cls-1, .cls-2 {
        fill: #f0ede8;
      }
    </style>
  </defs>
  <!-- Generator: Adobe Illustrator 28.6.0, SVG Export Plug-In . SVG Version: 1.2.0 Build 709)  -->
  <g>
    <g id="Layer_1">
      <g>
        <g id="g79">
          <g id="g3702">
            <path id="path3704" class="cls-2" d="M150.2,40.3c.6,3.6-1.7,7.3-6.1,10.7,0,0,0,0,0,0,3.5-2.3,7.2-4.9,9.7-8.3.9-1.2,1.7-2.7,1.8-4.2.2-2.9-1.7-5.3-4.1-6.7-1.6-.9-3.3-1.5-5.1-1.9-3.1-.7-6.3-.9-9.5-.9-1.6,0-3.2.1-4.8.3-1.5.1-3.1.3-4.6.6-1.5.3-3,.6-4.5.9-.2,0-.3,0-.5.1,0,0,0,0,0,0,14.5-1.4,26.4,2.3,27.6,9.2"/>
          </g>
          <g id="g3706">
            <path id="path3708" class="cls-2" d="M137.2,27.4c0,0,0,0,0,0,1.1-.2,2.2-.4,3.4-.6,1.8-.3,3.6-.5,5.4-.7,3.1-.3,6.4-.5,9.5,0,.7.1,1.4.2,2.1.4,1.7.5,3.4,1.4,3.9,3.2.3,1.2.1,2.5-.3,3.6-.7,2.2-2.1,4.3-3.6,6.1,0,.1-.2.2-.3.3,0,0,0,0,0,0,.6-1.6.9-3.5.6-5.2-.5-2.5-2.5-4.4-4.8-5.4-2.8-1.2-5.8-1.5-8.8-1.6-2.3,0-4.7,0-7,0"/>
          </g>
          <g id="g3710">
            <path id="path3712" class="cls-2" d="M103,51l3.2,4.2h-11.4l-3.6,4.8h-5.2l16.1-21.2,16.1,21.2h-5.2l-10.8-14.3-4,5.3h5.1ZM124.4,46.6h4.2v13.4h-4.2v-13.4ZM114,40h25v4.2h-25v-4.2ZM84.5,54c0,3.3-2.7,6-6,6h-17.5s0,0,0,0v-5.5h4.2v1.4h13.3c1,0,1.9-.8,1.9-1.9s-.8-1.9-1.9-1.9h-17.5v-4.2h14c1,0,1.9-.8,1.9-1.9s-.8-1.9-1.9-1.9h-9.9v1.4h-4.2v-5.5h14c3.3,0,6,2.7,6,6s-.2,1.6-.4,2.3c2.3.9,3.9,3.1,3.9,5.6"/>
          </g>
        </g>
        <rect class="cls-1" width="200" height="100"/>
      </g>
    </g>
  </g>
</svg>