<?xml version="1.0" encoding="UTF-8"?>
<svg xmlns="http://www.w3.org/2000/svg" version="1.1" viewBox="0 0 200 100">
  <defs>
    <style>
      .cls-1 {
        opacity: 0;
      }

      .cls-1, .cls-2 {
        fill: #f0ede8;
      }
    </style>
  </defs>
  <!-- Generator: Adobe Illustrator 28.6.0, SVG Export Plug-In . SVG Version: 1.2.0 Build 709)  -->
  <g>
    <g id="Layer_1">
      <g>
        <g>
          <g>
            <polygon class="cls-2" points="33.5 59.9 39.3 54.1 39.3 47.3 36.7 47.3 36.7 45.5 45.4 45.5 49.5 51.2 49.5 43.8 54.6 38.8 38 38.8 33.5 43.3 33.5 59.9 33.5 59.9 33.5 59.9"/>
            <polygon class="cls-2" points="51.5 44.6 51.5 54.5 49.8 54.5 45.7 48.8 45.7 54.5 43.8 54.5 43.8 47.3 41.2 47.3 41.2 54.9 34.8 61.2 34.8 61.2 34.8 61.2 51.5 61.2 56 56.7 56 40.1 51.5 44.6"/>
          </g>
          <g>
            <path class="cls-2" d="M63.1,47.7h-2.7v-2.2h7.9v2.2h-2.7v6.8h-2.5v-6.8h0Z"/>
            <path class="cls-2" d="M69.6,45.5h7.2v2.1h-4.8v1.4h4.3v2h-4.3v1.4h4.8v2.1h-7.3v-9Z"/>
            <path class="cls-2" d="M81,49.9l-3-4.4h2.9l1.6,2.5,1.6-2.5h2.8l-3,4.4,3.1,4.6h-2.9l-1.7-2.7-1.7,2.7h-2.8l3.1-4.6Z"/>
            <path class="cls-2" d="M88.3,45.5h2.5v3.4h3.2v-3.4h2.5v9h-2.5v-3.4h-3.2v3.4h-2.5v-9Z"/>
            <path class="cls-2" d="M97.9,50c0-2.6,2.1-4.7,4.9-4.7s4.8,2.1,4.8,4.7-2.1,4.7-4.9,4.7c-2.8,0-4.8-2.1-4.8-4.7ZM105.1,50c0-1.3-.9-2.4-2.3-2.4s-2.3,1.1-2.3,2.4.9,2.4,2.3,2.4c1.4,0,2.3-1.1,2.3-2.4Z"/>
            <path class="cls-2" d="M109.1,45.5h2.5v3.4h3.2v-3.4h2.5v9h-2.5v-3.4h-3.2v3.4h-2.5v-9Z"/>
            <path class="cls-2" d="M119.2,45.5h2.5v5.1l3.5-5.1h2.3v9h-2.5v-5.1l-3.5,5.1h-2.3v-9Z"/>
            <path class="cls-2" d="M129.4,45.5h2.5v3.6l3.1-3.6h3l-3.4,3.9,3.5,5.1h-3l-2.3-3.3-.9,1v2.3h-2.5v-9h0Z"/>
            <path class="cls-2" d="M138.1,50c0-2.6,2.1-4.7,4.9-4.7s4.8,2.1,4.8,4.7-2.1,4.7-4.9,4.7c-2.8,0-4.8-2.1-4.8-4.7ZM145.3,50c0-1.3-.9-2.4-2.3-2.4s-2.3,1.1-2.3,2.4.9,2.4,2.3,2.4c1.4,0,2.3-1.1,2.3-2.4Z"/>
            <path class="cls-2" d="M158.9,45.5h2.5v2.8h1.4c2.2,0,3.7,1,3.7,3.1s-1.4,3.1-3.6,3.1h-4v-9ZM162.7,52.4c.8,0,1.3-.4,1.3-1.1s-.5-1-1.3-1h-1.3v2.1h1.3Z"/>
            <path class="cls-2" d="M150,45.5v3.9c0,.9,0,2.3-.7,2.8-.3.2-.8.4-1.1.4v2.1h.2c.9,0,1.8-.3,2.2-.6,1.5-1,1.7-2.8,1.7-4.8v-1.6h2.2v6.8h2.5v-9h-7Z"/>
          </g>
        </g>
        <rect class="cls-1" width="200" height="100"/>
      </g>
    </g>
  </g>
</svg>