<svg width="143" height="73" viewBox="0 0 143 73" fill="none" xmlns="http://www.w3.org/2000/svg">
<g clip-path="url(#clip0_763_658)">
<path fill-rule="evenodd" clip-rule="evenodd" d="M38.6745 42.1328C45.3105 42.1328 50.6947 39.3709 50.6947 35.955C50.6947 32.5392 45.3105 29.7773 38.6745 29.7773C32.0386 29.7773 26.6544 32.5392 26.6544 35.955C26.6544 39.3709 32.0386 42.1328 38.6745 42.1328ZM40.9379 39.1041C40.7407 39.5687 40.3892 40.5668 39.6005 40.9626C39.3604 41.0831 39.0689 41.1433 38.7945 41.1433C38.7345 41.1433 38.6917 41.1433 38.6745 41.1433C36.454 41.1433 34.3963 40.8335 32.6644 40.3087C32.6473 40.3087 32.613 40.2915 32.6044 40.2829C32.4415 40.2313 32.3644 40.1538 32.3644 40.0678C32.3644 39.9903 32.4072 39.9301 32.4672 39.8699C32.493 39.8441 32.5273 39.8097 32.5787 39.7752C32.9731 39.4397 34.182 38.5707 36.4454 37.7017C37.2427 37.4005 38.2373 37.0133 39.2747 36.7982C39.8834 36.6692 42.1468 36.325 40.9551 39.1127L40.9379 39.1041ZM47.008 32.8748C47.0509 32.7974 47.1109 32.7371 47.2052 32.7285C47.2652 32.7285 47.3424 32.7371 47.4539 32.8146C48.8599 33.6836 49.7001 34.7763 49.7001 35.955C49.7001 38.0889 46.9737 39.9129 43.0728 40.7131C42.8241 40.7647 42.6612 40.7647 42.6012 40.6959C42.5669 40.6529 42.5498 40.5926 42.6012 40.5066C42.6269 40.4636 42.6526 40.4205 42.7041 40.3603C44.8303 37.8479 46.4507 34.1396 46.9051 33.0641C46.9394 32.9867 46.9737 32.9178 46.9995 32.8662L47.008 32.8748ZM36.4454 32.7974C36.6426 32.3327 36.9941 31.3347 37.7829 30.9389C38.0229 30.8184 38.323 30.7582 38.5888 30.7496C38.6488 30.7496 38.6917 30.7496 38.7088 30.7496C40.9294 30.7496 42.987 31.0593 44.7189 31.5842C44.736 31.5842 44.7703 31.6014 44.7875 31.61C44.9504 31.6616 45.0275 31.7391 45.0275 31.8251C45.0275 31.9025 44.9847 31.9628 44.9332 32.023C44.9075 32.0488 44.8732 32.0832 44.8218 32.1176C44.4188 32.4532 43.2185 33.3222 40.9551 34.1912C40.1577 34.4924 39.1632 34.8795 38.1258 35.0946C37.5171 35.2237 35.2537 35.5679 36.4454 32.7802V32.7974ZM34.2677 31.197C34.5163 31.1454 34.6792 31.1454 34.7392 31.2142C34.7735 31.2572 34.7821 31.3175 34.7392 31.4035C34.7135 31.4465 34.6878 31.4895 34.6364 31.5498C32.5101 34.0622 30.8897 37.7705 30.4353 38.846C30.401 38.9234 30.3667 38.9923 30.341 39.0439C30.2981 39.1213 30.2381 39.1816 30.1438 39.1902C30.0838 39.1902 30.0066 39.1816 29.8952 39.1127C28.4805 38.2437 27.6489 37.151 27.6489 35.9723C27.6489 33.8385 30.3753 32.0144 34.2848 31.2142L34.2677 31.197Z" fill="white"/>
<path fill-rule="evenodd" clip-rule="evenodd" d="M61.3688 31.5391V34.9032H57.5707V31.5391H55.4788V40.3668H57.5707V36.8133H61.3688V40.3668H63.4608V31.5391H61.3688Z" fill="white"/>
<path fill-rule="evenodd" clip-rule="evenodd" d="M71.1341 31.5391L68.9478 35.0323L66.7615 31.5391H64.2924L67.9018 37.3124V40.3668H69.9938V37.3124L73.6033 31.5391H71.1341Z" fill="white"/>
<path fill-rule="evenodd" clip-rule="evenodd" d="M80.3421 31.5391V38.0093C80.3421 38.2502 80.1621 38.4567 79.8963 38.4567H76.544V31.5391H74.4521V40.3668H80.6336C81.1823 40.3668 81.6282 40.2033 81.9454 39.885C82.2626 39.558 82.4255 39.1192 82.4255 38.5686V31.5391H80.3336H80.3421Z" fill="white"/>
<path fill-rule="evenodd" clip-rule="evenodd" d="M90.5533 31.5391H84.3718V40.3668H86.4637V33.4492H89.8246C90.0903 33.4492 90.2704 33.6643 90.2704 33.888V40.3582H92.3623V33.3459C92.3623 32.7953 92.1994 32.3478 91.8822 32.0295C91.5564 31.7025 91.1192 31.5391 90.5705 31.5391H90.5533Z" fill="white"/>
<path fill-rule="evenodd" clip-rule="evenodd" d="M100.473 31.5391H94.2913V40.3668H100.473C101.022 40.3668 101.467 40.2033 101.785 39.885C102.11 39.558 102.273 39.1192 102.273 38.5686V33.3459C102.273 32.7953 102.11 32.3478 101.785 32.0295C101.459 31.7025 101.022 31.5391 100.473 31.5391ZM100.181 33.9052V37.9921C100.181 38.233 100.01 38.4481 99.7355 38.4481H96.3833V33.4492H99.727C100.001 33.4492 100.19 33.6384 100.19 33.9052H100.181Z" fill="white"/>
<path fill-rule="evenodd" clip-rule="evenodd" d="M105.917 31.5391C105.368 31.5391 104.922 31.7025 104.605 32.0295C104.288 32.3564 104.117 32.7953 104.117 33.3459V40.3668H106.209V37.6393H110.007V40.3668H112.099V31.5391H105.917ZM110.007 33.4492V35.7206H106.209V33.8966C106.209 33.6815 106.371 33.4492 106.654 33.4492H110.007Z" fill="white"/>
<path fill-rule="evenodd" clip-rule="evenodd" d="M116.128 31.5391H114.139V40.3668H116.231V31.5391H116.128Z" fill="white"/>
</g>
<defs>
<clipPath id="clip0_763_658">
<rect width="89.5767" height="12.3554" fill="white" transform="translate(26.6544 29.7773)"/>
</clipPath>
</defs>
</svg>
