<?xml version="1.0" encoding="UTF-8"?>
<svg xmlns="http://www.w3.org/2000/svg" version="1.1" viewBox="0 0 200 100">
  <defs>
    <style>
      .cls-1 {
        fill-rule: evenodd;
      }

      .cls-1, .cls-2 {
        fill: #f0ede8;
      }

      .cls-2 {
        opacity: 0;
      }
    </style>
  </defs>
  <!-- Generator: Adobe Illustrator 28.6.0, SVG Export Plug-In . SVG Version: 1.2.0 Build 709)  -->
  <g>
    <g id="Layer_1">
      <g>
        <g>
          <path class="cls-1" d="M54,58.6c9.3,0,16.9-3.9,16.9-8.6s-7.6-8.6-16.9-8.6-16.9,3.9-16.9,8.6,7.6,8.6,16.9,8.6h0ZM57.2,54.4c-.3.7-.8,2-1.9,2.6-.3.2-.8.2-1.1.3,0,0-.1,0-.2,0-3.1,0-6-.4-8.4-1.2,0,0,0,0,0,0-.2,0-.3-.2-.3-.3s0-.2.1-.3c0,0,0,0,.2-.1.6-.5,2.2-1.7,5.4-2.9,1.1-.4,2.5-1,4-1.3.9-.2,4-.7,2.4,3.2h0ZM65.7,45.7c0-.1.1-.2.3-.2,0,0,.2,0,.4.1,2,1.2,3.2,2.7,3.2,4.4,0,3-3.8,5.5-9.3,6.7-.4,0-.6,0-.7,0,0,0,0-.2,0-.3,0,0,0-.1.1-.2,3-3.5,5.3-8.7,5.9-10.2,0-.1,0-.2.1-.3h0ZM50.9,45.6c.3-.7.8-2,1.9-2.6.3-.2.8-.2,1.1-.3,0,0,.1,0,.2,0,3.1,0,6,.4,8.4,1.2,0,0,0,0,0,0,.2,0,.3.2.3.3s0,.2-.1.3c0,0,0,0-.2.1-.6.5-2.2,1.7-5.4,2.9-1.1.4-2.5,1-4,1.3-.9.2-4,.7-2.4-3.2h0ZM47.8,43.3c.4,0,.6,0,.7,0,0,0,0,.1,0,.3,0,0,0,.1-.1.2-3,3.5-5.3,8.7-5.9,10.2,0,.1,0,.2-.1.3,0,.1-.1.2-.3.2,0,0-.2,0-.4-.1-2-1.2-3.2-2.7-3.2-4.4,0-3,3.8-5.5,9.3-6.7Z"/>
          <polygon class="cls-1" points="85.9 43.8 85.9 48.5 80.5 48.5 80.5 43.8 77.6 43.8 77.6 56.2 80.5 56.2 80.5 51.2 85.9 51.2 85.9 56.2 88.8 56.2 88.8 43.8 85.9 43.8"/>
          <polygon class="cls-1" points="99.6 43.8 96.5 48.7 93.4 43.8 90 43.8 95 51.9 95 56.2 98 56.2 98 51.9 103 43.8 99.6 43.8"/>
          <path class="cls-1" d="M112.5,43.8v9c0,.3-.3.6-.6.6h-4.7v-9.7h-2.9v12.3h8.7c.8,0,1.4-.2,1.8-.7.5-.5.7-1.1.7-1.8v-9.8h-2.9Z"/>
          <path class="cls-1" d="M126.8,43.8h-8.7v12.3h2.9v-9.7h4.7c.4,0,.6.3.6.6v9.1h2.9v-9.8c0-.8-.2-1.4-.7-1.8-.5-.5-1.1-.7-1.8-.7Z"/>
          <path class="cls-1" d="M140.8,43.8h-8.7v12.3h8.7c.8,0,1.4-.2,1.8-.7.5-.5.7-1.1.7-1.8v-7.3c0-.8-.2-1.4-.7-1.8-.5-.5-1.1-.7-1.8-.7h0ZM140.3,47.1v5.7c0,.3-.2.6-.6.6h-4.7v-7h4.7c.4,0,.6.3.6.6Z"/>
          <path class="cls-1" d="M148.4,43.8c-.8,0-1.4.2-1.8.7-.5.5-.7,1.1-.7,1.8v9.8h2.9v-3.8h5.3v3.8h2.9v-12.3h-8.7ZM154.2,46.5v3.2h-5.3v-2.6c0-.3.2-.6.6-.6h4.7Z"/>
          <polygon class="cls-1" points="162.7 43.8 159.9 43.8 159.9 56.2 162.9 56.2 162.9 43.8 162.7 43.8"/>
        </g>
        <rect class="cls-2" width="200" height="100"/>
      </g>
    </g>
  </g>
</svg>