<svg width="144" height="74" viewBox="0 0 144 74" fill="none" xmlns="http://www.w3.org/2000/svg">
<g clip-path="url(#clip0_763_811)">
<path d="M42.0145 30.516C39.5576 30.516 38.6869 32.6342 38.6266 32.7907C38.0231 31.3725 36.6869 30.4792 35.2387 30.516C34.23 30.5344 33.2732 30.9765 32.5663 31.7501C31.8594 32.5329 31.4542 33.5735 31.4542 34.6603C31.4542 39.1268 35.3938 42.7369 38.6266 42.7369C41.8593 42.7369 45.799 39.1176 45.799 34.6603C45.799 33.5735 45.3938 32.5329 44.6869 31.7501C43.9886 30.9765 43.0231 30.5344 42.0231 30.516H42.0145ZM42.6611 34.826C42.6611 35.9864 42.2387 37.11 41.48 37.9296C40.73 38.7492 39.6956 39.2097 38.6266 39.2189C37.549 39.2189 36.5231 38.7492 35.7731 37.9296C35.0145 37.1008 34.5921 35.9864 34.5921 34.826V34.6971H36.0231V34.826C36.0231 35.572 36.299 36.2995 36.7904 36.8337C37.2731 37.3678 37.9456 37.6625 38.6352 37.6625C39.3335 37.6625 39.9973 37.3586 40.48 36.8337C40.9714 36.2995 41.2473 35.572 41.2473 34.826V34.6971H42.6783V34.826H42.6611ZM106.014 30.5252C102.695 30.5252 100.264 33.1315 100.264 36.6495C100.264 40.1675 102.695 42.7738 106.014 42.7738C109.333 42.7738 111.764 40.1675 111.764 36.6495C111.764 33.1315 109.342 30.5344 106.014 30.5344V30.5252ZM106.014 40.2872C104.195 40.2872 102.954 38.7769 102.954 36.6495C102.954 34.5221 104.195 33.0118 106.014 33.0118C107.833 33.0118 109.075 34.5221 109.075 36.6495C109.075 38.7769 107.833 40.2872 106.014 40.2872ZM93.2472 30.5252C89.9282 30.5252 87.4972 33.1315 87.4972 36.6495C87.4972 40.1675 89.9282 42.7738 93.2472 42.7738C96.5661 42.7738 98.9971 40.1675 98.9971 36.6495C98.9971 33.0762 96.5661 30.5344 93.2472 30.5344V30.5252ZM93.2472 40.2872C91.4282 40.2872 90.1868 38.7769 90.1868 36.6495C90.1868 34.5221 91.4282 33.0118 93.2472 33.0118C95.0661 33.0118 96.3075 34.5221 96.3075 36.6495C96.3075 38.7769 95.0661 40.2872 93.2472 40.2872ZM55.9541 30.5252C54.161 30.5252 52.8335 31.3725 52.0576 32.8184V27.3203H49.6266V36.3272C49.6266 40.1583 51.7041 42.7646 55.2903 42.7646C58.2386 42.7646 60.98 40.4714 60.98 36.585C60.98 33.288 59.161 30.5252 55.9541 30.5252ZM55.2645 40.1583C53.299 40.1583 52.1783 38.6203 52.1783 36.6403C52.1783 34.6603 53.2731 33.0025 55.2386 33.0025C57.2041 33.0025 58.299 34.6326 58.299 36.6403C58.299 38.6203 57.23 40.1583 55.2645 40.1583ZM67.9455 30.5252C64.9972 30.5252 62.2558 32.8184 62.2558 36.7047C62.2558 40.0017 64.0748 42.7554 67.2817 42.7554C69.0748 42.7554 70.4024 41.9081 71.1782 40.4622V42.6356H73.6093V36.9534C73.6093 33.1223 71.5317 30.516 67.9455 30.516V30.5252ZM67.9455 40.2872C66.0145 40.2872 64.9455 38.7124 64.9455 36.7047C64.9455 34.6971 66.0145 33.1223 67.98 33.1223C69.9455 33.1223 71.0662 34.6603 71.0662 36.6403C71.0662 38.6479 69.9024 40.278 67.9455 40.278V40.2872ZM83.7989 27.3203V32.8091C83.023 31.3633 81.6955 30.516 79.9024 30.516C76.6955 30.516 74.8765 33.2788 74.8765 36.5666C74.8765 40.5267 77.4455 42.7462 80.4455 42.7462C84.023 42.7462 86.2213 40.1399 86.2213 36.3087V27.3203H83.7989ZM80.592 40.1583C78.6265 40.1583 77.5575 38.6203 77.5575 36.6403C77.5575 34.6603 78.7386 33.0025 80.6179 33.0025C82.4972 33.0025 83.6782 34.605 83.6782 36.6403C83.6782 38.6203 82.5489 40.1583 80.5834 40.1583H80.592Z" fill="white"/>
</g>
<defs>
<clipPath id="clip0_763_811">
<rect width="80.3102" height="15.4443" fill="white" transform="translate(31.4542 27.3203)"/>
</clipPath>
</defs>
</svg>
