<svg width="165" height="85" viewBox="0 0 165 85" fill="none" xmlns="http://www.w3.org/2000/svg">
<g clip-path="url(#clip0_778_229)">
<path d="M115.064 33.526C115.593 36.4856 113.646 39.6358 110.012 42.4148C109.982 42.4449 110.012 42.4951 110.052 42.475C112.958 40.5688 116.033 38.4319 118.109 35.5927C118.858 34.5794 119.487 33.3554 119.597 32.0813C119.806 29.6935 118.219 27.6369 116.232 26.5132C114.914 25.7708 113.457 25.2993 111.979 24.9682C109.413 24.3763 106.768 24.1957 104.142 24.2258C102.804 24.2459 101.466 24.3161 100.138 24.4465C98.8506 24.5669 97.5726 24.7274 96.3047 24.9582C95.0468 25.1789 93.7888 25.4197 92.5408 25.7307C92.4011 25.7608 92.2713 25.8009 92.1315 25.831C92.0916 25.8411 92.1016 25.9012 92.1415 25.9012C104.202 24.7575 114.036 27.8576 115.064 33.546" fill="white"/>
<path d="M104.282 22.7818C104.282 22.7818 104.232 22.7216 104.282 22.7116C105.21 22.521 106.139 22.3604 107.077 22.21C108.565 21.9692 110.062 21.7685 111.56 21.6281C114.136 21.3773 116.831 21.2268 119.417 21.598C119.996 21.6782 120.575 21.7986 121.144 21.9591C122.552 22.3604 124 23.1229 124.389 24.6479C124.649 25.6411 124.489 26.7045 124.179 27.6677C123.58 29.5437 122.412 31.2091 121.174 32.714C121.094 32.8043 121.024 32.9046 120.945 32.9949C120.925 33.025 120.875 32.9949 120.885 32.9648C121.394 31.6104 121.623 30.0654 121.354 28.6308C120.965 26.5139 119.287 24.9589 117.39 24.1262C115.094 23.1129 112.578 22.8621 110.092 22.7617C108.155 22.6815 106.219 22.7216 104.282 22.8119" fill="white"/>
<path d="M75.8879 42.5139L78.5136 45.9952H69.0291L66.024 49.9781H61.6711L74.9994 32.3008L88.3277 49.9781H83.9747L74.9994 38.0695L71.6448 42.5139H75.868H75.8879ZM93.7089 38.7718H97.1732V49.9781H93.7089V38.7718ZM85.063 33.304H105.819V36.7853H85.063V33.304ZM60.5529 44.9418C60.5529 47.7208 58.3066 49.9781 55.5411 49.9781H41.0447V45.3632H44.509V46.4968H55.5311C56.3897 46.4968 57.0786 45.8046 57.0786 44.9418C57.0786 44.079 56.3897 43.3867 55.5311 43.3867H41.0447V39.9054H52.6857C53.5443 39.9054 54.2332 39.2132 54.2332 38.3504C54.2332 37.4876 53.5443 36.7954 52.6857 36.7954H44.509V37.929H41.0447V33.3141H52.6857C55.4512 33.3141 57.6975 35.5714 57.6975 38.3504C57.6975 39.0226 57.5678 39.6647 57.3281 40.2466C59.2051 40.9789 60.5429 42.8049 60.5429 44.9518" fill="white"/>
</g>
<defs>
<clipPath id="clip0_778_229">
<rect width="83.454" height="28.6128" fill="white" transform="translate(41.0447 21.3672)"/>
</clipPath>
</defs>
</svg>
