<?xml version="1.0" encoding="UTF-8"?>
<svg xmlns="http://www.w3.org/2000/svg" version="1.1" viewBox="0 0 200 100">
  <defs>
    <style>
      .cls-1 {
        opacity: 0;
      }

      .cls-1, .cls-2 {
        fill: #f0ede8;
      }
    </style>
  </defs>
  <!-- Generator: Adobe Illustrator 28.6.0, SVG Export Plug-In . SVG Version: 1.2.0 Build 709)  -->
  <g>
    <g id="Layer_1">
      <g>
        <g>
          <polygon class="cls-2" points="131.4 44.2 135.4 41.2 122.1 41.2 122.1 58.8 135.4 58.8 135.4 55.9 125.9 55.9 125.9 51.4 134 51.4 134 48.5 125.9 48.5 125.9 44.2 131.4 44.2"/>
          <path class="cls-2" d="M112.1,48.1h-4.6v-3.9h7.4l4-2.9h-15.1v17.6h7.9c4.4,0,7-2,7-5.5s-2.3-5.2-6.5-5.2M111.4,55.9h-4v-4.9h4c2.4,0,3.5.8,3.5,2.4s-1.2,2.4-3.5,2.4"/>
          <path class="cls-2" d="M146.2,41.2h-7.2v17.6h3.8v-5h3.4c4.6,0,7.5-2.4,7.5-6.3s-2.9-6.3-7.5-6.3M146.1,50.9h-3.4v-6.7h3.4c2.4,0,3.8,1.2,3.8,3.4s-1.3,3.4-3.8,3.4"/>
          <path class="cls-2" d="M97.2,55c-1,.5-2.1.8-3.3.8-3.4,0-5.9-2.4-5.9-5.8s2.5-5.8,5.9-5.8c1.2,0,2.4.4,3.5,1.1l2.7-2-.2-.2c-1.6-1.4-3.7-2.1-6.1-2.1s-5,.9-6.7,2.5c-1.7,1.6-2.7,3.9-2.7,6.4s.9,4.8,2.7,6.5c1.7,1.7,4.1,2.6,6.7,2.6s5.1-1,6.7-2.7l-2.5-1.8-.8.5Z"/>
          <path class="cls-2" d="M75.3,49.9c0-.9,0-1.7-.2-2.6l-3.1,2.3v.3c0,6.2-5,11.2-11.1,11.2-6.2,0-11.2-5-11.2-11.1,0-6.2,5-11.2,11.1-11.2,2.3,0,4.5.7,6.3,2l2.8-2.1c-6.2-5-15.4-4.1-20.4,2.2-5,6.2-4.1,15.4,2.2,20.4,6.2,5,15.4,4.1,20.4-2.2,2.1-2.6,3.2-5.8,3.2-9.1h0Z"/>
          <path class="cls-2" d="M72.3,41.1c.7.9,1.3,1.9,1.7,2.9l-13.2,9.7-5.5-3.5v-4.2l5.5,3.5,11.5-8.5Z"/>
        </g>
        <rect class="cls-1" width="200" height="100"/>
      </g>
    </g>
  </g>
</svg>