<svg width="143" height="74" viewBox="0 0 143 74" fill="none" xmlns="http://www.w3.org/2000/svg">
<g clip-path="url(#clip0_763_717)">
<path d="M64.88 30.0884L63.7703 35.8274H62.2735L60.8542 28.8438H62.0585L63.0477 34.2457H63.065L64.1144 28.8438H65.6714L66.7209 34.2457H66.7381L67.7618 28.8438H68.923L67.4779 35.8274H65.9553L64.8714 30.0884H64.88Z" fill="white"/>
<path d="M70.6951 30.5859C71.7446 30.5859 72.9489 31.1391 72.9489 33.2221C72.9489 35.3051 71.7446 35.8842 70.6951 35.8842C69.6456 35.8842 68.4241 35.3656 68.4241 33.2221C68.4413 31.1218 69.6715 30.5859 70.6951 30.5859ZM70.6951 35.0285C71.4865 35.0285 71.6844 34.1124 71.6844 33.2394C71.6844 32.3664 71.5037 31.4762 70.6951 31.4762C69.8865 31.4762 69.7059 32.3924 69.7059 33.2394C69.7059 34.0864 69.9037 35.0285 70.6951 35.0285Z" fill="white"/>
<path d="M73.5511 31.5177C73.5511 31.2239 73.5339 30.9646 73.5081 30.6621H74.6349C74.6521 30.9819 74.678 31.293 74.678 31.6128H74.6952C74.85 31.2152 75.2285 30.6016 76.0027 30.6016C76.0629 30.6016 76.1403 30.6188 76.2005 30.6188V31.7857C76.0801 31.7684 75.9597 31.7252 75.8651 31.7252C75.3489 31.7252 74.7984 32.045 74.7984 32.9957V35.8134H73.5769L73.5597 31.5091L73.5511 31.5177Z" fill="white"/>
<path d="M76.7338 28.3203H77.9811V35.8226H76.7338V28.3203Z" fill="white"/>
<path d="M83.0134 28.3203V34.9496C83.0134 35.2435 83.0306 35.546 83.0564 35.8226H81.8951C81.8779 35.5633 81.8521 35.2867 81.8521 35.0274H81.8349C81.6371 35.4682 81.2586 35.9004 80.4758 35.9004C79.2113 35.9004 78.6779 34.6903 78.6779 33.2642C78.6779 31.5788 79.3489 30.6021 80.4586 30.6021C81.0349 30.5848 81.5425 30.896 81.7833 31.4146H81.8005V28.3203H83.022H83.0134ZM80.8027 34.9669C81.5338 34.9669 81.7747 34.1717 81.7747 33.221C81.7747 32.2702 81.4994 31.4924 80.8285 31.4924C80.1575 31.4924 79.8994 32.1665 79.8994 33.1951C79.8994 34.3878 80.0973 34.9583 80.8113 34.9583L80.8027 34.9669Z" fill="white"/>
<path d="M86.6866 28.8438H87.9683V31.6787H90.0242V28.8438H91.2888V35.8274H90.0242V32.7332H87.9683V35.8101H86.6866V28.8438Z" fill="white"/>
<path d="M95.8135 35.5644C95.3404 35.7805 94.8071 35.9015 94.291 35.9015C92.6307 35.9015 91.9167 34.7087 91.9167 33.3258C91.9167 31.796 92.7254 30.5859 94.0329 30.5859C95.1426 30.5859 96.0888 31.2169 96.0888 33.3431V33.5851H93.1297C93.1297 34.4581 93.4823 34.994 94.4372 34.994C95.1856 34.994 95.5641 34.7519 95.7791 34.5964L95.8221 35.573L95.8135 35.5644ZM94.8845 32.8072C94.8845 31.8911 94.592 31.4416 94.0157 31.4416C93.3619 31.4416 93.1039 32.1331 93.1039 32.8072H94.8845Z" fill="white"/>
<path d="M96.8802 30.9584C97.3963 30.7164 97.9469 30.5781 98.4974 30.5781C100.097 30.5781 100.476 31.356 100.476 32.6438V34.8824C100.476 35.1763 100.493 35.4788 100.536 35.7986H99.4093C99.349 35.5566 99.3318 35.3405 99.349 35.1071H99.3318C99.0136 35.522 98.6437 35.885 97.8867 35.885C97.0953 35.885 96.3641 35.3319 96.3641 34.3811C96.3641 32.9896 97.491 32.6352 99.0738 32.6352H99.3146V32.4364C99.3146 31.9178 99.0738 31.4424 98.3684 31.4424C97.8523 31.4597 97.3791 31.6412 96.9662 31.961L96.8888 30.9671L96.8802 30.9584ZM99.306 33.2834H99.1856C98.1361 33.2834 97.5082 33.4995 97.5082 34.2601C97.491 34.675 97.8006 35.038 98.1963 35.0553H98.291C99.0222 35.0553 99.2974 34.5021 99.2974 33.5859V33.2921L99.306 33.2834Z" fill="white"/>
<path d="M101.603 28.3203H102.824V35.8226H101.603V28.3203Z" fill="white"/>
<path d="M104.244 29.6069L105.465 29.2266V30.6786H106.489V31.5948H105.465V34.2742C105.465 34.8273 105.663 34.9916 106.016 34.9916C106.171 34.9916 106.351 34.9483 106.472 34.8706V35.7435C106.214 35.8645 105.921 35.8991 105.646 35.8991C104.734 35.8991 104.201 35.4842 104.201 34.3952V31.5775H103.392V30.6613H104.201L104.244 29.6069Z" fill="white"/>
<path d="M106.893 28.3203H108.115V31.3368H108.132C108.347 31.017 108.648 30.6021 109.396 30.6021C110.558 30.6021 110.919 31.4751 110.919 32.5036V35.8139H109.698V32.737C109.698 31.9418 109.5 31.6047 108.984 31.6047C108.356 31.6047 108.115 32.1579 108.115 32.8148V35.8139H106.893V28.3203Z" fill="white"/>
<path d="M63.6758 37.6875C65.121 37.6875 66.4371 38.7765 66.4371 41.2831C66.4371 43.7896 65.1124 44.8786 63.6758 44.8786C62.2392 44.8786 60.9145 43.7896 60.9145 41.2831C60.9145 38.7765 62.2392 37.6875 63.6758 37.6875ZM63.6758 43.9019C64.4844 43.9019 65.1382 43.2105 65.1382 41.2831C65.1382 39.3556 64.4844 38.6815 63.6758 38.6815C62.8672 38.6815 62.2134 39.3729 62.2134 41.2831C62.2134 43.1846 62.8672 43.9019 63.6758 43.9019Z" fill="white"/>
<path d="M66.979 40.4631C66.979 40.1692 66.9618 39.9099 66.936 39.6074H68.0629C68.0801 39.9272 68.1059 40.2383 68.1059 40.5581H68.1231C68.2779 40.1605 68.6736 39.5469 69.4306 39.5469C69.4908 39.5469 69.5682 39.5642 69.6285 39.5642V40.731C69.508 40.7137 69.3876 40.6705 69.2758 40.6705C68.7596 40.6705 68.2091 40.9903 68.2091 41.941V44.7587H66.9876V40.4544L66.979 40.4631Z" fill="white"/>
<path d="M70.2134 45.5806C70.6694 45.8572 71.2027 45.9955 71.736 46.0214C72.8973 46.0214 73.078 45.209 73.078 44.3965V43.9039H73.0608C72.8629 44.3014 72.5102 44.7768 71.7188 44.7768C71.0048 44.7768 69.921 44.3014 69.921 42.2184C69.921 40.7923 70.4371 39.5391 71.779 39.5391C72.5274 39.5391 72.8629 39.9539 73.121 40.412H73.164C73.164 40.1354 73.1812 39.8761 73.207 39.6169H74.3339C74.3167 39.8934 74.2909 40.1527 74.2909 40.4293V44.2237C74.2909 45.8486 73.8006 46.9808 71.9167 46.9808C71.3231 46.9808 70.7124 46.8598 70.1618 46.661L70.222 45.5893L70.2134 45.5806ZM72.0113 43.852C72.7855 43.852 73.0952 43.2988 73.0952 42.1234C73.0952 41.0343 72.6823 40.4552 72.1059 40.4725C71.4522 40.4898 71.1941 41.0862 71.1941 42.1407C71.1941 43.3507 71.5726 43.8434 72.0027 43.8434L72.0113 43.852Z" fill="white"/>
<path d="M75.3919 39.9115C75.9081 39.6523 76.4586 39.5312 77.0091 39.5312C78.6091 39.5312 78.9876 40.3091 78.9876 41.597V43.8355C78.9876 44.1294 79.0048 44.4319 79.0479 44.7517H77.921C77.8608 44.5097 77.8436 44.2936 77.8608 44.0603H77.8436C77.5253 44.4751 77.1554 44.8382 76.3984 44.8382C75.607 44.8382 74.8758 44.285 74.8758 43.3342C74.8758 41.9427 76.0027 41.5883 77.5855 41.5883H77.8263V41.3895C77.8263 40.8709 77.5855 40.3956 76.8801 40.3956C76.364 40.4129 75.8909 40.5944 75.4779 40.9142L75.4005 39.9202L75.3919 39.9115ZM77.8177 42.2538H77.6973C76.6478 42.2538 76.0199 42.4699 76.0199 43.2305C76.0027 43.6454 76.3124 44.0084 76.7081 44.0257H76.8027C77.5339 44.0257 77.8091 43.4725 77.8091 42.5564V42.2625L77.8177 42.2538Z" fill="white"/>
<path d="M79.977 40.4647C79.977 40.1708 79.9598 39.9115 79.934 39.609H81.0953C81.1125 39.8683 81.1383 40.1449 81.1383 40.4042H81.1555C81.3361 40.0844 81.6888 39.5312 82.5146 39.5312C83.6759 39.5312 84.0372 40.4042 84.0372 41.4327V44.7431H82.7899V41.6488C82.7899 40.8537 82.592 40.5166 82.0759 40.5166C81.4479 40.5166 81.2071 41.0697 81.2071 41.7266V44.7258H79.9856V40.4561H79.9684L79.977 40.4647Z" fill="white"/>
<path d="M84.9748 37.4141H86.2565V38.6241H84.9748V37.4141ZM84.992 39.6181H86.2135V44.778H84.992V39.6181Z" fill="white"/>
<path d="M87.2028 43.6976L89.3964 40.5601H87.263V39.6094H90.6179V40.6638L88.4673 43.8186H90.6953V44.7693H87.177L87.1942 43.6976H87.2028Z" fill="white"/>
<path d="M91.6242 39.9115C92.1404 39.6523 92.6909 39.5312 93.2414 39.5312C94.8414 39.5312 95.2199 40.3091 95.2199 41.597V43.8355C95.2199 44.1294 95.2371 44.4319 95.2802 44.7517H94.1533C94.0931 44.5097 94.0758 44.2936 94.0931 44.0603H94.0759C93.7576 44.4751 93.3877 44.8382 92.6307 44.8382C91.8393 44.8382 91.1081 44.285 91.1081 43.3342C91.1081 41.9427 92.235 41.5883 93.8178 41.5883H94.0586V41.3895C94.0586 40.8709 93.8178 40.3956 93.1124 40.3956C92.5963 40.4129 92.1232 40.5944 91.7102 40.9142L91.6328 39.9202L91.6242 39.9115ZM94.05 42.2538H93.9296C92.8801 42.2538 92.2522 42.4699 92.2522 43.2305C92.235 43.6454 92.5447 44.0084 92.9404 44.0257H93.035C93.7662 44.0257 94.0414 43.4725 94.0414 42.5564V42.2625L94.05 42.2538Z" fill="white"/>
<path d="M96.562 38.5639L97.7835 38.1836V39.6356H98.8072V40.5518H97.7835V43.2312C97.7835 43.7844 97.9814 43.9486 98.3341 43.9486C98.4889 43.9486 98.6695 43.9313 98.79 43.8276V44.7005C98.5319 44.8215 98.2394 44.8821 97.9642 44.8561C97.0523 44.8561 96.519 44.4412 96.519 43.3695V40.5518H95.7104V39.6356H96.519L96.562 38.5639Z" fill="white"/>
<path d="M99.5641 37.4141H100.829V38.6241H99.5641V37.4141ZM99.5814 39.6181H100.829V44.778H99.6072L99.59 39.6181H99.5814Z" fill="white"/>
<path d="M103.771 39.5312C104.82 39.5312 106.024 40.0844 106.024 42.1674C106.024 44.2504 104.82 44.8295 103.771 44.8295C102.721 44.8295 101.5 44.3369 101.5 42.1674C101.517 40.0844 102.721 39.5312 103.771 39.5312ZM103.771 43.9738C104.562 43.9738 104.76 43.0577 104.76 42.1847C104.76 41.3117 104.579 40.4215 103.771 40.4215C102.962 40.4215 102.781 41.3377 102.781 42.1847C102.781 43.0317 102.962 43.9738 103.771 43.9738Z" fill="white"/>
<path d="M106.996 40.4647C106.996 40.1708 106.979 39.9115 106.953 39.609H108.115C108.132 39.8683 108.158 40.1449 108.158 40.4042H108.175C108.356 40.0844 108.708 39.5312 109.534 39.5312C110.695 39.5312 111.057 40.4042 111.057 41.4327V44.7431H109.835V41.6488C109.835 40.8537 109.637 40.5166 109.121 40.5166C108.493 40.5166 108.252 41.0697 108.252 41.7266V44.7258H107.031L106.988 40.4561L106.996 40.4647Z" fill="white"/>
<path d="M53.4133 28.7523C53.9466 29.3832 54.8756 29.7635 55.4262 30.4204C55.0305 28.5362 53.5853 26.9891 51.8735 26.6088C52.6993 27.2397 52.8799 28.1127 53.4133 28.7523ZM32.768 33.5579C33.9551 30.9563 35.7099 31.5181 36.4583 29.0548C36.0196 29.7895 34.0841 30.1093 33.2153 32.054C33.6712 30.9044 33.4562 29.1585 34.2045 28.1818C31.9164 29.9105 32.8798 32.6849 32.7594 33.5579M34.8927 39.7723C35.1078 40.7663 34.4798 42.2356 35.4863 43.6185C34.4626 42.469 32.2863 42.1665 31.4002 40.4033C32.5099 44.6903 35.3916 43.8173 36.6906 44.7508C35.6067 43.2037 36.4927 42.1751 34.8927 39.7723ZM34.5572 42.469C33.9293 40.0662 35.0476 39.2364 34.1787 36.9287C34.1013 38.2425 33.2325 38.8561 33.8002 41.233C32.7766 39.2105 31.1938 38.4586 30.7379 37.0843C30.7809 40.8527 33.8002 41.4145 34.5486 42.4603M39.1938 46.4708C38.3078 45.2434 38.9013 44.5433 36.4325 42.3048C36.9658 43.1172 36.4153 44.1544 38.0927 45.7361C36.4497 44.7594 34.1787 45.1829 33.0777 43.8692C34.9529 47.4993 38.2734 46.0127 39.2024 46.4708M51.2713 45.7534C52.9487 44.1458 52.3982 43.1172 52.9315 42.3221C50.4455 44.5606 51.0563 45.2607 50.1444 46.4881C51.0907 46.03 54.3939 47.5166 56.2692 43.8865C55.1853 45.2002 52.9143 44.7594 51.2713 45.7534ZM53.8778 43.6099C54.867 42.2183 54.2563 40.7749 54.4541 39.7637C52.8541 42.1838 53.7229 43.195 52.6563 44.7681C53.9638 43.8346 56.8455 44.7076 57.9466 40.4206C57.0778 42.1492 54.9014 42.4603 53.8778 43.6185M49.8864 46.6523C49.0003 46.4103 48.0885 46.272 47.1595 46.2374C46.3078 46.2201 45.4648 46.3584 44.6734 46.6523C43.882 46.3584 43.0304 46.2115 42.1874 46.2374C41.2583 46.2547 40.3465 46.4189 39.4605 46.6523C37.9637 47.0499 36.6562 47.3697 35.5293 46.7906C36.6132 47.7413 37.8777 48.1043 39.6927 47.9055C41.2153 47.75 42.4368 46.9721 43.8562 46.9894H43.9164C43.0046 47.4474 42.2218 48.0784 41.5422 48.839L42.2304 48.9341C42.2304 48.9341 42.9616 47.4647 44.639 47.0844C46.3164 47.4647 47.0476 48.9341 47.0476 48.9341L47.7358 48.839C47.082 48.0611 46.2734 47.4474 45.3616 46.9894H45.4218C46.867 46.9721 48.0885 47.7413 49.5853 47.9055C51.4261 48.1043 52.6649 47.75 53.7487 46.7906C52.6649 47.3697 51.3573 47.0499 49.8605 46.6523M34.3078 34.3098C33.697 35.5026 32.725 35.7792 32.8282 38.2425C32.3121 36.0558 31.0733 35.2433 31.0905 33.8604C30.2217 37.5078 32.5357 37.9313 33.1207 39.4784C33.026 37.2744 34.4282 36.8423 34.3078 34.3185M35.1766 31.5181C34.9615 31.812 34.7981 31.9589 34.2303 32.4343C33.3615 33.1257 32.768 34.1024 32.5701 35.1742C32.6303 33.8258 31.7959 31.9157 32.3551 30.5068C30.2389 33.506 32.4755 35.3124 32.5529 36.4015C33.0863 34.3012 34.3508 34.2753 35.1766 31.5181ZM56.8025 35.1482C56.5875 34.0592 55.9939 33.0825 55.1423 32.4083C54.566 31.933 54.4111 31.812 54.1961 31.4922C55.0047 34.2666 56.2864 34.2666 56.8197 36.3756C56.8972 35.2865 59.1337 33.4974 57.0176 30.4809C57.5681 31.8897 56.7595 33.8172 56.8025 35.1482ZM58.6004 37.0929C58.1445 38.4845 56.5445 39.2192 55.538 41.2417C56.1316 38.8561 55.2455 38.2425 55.1595 36.9374C54.2907 39.2364 55.4348 40.0748 54.781 42.4776C55.5552 41.4232 58.5746 40.87 58.5918 37.1016M55.0391 34.3271C54.9186 36.825 56.3208 37.2831 56.2262 39.4698C56.8197 37.94 59.1079 37.5078 58.2563 33.8517C58.2735 35.2433 57.0348 36.0558 56.5187 38.2598C56.6391 35.7965 55.667 35.5199 55.0391 34.3271ZM35.968 28.7523C36.5013 28.1213 36.682 27.2224 37.525 26.6088C35.7873 26.9891 34.3422 28.5103 33.9465 30.4031C34.4798 29.7722 35.4261 29.3919 35.9594 28.7523M52.9057 29.0289C53.6541 31.4922 55.4176 30.9563 56.5961 33.5319C56.4756 32.659 57.4649 29.8845 55.1509 28.1905C55.9251 29.1412 55.7014 30.9131 56.1402 32.0626C55.2541 30.1179 53.3186 29.7981 52.8971 29.0289M46.8928 30.4377C46.4369 30.2389 45.9638 30.1179 45.4906 30.0574V30.3772C45.9465 30.4377 46.3767 30.576 46.7982 30.7316C46.8412 30.6365 46.8756 30.5328 46.8928 30.4377ZM46.5401 27.378L46.6347 27.3002L46.4541 27.2224L45.981 27.2051L45.8605 27.2829L45.5853 27.2657V27.3262C45.7659 27.3434 45.9379 27.3434 46.0756 27.3867L46.3164 27.3694L46.5315 27.3867L46.5401 27.378ZM45.6283 37.6202C45.6283 37.5424 45.5078 37.4646 45.3702 37.3782H45.353C45.353 37.4387 45.3358 37.7585 45.3358 37.9313C45.5164 37.8362 45.6283 37.7498 45.6283 37.6115M40.1573 31.5786C40.1745 31.5181 40.1745 31.4576 40.2003 31.3971C40.1401 31.4144 40.0798 31.4144 40.0024 31.4144L40.1573 31.5699V31.5786ZM37.9637 29.3746L39.0906 30.5068C37.7486 31.9157 36.9745 33.8172 36.9572 35.7619H35.3744C35.3744 33.3591 36.3035 31.0946 37.9637 29.3746ZM37.2755 38.1301L37.1809 38.1128L37.0863 38.0178L36.6304 37.9745L36.768 38.1733L36.3551 38.0955L36.4755 38.0005L36.3809 37.9054L36.0884 38.0264L35.968 38.2252L36.011 38.6833L36.3465 39.4957L36.5013 39.755L36.596 39.7723L36.3379 39.2797L36.2777 39.0376L36.3379 38.9771L36.2949 38.8389L36.4497 38.8561L36.6906 39.2105L36.7508 39.2278V38.9685L36.8454 39.029L36.8626 39.1673L37.1035 39.2278L37.2239 39.15L37.2669 39.1673V39.3661L37.3874 39.5044L37.525 39.5217L37.8175 40.0143L37.9981 40.0748L38.0583 39.8328C38.3766 40.3514 38.7293 40.8268 39.1422 41.2417L38.0153 42.3739C36.3551 40.6885 35.3916 38.424 35.3486 36.0471H36.9314C36.9745 36.7818 37.0863 37.4732 37.2841 38.1301M38.8411 36.0644C38.8411 36.22 38.8583 36.3583 38.8841 36.5225L38.6863 36.5657L38.6433 36.7645L38.2304 37.2831L38.2476 38.0005L37.8347 38.1388H37.5938C37.3788 37.4646 37.2583 36.7904 37.2411 36.073C37.2583 36.073 38.8411 36.073 38.8411 36.073V36.0644ZM39.1938 40.5502L39.5465 40.749L39.6067 40.8095L39.3487 41.0688C39.2282 40.9478 39.1078 40.8268 39.0132 40.6885L39.1938 40.5502ZM40.639 32.0799L41.7659 33.2122C41.525 33.4714 41.3272 33.7653 41.1723 34.0851H41.0949L40.9401 34.1283H40.8799L40.725 34.2839L40.9401 34.2666L41.1379 34.2234L41.0949 34.2839L40.9401 34.4049H40.8626L40.6218 34.6037L40.3809 34.5864L40.0454 35.2174L40.1057 35.3384L39.9078 35.5545L39.8906 35.831H39.1766C39.1766 34.379 39.71 33.0739 40.639 32.0799ZM41.7831 36.7213L41.8605 36.6781L42.0584 36.8336L41.9637 36.8941L42.2046 37.0497L42.1874 36.8941L42.3078 36.6953L42.4455 36.8336L42.5831 37.0324L42.3422 37.0929L42.4627 37.309L42.6175 37.2139L42.6003 37.1534L42.7207 37.0756L42.7809 36.7386C42.8756 36.9374 42.996 37.1361 43.1594 37.2917L42.0325 38.424C41.482 37.8449 41.1465 37.1102 41.0433 36.3237L41.2842 36.5657H41.4992L41.7917 36.7213H41.7831ZM40.1831 35.5285L40.2003 35.2087L40.3981 35.0877L40.7336 35.1482L40.7938 35.2087C40.7766 35.3902 40.7508 35.589 40.7336 35.7619H40.3551L40.1745 35.5199L40.1831 35.5285ZM39.6669 36.6176L39.5121 36.8596H39.254L39.2368 36.8423C39.1938 36.6003 39.1766 36.3237 39.1594 36.0903H39.6325L39.5121 36.4706L39.6669 36.6262V36.6176ZM40.7164 39.7118C40.596 39.5908 40.4755 39.4698 40.3809 39.3315L40.4411 38.9339L40.2863 38.5536L40.2433 37.9573L40.0454 37.577L40.0884 37.3349L39.8476 36.8941L39.6497 36.7991L39.7272 36.5571L39.6497 36.3756L39.7272 36.1768H39.9422L40.0196 36.0558H40.3981L40.4583 36.1768L40.3809 36.5571L40.3379 36.6176L40.4755 36.9114L40.3809 36.9719L40.3207 36.8941L40.3035 36.9114L40.3637 37.0929L40.4841 37.2917H40.5444L40.5616 37.0929L40.5014 37.0324V36.9114L40.4841 36.6521L40.5616 36.194L40.4841 36.073H40.7422C40.8024 37.0238 41.1809 37.9227 41.8261 38.5968L40.7164 39.6859V39.7118ZM50.239 41.2589C51.581 39.8674 52.3724 38.0005 52.4154 36.0817H53.9982C53.938 38.4413 53.009 40.7058 51.3487 42.3912L50.239 41.2589ZM49.8003 40.8009L49.9208 40.6626L49.8003 40.0489L49.7229 40.0316L49.7831 39.9106L49.5251 39.8328L49.4648 40.0489L49.4476 40.3255L49.3874 40.386L48.9143 39.9106C49.9036 38.8561 50.4713 37.5078 50.5315 36.0817H52.1143C52.0541 37.9486 51.3229 39.7118 50.024 41.0429L49.8089 40.8009H49.8003ZM48.4154 42.3048L48.5702 41.985L48.51 41.8467L48.7251 41.6479V41.5269L48.5272 41.4059L48.682 41.0861L48.9229 40.7922L48.682 40.5502H48.5014L48.381 40.3687C48.4756 40.2909 48.5788 40.2131 48.6562 40.1267L49.7831 41.2589C49.3702 41.6392 48.8971 41.9936 48.3982 42.2875M48.1831 39.1932L48.0283 39.0376L48.1487 38.8821L48.3036 38.5882L48.2433 38.5104L48.338 38.2943L48.3208 38.0955L48.2605 37.8967L48.1229 37.8535L48.0627 37.9745L47.9853 37.9573C48.1057 37.7757 48.2261 37.577 48.3208 37.3782L48.4584 37.3177L48.5358 37.1967L48.5788 37.2399L48.6734 37.1189L48.596 37.0238L48.6562 37.0065L48.7767 37.067H49.0175L49.1724 36.9892L49.5509 36.8682L49.4907 36.7472L49.4734 36.5916L49.6713 36.6867L49.7487 36.6435L49.7057 36.4879L49.4476 36.583L49.1724 36.5225L48.9573 36.0817H50.1616C50.1014 37.43 49.5681 38.7178 48.639 39.6945L48.4842 39.5389L48.5444 39.3229L48.424 38.8302L48.1831 39.2105V39.1932ZM47.6068 33.2035L48.7337 32.0713C48.9917 32.3651 49.224 32.6676 49.4218 33.0047L49.2842 33.0479L49.3014 33.2899L49.7143 33.5492C49.8347 33.7912 49.9122 34.0073 49.9724 34.2666L49.9122 34.3876L49.7573 34.5086L49.7143 34.7506L49.5939 34.8111L49.5165 34.9321L49.439 34.8889H49.2842L49.3616 34.7679L49.4218 34.4481L49.5423 34.3876L49.2498 34.0938L49.0347 34.1715L48.9745 34.3876L48.8369 34.5432L48.682 34.4222L48.6218 34.2839L48.6993 34.2234L48.7423 34.3012L48.8025 34.2839L48.7853 34.1456H48.6907V34.2061L48.6304 34.2234L48.2949 33.8085L48.1745 33.7135L48.2175 33.6702L48.338 33.627L48.2175 33.5838C48.2175 33.5838 48.0971 33.6011 48.0799 33.6011L48.1401 33.6962H47.9595C47.8648 33.4974 47.7444 33.3418 47.624 33.2035M47.8046 39.3315L47.4691 39.2364L47.3487 39.2797L47.1509 39.1241L46.9702 39.0636C47.0648 39.0031 47.1509 38.9253 47.2283 38.8648L47.5208 39.0636L47.7358 39.1846L47.8562 39.3056L47.796 39.3488L47.8046 39.3315ZM47.1939 34.0505L47.3315 34.0333V34.016L47.1939 33.9209L47.2369 33.627L47.3917 33.4455C47.5121 33.5665 47.5896 33.6875 47.6842 33.8258L47.624 34.0073L47.4691 33.8863L47.3487 33.9036L47.4089 34.0246H47.4691L47.4089 34.1802L47.3659 34.1197L47.1853 34.0592L47.1939 34.0505ZM49.0864 35.1396L49.3788 34.984L49.6713 34.9408L49.7315 34.8025L49.8864 34.7074L49.9466 34.5691L50.0068 34.3271C50.024 34.4049 50.0498 34.4827 50.067 34.5691L49.9122 35.0272V35.1828L50.11 34.863C50.153 35.1396 50.1702 35.4162 50.1874 35.6927H48.8025L48.7853 35.5717L48.9401 35.4507L48.9573 35.3729L49.0175 35.3124L49.2154 35.2952L49.2326 35.2174L49.0777 35.1396H49.0864ZM49.4046 31.4317L49.7831 31.4489L49.8778 31.5699L49.8347 31.7255L50.3681 32.0626L50.4885 32.0453L51.1595 32.8232L51.4348 32.7281C51.8735 33.6789 52.1057 34.7161 52.1229 35.7619H50.5401C50.5401 35.347 50.4799 34.9494 50.3853 34.5518L50.4455 34.4568L50.5401 33.9382L50.4799 33.4023L50.2821 32.7886L49.8433 32.1577L49.9638 32.2182L50.024 32.1577L49.6713 31.9157L49.6541 31.9935L50.0068 32.5121L50.2046 32.9269L50.3423 33.3418L50.3853 33.6184L50.4455 34.0765L50.3079 34.0938C50.3079 34.0938 50.153 33.7999 50.11 33.6789L50.1702 33.5579L50.0326 33.3591V33.1776L49.938 33.0566L49.8175 33.0739C49.7745 32.9961 49.7401 32.9183 49.6799 32.8319L49.7573 32.8751L49.7745 32.8578L49.7315 32.7627L49.8519 32.7022L49.8089 32.6417L49.6541 32.7022L49.7143 32.4602L49.6197 32.3997L49.5423 32.5985C49.3616 32.3392 49.1638 32.0799 48.9659 31.8638L49.4046 31.423V31.4317ZM51.4175 29.3919C53.0606 31.0946 53.9638 33.3764 54.0068 35.7619H52.424C52.4068 34.5951 52.1315 33.4196 51.6154 32.3651L51.6326 32.3478L51.753 32.4083L51.7702 32.3305L51.4778 31.8379L51.1423 31.3798L50.7466 31.0427C50.6089 30.8871 50.4713 30.7056 50.3337 30.5501L51.4175 29.4005V29.3919ZM44.682 45.5027C49.9982 45.5027 54.3165 41.1552 54.2993 35.7965C54.2993 30.8353 50.5659 26.6866 45.6455 26.168L45.6283 26.2285C45.6111 26.3235 45.5853 26.41 45.5681 26.4878C47.6842 26.6866 49.6541 27.62 51.1767 29.1239L50.11 30.1957L50.153 29.9969L50.0154 29.9364L49.8347 29.9537L49.8778 29.8327L49.7573 29.3919L49.4993 29.098L48.6734 28.6572L48.6132 28.735L48.4584 28.7782C48.7509 29.1931 48.8971 29.6944 48.8971 30.1698V30.3685L49.31 30.8871L49.1122 30.9304L49.2326 31.1291L48.8541 31.5094L48.6993 31.2329C48.639 31.4317 48.5444 31.6132 48.424 31.786L48.5014 31.8465L47.3745 32.9788C47.3143 32.9183 47.2369 32.8578 47.1767 32.78C47.0562 32.8405 46.9616 32.8751 46.8412 32.9183L46.9358 32.9788L46.8756 33.0393L46.7379 33.0998L46.6777 33.2381L46.6003 33.1603L46.3595 33.2381L46.4197 33.3591L46.5745 33.3159L46.6949 33.3332L46.7121 33.2727L46.7896 33.2294L46.8068 33.1862L46.9616 33.143H47.082L47.1423 33.2035L46.7035 33.6616L46.6863 33.6184L46.2304 33.6962L46.11 33.8172L46.0154 33.8345L46.3078 33.5579L46.1874 33.4974L45.9121 33.8517L45.9896 33.8345V33.9728L46.0842 34.016L46.1014 34.1543L45.9465 34.137L45.7917 34.1543L45.3788 33.9555C45.3788 33.9555 45.3616 35.0445 45.3616 35.6063C46.3078 35.9434 47.3401 36.4015 47.3401 37.6288C47.3573 38.1474 47.082 38.6401 46.6519 38.9426L46.6347 38.9599L46.6175 38.9771C46.239 39.2364 45.7315 39.3747 45.2928 39.513L45.2756 40.386C45.9638 40.7231 46.7982 41.2417 46.7207 42.6678C46.7035 43.0221 46.5659 43.1259 46.4627 43.1432C46.0498 43.2382 45.6369 43.2987 45.2154 43.3419V43.6617C47.0132 43.5407 48.7079 42.7888 50.0154 41.5355L51.1423 42.6678C47.5466 46.1596 41.8605 46.1596 38.2648 42.6851L39.3917 41.5528C40.6992 42.7629 42.3766 43.5148 44.1315 43.6531V43.3333C42.4368 43.195 40.854 42.5036 39.6325 41.3108L39.925 41.0169L40.3379 41.0601L40.553 40.8181L41.1293 40.8354L41.2067 40.6366L41.1895 40.5588C42.0411 41.1898 43.0476 41.6133 44.1143 41.7257V41.4059C42.953 41.2676 41.8433 40.7749 40.9745 39.9538L42.1014 38.8216C42.3766 39.0636 42.6777 39.2797 43.0132 39.4352C43.0304 39.3142 43.0734 39.2364 43.1336 39.1414C42.8412 38.9858 42.5831 38.8043 42.3422 38.6055L43.4691 37.4732C43.6498 37.6115 43.8476 37.7325 44.0627 37.8103V37.4732C43.925 37.4127 43.8046 37.3349 43.6842 37.2572L44.0024 36.9374C43.882 36.9201 43.7874 36.8769 43.667 36.8164L43.4519 37.0324C43.3315 36.9114 43.2541 36.7731 43.1766 36.6348C42.9788 36.5571 42.7981 36.4533 42.6261 36.341C41.9723 35.9434 41.5766 35.2087 41.5766 34.4395C41.5594 33.9209 41.7143 33.385 42.0325 32.9874L40.9057 31.8552C41.7143 31.06 42.7809 30.5414 43.8906 30.3685V30.0488C42.6863 30.2303 41.5594 30.7834 40.6906 31.6132L40.4928 31.4144C40.4497 31.4749 40.3981 31.5699 40.3379 31.7082L40.4583 31.8292C39.4691 32.8837 38.9013 34.2925 38.8755 35.736H37.2755C37.2927 33.8517 38.0239 32.0626 39.3315 30.697L39.8476 31.2156H39.9078C40.0024 31.1983 40.1057 31.1724 40.2003 31.1378L39.5723 30.5068C39.9078 30.1698 40.2863 29.8759 40.682 29.6166C40.6992 29.5388 40.725 29.461 40.7594 29.3746C40.8196 29.2536 40.9143 29.1585 41.0003 29.0375C40.4067 29.3746 39.8562 29.7722 39.3573 30.2475L38.2304 29.1153C39.7272 27.646 41.6885 26.7298 43.7788 26.5137C43.7788 26.4705 43.7616 26.4532 43.7616 26.4532C43.7444 26.3754 43.7444 26.2976 43.7186 26.2112C38.4024 26.7643 34.5744 31.5094 35.125 36.8509C35.6583 41.7343 39.7874 45.4854 44.7078 45.4595M49.439 28.7955L49.3444 28.6399L49.1466 28.5189L48.9917 28.6399L49.1896 28.7609L49.4304 28.9165L49.4476 28.7955H49.439ZM48.467 33.2986L48.4842 33.4196L48.7595 33.3418L48.8369 33.1862L48.639 32.9442L48.7337 32.7886L48.9917 32.9701L49.0347 32.9269L48.9745 32.8837L48.9143 32.7627L49.0347 32.7022L48.9143 32.5639L48.6734 32.6849L48.596 32.8405L48.5358 32.9788L48.6562 33.1603L48.6132 33.2381L48.4584 33.2986H48.467ZM37.0347 40.4292L37.0519 40.3687L36.9142 40.0489L36.7594 39.9884L37.0347 40.4292ZM43.4949 34.4568C43.4949 34.7333 43.6498 34.9149 43.9508 35.0704V34.9494L43.7702 34.7506L43.8648 34.5691L43.9422 34.5518C43.925 34.232 43.925 33.895 43.925 33.8345H43.9078C43.6498 33.99 43.5121 34.1888 43.4949 34.4481" fill="white"/>
<path d="M45.2756 41.3559C45.7659 41.5979 46.2218 41.9522 46.4197 42.6264C46.4971 41.5374 45.8863 41.062 45.2928 40.7422L45.2756 41.3559Z" fill="white"/>
<path d="M48.5702 30.2208C48.5702 29.2268 47.839 28.1205 46.0842 27.7402C45.9036 27.7229 45.7315 27.6797 45.5509 27.6797C45.5509 27.8353 45.5337 28.1723 45.5337 28.1723C45.5337 28.2934 45.5165 28.6909 45.5165 28.7687C45.6369 28.786 45.7573 28.786 45.8519 28.8119C46.8756 29.054 47.2369 29.6417 47.2369 30.2208C47.2369 31.1715 46.4283 31.5345 45.439 31.7852L45.1035 31.863C44.8111 31.9235 44.4928 32.0186 44.1917 32.105C44.0713 32.1223 43.9767 32.1655 43.8562 32.2001C42.7724 32.5371 41.8261 33.073 41.8261 34.4214C41.8261 35.7697 42.91 36.271 43.9595 36.6081C43.9595 36.2278 43.9423 35.8302 43.9423 35.4413C43.4691 35.2252 43.1508 34.9227 43.1508 34.4473C43.1508 33.9719 43.4433 33.6953 43.8992 33.4965C43.9939 33.4533 44.0971 33.4188 44.2347 33.3755C44.4928 33.2805 44.7853 33.22 45.1035 33.1335L45.439 33.0557C46.9358 32.6754 48.596 32.226 48.5788 30.2208" fill="white"/>
<path d="M43.2541 39.7319C43.2541 40.285 43.6498 40.5616 44.0455 40.8036C44.0455 40.7085 44.0283 39.8701 44.0283 39.8529C44.0455 39.6973 44.1831 39.5763 44.3208 39.5158C44.5186 39.4207 44.7337 39.3343 44.9487 39.2738C45.0692 39.2305 45.1638 39.196 45.2842 39.1528C46.0928 38.9108 47.0219 38.5996 47.0219 37.6229C47.0219 36.6462 46.2305 36.2314 45.3616 35.9375C45.3444 36.2573 45.3444 36.7154 45.3444 37.0265C45.7229 37.1648 45.9552 37.3463 45.9552 37.6229C45.9552 37.9773 45.5767 38.1761 45.3272 38.2798C45.2068 38.323 45.0519 38.3749 44.9917 38.4008C44.7767 38.4613 44.553 38.5391 44.338 38.6169C44.2175 38.6601 44.1229 38.6947 44.0025 38.7552C43.6498 38.954 43.2541 39.2305 43.2541 39.7319Z" fill="white"/>
<path d="M43.8133 27.8281C43.4778 27.9491 43.1595 28.0701 42.8412 28.2257C42.5057 28.3467 42.0154 28.364 41.4993 28.9172C41.3444 29.116 41.181 29.3148 41.0433 29.5135C40.8885 29.7296 40.8885 30.0926 40.7681 30.2655C40.6132 30.5421 40.6476 30.7063 40.6476 30.7063C40.6304 30.8273 40.553 30.9483 40.467 31.0434C40.3122 31.2422 40.0541 31.3373 39.8132 31.2854C40.0541 31.4064 40.3638 31.2422 40.3638 31.2422C40.3036 31.3978 40.2691 31.536 40.2433 31.7003C40.5014 31.1039 40.7337 30.9051 40.8197 30.8273C40.9401 30.8446 41.1552 30.8446 41.5939 30.5853C42.067 30.3087 42.7982 29.8506 42.996 29.574C43.2111 29.2802 43.5122 29.0555 43.8477 28.9431C43.8305 28.5455 43.8047 28.1652 43.8047 27.8281M41.7917 29.6518L41.5509 29.7123L41.8434 29.2197L42.1788 29.237L41.7831 29.6518" fill="white"/>
<path d="M44.8197 39.6707C44.8197 39.6707 44.6649 39.7312 44.5788 39.7658C44.5014 39.7831 44.3982 39.8263 44.3982 39.8609C44.3982 39.8609 44.4756 44.0874 44.4756 44.1652C44.4756 45.0381 44.9143 45.0381 44.9143 44.1652C44.9143 44.1047 45.0089 39.6016 45.0089 39.6016C45.0089 39.6016 44.8713 39.6188 44.8111 39.6621" fill="white"/>
<path d="M44.3465 38.2601C44.4842 38.2169 44.6218 38.1651 44.7422 38.1391C44.8368 38.1219 44.9229 38.0786 45.0175 38.0613C45.0175 37.8021 45.0949 34.1287 45.1121 33.4805C44.8196 33.541 44.5358 33.636 44.2605 33.7225C44.2777 34.2151 44.3379 37.8712 44.3379 38.2688" fill="white"/>
<path d="M44.7164 24.2344C43.4949 24.2344 44.0025 26.084 44.1057 26.6717C44.1057 26.689 44.2003 30.8205 44.2261 31.7712C44.424 31.7107 44.6046 31.6761 44.7767 31.6329L45.1552 31.5379C45.1724 30.6217 45.2756 26.6717 45.2756 26.6545C45.3358 26.0408 45.9896 24.2344 44.725 24.2344" fill="white"/>
</g>
<defs>
<clipPath id="clip0_763_717">
<rect width="80.3102" height="24.7108" fill="white" transform="translate(30.7551 24.2344)"/>
</clipPath>
</defs>
</svg>
