<?xml version="1.0" encoding="UTF-8"?>
<svg xmlns="http://www.w3.org/2000/svg" version="1.1" viewBox="0 0 200 100">
  <defs>
    <style>
      .cls-1 {
        fill-rule: evenodd;
      }

      .cls-1, .cls-2 {
        fill: #f0ede8;
      }

      .cls-2 {
        opacity: 0;
      }
    </style>
  </defs>
  <!-- Generator: Adobe Illustrator 28.6.0, SVG Export Plug-In . SVG Version: 1.2.0 Build 709)  -->
  <g>
    <g id="Layer_1">
      <g>
        <path class="cls-1" d="M89.8,58.7h3.2l4-12.8,4.8,12.8h3.7l5.6-17.3h-3l-3.9,12-4.5-12h-5.6l.8,1.8-5.1,15.6h0ZM140.7,41c4,0,8.5.8,5.8,9-2.2,7.1-6.9,9-11.6,9s-8.2-1.9-5.9-9c2.2-6.7,6.4-9,11.7-9h0ZM133.5,50c-1.4,4.5-.8,6.9,2.1,6.9s5.1-2.9,6.6-6.9c2.1-6.3.2-6.9-2.1-6.9s-5,1.9-6.6,6.9h0ZM126.7,44.5c-5-2.6-8.2-1.3-8.3,1-.3,2.7,8.2,2.9,6.9,7.7-1.9,7.9-14,5.6-15.2,5l1-3.2c4.8,2.9,9.5,2.1,9.6-1,.2-2.9-8.2-3.2-6.9-7.9,1.9-6.7,12.2-5,14-4.7l-1,3.1h0ZM64.1,41.3c4.2,0,9.8.5,7.9,7.5-2.6,9.3-8.2,9.8-15.1,9.8h-4.2l5-15.6-.8-1.8h7.2ZM67.6,49c1.8-5.5-1-5.6-3.7-5.6h-1.9q-.2,0-.3.2l-3.7,12.2c-.3.5-.2.8.5.8,6.1.2,7.4-1.6,9.1-7.5h0ZM91.1,43.4h-8.5l-1.6,5.1h5.8l-.6,2.1h-5.9l-1.4,5.1c-.2.3-.2.8.5.8h8l-.6,2.1h-13.2l5-15.6-.8-1.8h14.1l-.6,2.1Z"/>
        <rect class="cls-2" width="200" height="100"/>
      </g>
    </g>
  </g>
</svg>