<svg width="144" height="74" viewBox="0 0 144 74" fill="none" xmlns="http://www.w3.org/2000/svg">
<g clip-path="url(#clip0_763_762)">
<path d="M65.2764 47.5516H67.7446V48.0972H65.8526V49.0931H67.6156V49.6387H65.8526V50.929H65.2764V47.543V47.5516Z" fill="white"/>
<path d="M69.9549 47.5195C70.9439 47.5195 71.6835 48.2297 71.6835 49.2602C71.6835 50.2907 70.9181 51.0009 69.9549 51.0009C68.9917 51.0009 68.2262 50.2907 68.2262 49.2602C68.1918 48.2643 68.9315 47.5195 69.9549 47.5195ZM69.9549 50.4553C70.6257 50.4553 71.0729 49.9703 71.0729 49.2602C71.0729 48.5501 70.5569 48.0651 69.9549 48.0651C69.3185 48.0651 68.8025 48.5501 68.8025 49.2602C68.8025 49.9703 69.3185 50.4553 69.9549 50.4553Z" fill="white"/>
<path d="M72.3886 50.929V47.543H73.8334C74.7966 47.543 75.1148 48.0279 75.1148 48.6082C75.1148 49.1278 74.7966 49.4828 74.3752 49.6041L75.3384 50.955H74.6332L73.7646 49.734H72.9992V50.929H72.3886ZM72.9648 48.1232V49.1884H73.7646C74.1774 49.1884 74.4698 48.9979 74.4698 48.6688C74.4698 48.3397 74.2806 48.1492 73.7302 48.1492H72.9648V48.1145V48.1232Z" fill="white"/>
<path d="M76.9638 47.5547H79.7846V48.1003H78.6666V50.9408H78.0904V48.1003H76.9724V47.5547H76.9638Z" fill="white"/>
<path d="M82.7002 49.5205H80.9372V50.9408H80.361V47.5547H80.9372V48.9403H82.7002V47.5547H83.2764V50.9408H82.7002V49.5205Z" fill="white"/>
<path d="M84.2052 47.5547H86.6992V48.1003H84.7814V48.9749H86.51V49.4945H84.7814V50.3952H86.7336V50.9408H84.1708V47.5547H84.2052Z" fill="white"/>
<path d="M88.9093 47.5516H91.3775V48.0972H89.4855V49.0931H91.2485V49.6387H89.4855V50.929H88.9093V47.543V47.5516Z" fill="white"/>
<path d="M94.9294 49.5205C94.9294 50.5857 94.2242 51.0014 93.519 51.0014C92.7192 51.0014 92.014 50.4818 92.014 49.4859V47.5547H92.5902V49.4253C92.5902 50.1007 92.9772 50.4558 93.4846 50.4558C94.0264 50.4558 94.3188 50.0661 94.3188 49.4599V47.5547H94.895V49.5205H94.9294Z" fill="white"/>
<path d="M95.4454 47.5547H98.2662V48.1003H97.1482V50.9408H96.572V48.1003H95.454V47.5547H95.4454Z" fill="white"/>
<path d="M101.689 49.5205C101.689 50.5857 100.984 51.0014 100.279 51.0014C99.4788 51.0014 98.7736 50.4818 98.7736 49.4859V47.5547H99.3498V49.4253C99.3498 50.1007 99.7368 50.4558 100.244 50.4558C100.786 50.4558 101.078 50.0661 101.078 49.4599V47.5547H101.655V49.5205H101.689Z" fill="white"/>
<path d="M102.549 50.929V47.543H103.994C104.957 47.543 105.275 48.0279 105.275 48.6082C105.275 49.1278 104.957 49.4828 104.536 49.6041L105.499 50.955H104.794L103.925 49.734H103.16V50.929H102.549ZM103.125 48.1232V49.1884H103.925C104.338 49.1884 104.63 48.9979 104.63 48.6688C104.63 48.3397 104.441 48.1492 103.891 48.1492H103.125V48.1145V48.1232Z" fill="white"/>
<path d="M106.075 47.5547H108.569V48.1003H106.651V48.9749H108.38V49.4945H106.651V50.3952H108.603V50.9408H106.04V47.5547H106.075Z" fill="white"/>
<path d="M70.2128 36.1325H75.562V36.7474C75.562 40.0988 73.1626 41.8395 70.5654 41.8395C67.4608 41.8395 65.2505 39.5792 65.2505 36.453C65.2505 33.3267 67.4608 31.0664 70.5654 31.0664C72.5176 31.0664 74.2806 32.097 75.1406 33.9675L73.928 34.3572C73.2572 33.0669 71.9758 32.3221 70.5654 32.3221C68.295 32.3221 66.661 34.0022 66.661 36.453C66.661 38.9037 68.295 40.5838 70.5654 40.5838C72.4574 40.5838 74.0914 39.484 74.2806 37.4575H70.1784V36.1325H70.2128Z" fill="white"/>
<path d="M77.2218 33.8799H78.4688V34.7805C78.6924 34.1397 79.3374 33.75 80.2319 33.75C80.4899 33.75 80.8425 33.7846 80.9371 33.8106V35.0317C80.7479 34.9711 80.4899 34.9364 80.2319 34.9364C79.0794 34.9364 78.4344 35.5773 78.4344 36.6771V41.7086H77.1874V33.8799H77.2218Z" fill="white"/>
<path d="M85.7703 33.75C88.1697 33.75 89.8983 35.456 89.8983 37.7769C89.8983 40.0978 88.2041 41.8385 85.7703 41.8385C83.3364 41.8385 81.668 40.1325 81.668 37.7769C81.668 35.4214 83.3364 33.75 85.7703 33.75ZM85.7703 40.6521C87.4387 40.6521 88.5911 39.4916 88.5911 37.7856C88.5911 36.0796 87.3785 34.9451 85.7703 34.9451C84.162 34.9451 82.9838 36.0709 82.9838 37.7856C82.9838 39.5003 84.1018 40.6521 85.7703 40.6521Z" fill="white"/>
<path d="M97.1997 40.4527C96.7869 41.2928 95.8237 41.8383 94.6713 41.8383C92.5557 41.8383 91.4721 40.7731 91.4721 38.357V33.8711H92.7191V38.1578C92.7191 39.4828 93.1663 40.6086 94.8949 40.6086C96.2365 40.6086 97.1653 39.7339 97.1653 38.2877V33.8711H98.4123V41.6738H97.1653V40.4527H97.1997Z" fill="white"/>
<path d="M101.938 40.5216V44.7131H100.691V33.8794H101.938V35.265C102.454 34.3643 103.443 33.7148 104.888 33.7148C107.004 33.7148 108.638 35.2304 108.638 37.6811C108.638 40.1319 107.073 41.7773 104.794 41.7773C103.383 41.838 102.489 41.327 101.947 40.5216H101.938ZM107.322 37.7504C107.322 36.0098 106.204 34.9099 104.63 34.9099C103.056 34.9099 101.938 35.9405 101.938 37.6465V37.9409C101.938 39.7509 103.151 40.6169 104.656 40.6169C106.256 40.6515 107.313 39.5171 107.313 37.7504H107.322Z" fill="white"/>
<path d="M52.8492 41.6852L50.6734 38.0739L48.5578 41.6852H46.0294L49.2974 36.238L45.9692 31.1719H48.6266L50.7422 34.558L52.7632 31.1719H55.326L52.058 36.3939L55.4206 41.6852H52.8578H52.8492Z" fill="white"/>
<path d="M63.6424 38.1325C63.6424 40.4534 61.9138 41.8737 59.6434 41.8737C57.6568 41.8737 55.9626 40.7738 55.7992 38.3577H57.975C58.1384 39.4229 58.964 39.8732 59.867 39.8732C60.985 39.8732 61.501 39.1024 61.501 38.1325C61.501 37.102 60.7356 36.4525 59.6778 36.4525C58.8092 36.4525 58.2072 36.8682 57.9492 37.3271H55.868L56.5732 31.2305H63.3586L63.135 33.2656H58.3018L58.1126 35.3007C58.1126 35.3007 58.6286 34.6858 60.1594 34.6858C62.017 34.6252 63.651 35.9069 63.651 38.1325H63.6424Z" fill="white"/>
<path d="M56.0571 29.8793C54.9047 25.3674 51.2497 22.1719 43.6644 22.1719H34.5054L35.7524 30.6241C36.6812 38.2622 39.5966 40.713 44.7222 41.6223C44.7566 41.6223 44.9114 41.657 44.9114 41.4578C44.9114 41.3972 44.877 41.3279 44.8168 41.2933C41.3596 39.8124 40.9382 35.0061 40.2072 30.1651L39.631 26.2941H44.8512C49.6845 26.2941 53.3997 26.2334 55.7389 29.9659C55.7733 30.0265 55.8335 30.0612 55.9023 30.0612C55.9969 30.0612 56.0657 30.0006 56.0657 29.8966V29.862L56.0571 29.8793Z" fill="white"/>
</g>
<defs>
<clipPath id="clip0_763_762">
<rect width="74.1325" height="28.8293" fill="white" transform="translate(34.5054 22.1719)"/>
</clipPath>
</defs>
</svg>
