<svg width="143" height="74" viewBox="0 0 143 74" fill="none" xmlns="http://www.w3.org/2000/svg">
<g clip-path="url(#clip0_763_817)">
<path d="M23.9527 43.8284L28.1028 39.6018V34.6076H26.2574V33.2928H32.5388L35.5192 37.4665V32.0575L39.1494 28.3516H27.1844L23.9527 31.6428V43.8284Z" fill="white"/>
<path d="M36.8968 32.636V39.8803H35.7098L32.7294 35.7067V39.8803H31.3518V34.6037H29.4977V40.1626L24.9232 44.8216H36.8968L40.1285 41.5303V29.3359L36.8968 32.636Z" fill="white"/>
<path d="M45.3009 34.8862H43.3601V33.2891H49.0351V34.8862H47.0943V39.8716H45.3009V34.8862Z" fill="white"/>
<path d="M49.9794 33.2891H55.1864V34.842H51.7555V35.8391H54.8572V37.2774H51.7555V38.3186H55.2298V39.8716H49.9794V33.2891Z" fill="white"/>
<path d="M58.1842 36.5274L56.0616 33.2891H58.1236L59.2672 35.142L60.4195 33.2891H62.4296L60.3069 36.5097L62.5249 39.8804H60.4629L59.2239 37.895L57.9763 39.8804H55.9576L58.1756 36.5274H58.1842Z" fill="white"/>
<path d="M63.3739 33.2891H65.1673V35.7509H67.472V33.2891H69.2654V39.8804H67.472V37.3744H65.1673V39.8804H63.3739V33.2891Z" fill="white"/>
<path d="M70.3398 36.5799C70.3398 34.6916 71.8387 33.1562 73.8314 33.1562C75.8241 33.1562 77.3057 34.6739 77.3057 36.5799C77.3057 38.4858 75.8068 40.0035 73.8141 40.0035C71.8127 40.0035 70.3398 38.4858 70.3398 36.5799ZM75.4776 36.5799C75.4776 35.6269 74.8018 34.7975 73.8141 34.7975C72.8264 34.7975 72.1766 35.6092 72.1766 36.5799C72.1766 37.5505 72.8524 38.3622 73.8314 38.3622C74.8191 38.3622 75.4776 37.5505 75.4776 36.5799Z" fill="white"/>
<path d="M78.3886 33.2891H80.1821V35.7509H82.4867V33.2891H84.2802V39.8804H82.4867V37.3744H80.1821V39.8804H78.3886V33.2891Z" fill="white"/>
<path d="M85.6751 33.2891H87.4512V36.995L89.9551 33.2891H91.6273V39.8804H89.8511V36.1744L87.3472 39.8804H85.6751V33.2891Z" fill="white"/>
<path d="M93.0221 33.2891H94.8156V35.9626L97.0422 33.2891H99.1649L96.713 36.1215L99.2429 39.8804H97.0942L95.4654 37.4362L94.8069 38.1774V39.8804H93.0135V33.2891H93.0221Z" fill="white"/>
<path d="M99.2689 36.5799C99.2689 34.6916 100.768 33.1562 102.76 33.1562C104.753 33.1562 106.235 34.6739 106.235 36.5799C106.235 38.4858 104.736 40.0035 102.743 40.0035C100.75 40.0035 99.2689 38.4858 99.2689 36.5799ZM104.407 36.5799C104.407 35.6269 103.731 34.7975 102.743 34.7975C101.755 34.7975 101.106 35.6092 101.106 36.5799C101.106 37.5505 101.781 38.3622 102.76 38.3622C103.748 38.3622 104.407 37.5505 104.407 36.5799Z" fill="white"/>
<path d="M114.249 33.2891H116.042V35.3626H117.021C118.572 35.3626 119.707 36.1127 119.707 37.6039C119.707 39.0951 118.694 39.8804 117.108 39.8804H114.24V33.2891H114.249ZM116.978 38.3451C117.567 38.3451 117.922 38.0715 117.922 37.5509C117.922 37.0921 117.567 36.7921 116.987 36.7921H116.042V38.3451H116.978Z" fill="white"/>
<path d="M107.82 33.2891V36.1832C107.82 36.8627 107.751 37.8509 107.309 38.2039C107.101 38.3715 106.755 38.4951 106.538 38.4951V40.048H106.711C107.335 40.048 108.028 39.7921 108.297 39.6245C109.38 38.9274 109.51 37.595 109.51 36.095V34.895H111.061V39.8804H112.854V33.2891H107.829H107.82Z" fill="white"/>
</g>
<defs>
<clipPath id="clip0_763_817">
<rect width="95.7544" height="16.4739" fill="white" transform="translate(23.9527 28.3516)"/>
</clipPath>
</defs>
</svg>
