<?xml version="1.0" encoding="UTF-8"?>
<svg xmlns="http://www.w3.org/2000/svg" version="1.1" viewBox="0 0 200 100">
  <defs>
    <style>
      .cls-1 {
        opacity: 0;
      }

      .cls-1, .cls-2 {
        fill: #f0ede8;
      }
    </style>
  </defs>
  <!-- Generator: Adobe Illustrator 28.6.0, SVG Export Plug-In . SVG Version: 1.2.0 Build 709)  -->
  <g>
    <g id="Layer_1">
      <g>
        <g>
          <path class="cls-2" d="M63.8,38.7h-1.8c-3.4,0-5.2,1.7-5.2,4.2s1.2,4.2,3.8,5.9l2.1,1.4-6,8.9h-4.5l5.4-8c-3.1-2.2-4.9-4.4-4.9-8s3.2-7.6,9.2-7.6h6v23.6h-4.1v-20.4Z"/>
          <g>
            <path class="cls-2" d="M101.5,42h-11.9v1.5c0,4.2-.3,9.6-1.7,12.4h-1.3v7.1h3.8v-3.9h9.1v3.9h3.8v-7.1h-1.8v-13.9ZM97.5,56h-5.7c1.1-2.6,1.4-7.2,1.4-10.2v-.5h4.3v10.7Z"/>
            <polygon class="cls-2" points="80.9 48.8 75.5 48.8 75.5 42 71.4 42 71.4 59.1 75.5 59.1 75.5 52 80.9 52 80.9 59.1 85 59.1 85 42 80.9 42 80.9 48.8"/>
            <path class="cls-2" d="M143.9,44.9c1.6,0,3.1.5,3.9,1.1v-3.4c-.9-.5-2.4-.8-4.4-.8-5.2,0-7.9,3.7-7.9,8.9s2.6,8.9,8.1,8.9,3.2-.3,4.2-1.1v-3.3c-1,.7-2.3,1.2-4,1.2-2.9,0-4.1-2.2-4.1-5.8s1.5-5.6,4.1-5.6Z"/>
            <polygon class="cls-2" points="135 42 130.9 42 125.2 49.9 125.2 42 121.1 42 121.1 59.1 125.2 59.1 125.2 50.7 131.2 59.1 135.8 59.1 129.3 49.9 135 42"/>
            <path class="cls-2" d="M111.7,41.7c-5,0-7.3,3.8-7.3,8.9s2.9,8.8,8.1,8.8,4.5-.7,5.7-1.5v-3.3c-1.3.8-3.4,1.6-5.4,1.6-3,0-4.1-1.4-4.3-4.2h9.8v-2.1c0-5.9-2.6-8.2-6.7-8.2ZM114.2,49h-5.7c.1-2.7,1.1-4.1,3-4.1s2.6,1.7,2.6,3.8v.3Z"/>
          </g>
        </g>
        <rect class="cls-1" width="200" height="100"/>
      </g>
    </g>
  </g>
</svg>