<svg width="143" height="73" viewBox="0 0 143 73" fill="none" xmlns="http://www.w3.org/2000/svg">
<g clip-path="url(#clip0_763_837)">
<path d="M93.5891 31.8554L96.4088 29.7773H86.9756V42.2713H96.4088V40.1847H89.6672V36.9864H95.4176V34.9083H89.6672V31.8554H93.5891Z" fill="white"/>
<path d="M79.8496 34.6432H76.5685V31.8554H81.7977L84.6174 29.7773H73.8769V42.2713H79.4992C82.6522 42.2713 84.4636 40.8432 84.4636 38.3461C84.4636 35.849 82.8231 34.6518 79.8496 34.6518M79.3796 40.1932H76.5685V36.7298H79.3796C81.0885 36.7298 81.8832 37.3113 81.8832 38.4658C81.8832 39.6203 81.0373 40.1932 79.3796 40.1932Z" fill="white"/>
<path d="M104.056 29.7773H98.921V42.2713H101.613V38.7309H104.056C107.337 38.7309 109.371 37.0035 109.371 34.2499C109.371 31.4962 107.337 29.7773 104.056 29.7773ZM103.996 36.6529H101.613V31.8554H103.996C105.722 31.8554 106.671 32.7106 106.671 34.2499C106.671 35.7891 105.722 36.6443 103.996 36.6443" fill="white"/>
<path d="M69.2542 39.5627C68.5364 39.9476 67.7418 40.1528 66.9301 40.1443C64.5034 40.1443 62.7432 38.4083 62.7432 36.0224C62.7432 33.6365 64.5034 31.9005 66.9301 31.9005C67.8102 31.8919 68.6646 32.157 69.3824 32.6701L71.3134 31.242L71.1853 31.1308C70.0574 30.1388 68.5535 29.6172 66.8275 29.6172C64.9563 29.6172 63.2645 30.25 62.0511 31.3959C60.8378 32.5418 60.1628 34.1667 60.1628 35.9625C60.1628 37.7583 60.8293 39.4088 62.0426 40.5975C63.2559 41.7862 64.9563 42.4446 66.8105 42.4446C68.6646 42.4446 70.4504 41.7691 71.5954 40.5376L69.8523 39.2549L69.2542 39.5798V39.5627Z" fill="white"/>
<path d="M53.7544 35.9609C53.7544 35.3452 53.7031 34.7295 53.592 34.1138L51.379 35.7472V35.9524C51.379 40.3308 47.8415 43.8883 43.4667 43.8883C39.0919 43.8883 35.5374 40.3479 35.5374 35.9695C35.5374 31.5911 39.0748 28.0336 43.4497 28.0336C45.0475 28.0336 46.6111 28.5125 47.9355 29.4189L49.935 27.9395C45.5089 24.3735 39.0321 25.0662 35.4605 29.4959C31.8889 33.9171 32.581 40.3992 37.0071 43.9738C41.4246 47.5484 47.9099 46.8557 51.473 42.426C52.9512 40.5959 53.7544 38.3126 53.7544 35.9609Z" fill="white"/>
<path d="M51.6099 29.6641C52.0969 30.2969 52.5156 30.981 52.8403 31.7079L43.4669 38.6262L39.5535 36.1719V33.213L43.4669 35.6673L51.6099 29.6641Z" fill="white"/>
</g>
<defs>
<clipPath id="clip0_763_837">
<rect width="76.1917" height="20.5923" fill="white" transform="translate(33.1793 25.6641)"/>
</clipPath>
</defs>
</svg>
