<?xml version="1.0" encoding="UTF-8"?>
<svg xmlns="http://www.w3.org/2000/svg" version="1.1" viewBox="0 0 200 100">
  <defs>
    <style>
      .cls-1 {
        opacity: 0;
      }

      .cls-1, .cls-2 {
        fill: #f0ede8;
      }
    </style>
  </defs>
  <!-- Generator: Adobe Illustrator 28.6.0, SVG Export Plug-In . SVG Version: 1.2.0 Build 709)  -->
  <g>
    <g id="Layer_1">
      <g>
        <g>
          <path class="cls-2" d="M108.7,39.1h-9.3v.8c.4,0,.7,0,1.1.2.3,0,.6.2.8.4.6.5.5,1.4.5,3v10.7c0,2.2.2,5.3-2.9,5.2-1.3,0-2.7-1-3.1-2.7h-1.1c.5,2.9,2,4.9,5.7,4.9h0c3.2,0,6-1.5,6-6.4v-11.7c0-1.6,0-2.4.5-2.9.4-.3.6-.5,1.6-.5v-.8Z"/>
          <path class="cls-2" d="M119.3,39.1h-9.3v.8c1,0,1.3.2,1.6.5.4.4.5,1,.5,2v15c0,1.1,0,1.7-.5,2-.4.3-.6.5-1.6.5v.9h14l1.5-4.3h-1.1c-1.1,2.4-2.7,2.6-4.3,2.6s-2.1,0-2.7-.4c-.5-.3-.6-1.1-.7-2.4v-13c0-1.6,0-2.5.5-3,.4-.3.9-.4,1.9-.5v-.9h0Z"/>
          <path class="cls-2" d="M134.7,39.1h-9.3v.8c1,0,1.3.2,1.6.5.4.4.5,1,.5,2v15c0,1.1,0,1.7-.5,2-.4.3-.6.5-1.6.5v.9h14l1.5-4.3h-1.1c-1.1,2.4-2.7,2.6-4.3,2.6s-2.1,0-2.7-.4c-.5-.3-.6-1.1-.7-2.4v-13c0-1.6,0-2.5.5-3,.4-.3.9-.4,1.9-.5v-.9h0Z"/>
          <path class="cls-2" d="M72.6,67.5c.4-.2.8-.4,1.2-.7,0,0,.2-.1.2-.2.5-.4.9-.8,1.4-1.2.6-.6,1.1-1.2,1.5-1.9.4-.5.7-1.1,1-1.7,1.1-2.2,1.9-4.7,2.2-7.1.2-1.6.4-3.1.4-4.7h0c0-1.6-.1-3.2-.4-4.7-.4-2.5-1.1-4.9-2.2-7.1-.1-.3-.3-.5-.4-.8-.6,1.1-1.1,2.3-1.5,3.5.7,2.2,1.2,4.5,1.3,6.8,0,.8,0,1.6,0,2.4h0c0,.8,0,1.6,0,2.4-.2,2.8-.8,5.6-1.9,8.2-.4,1-.9,2-1.5,2.9-.1.2-.3.4-.4.7-.3.4-.6.9-.9,1.3-.4.5-.8.9-1.2,1.4-.5.5-1,.9-1.5,1.3,0,0,0,0-.1,0h0c1,0,2-.2,2.8-.6Z"/>
          <path class="cls-2" d="M78.3,67.5c.4-.2.8-.4,1.2-.7,0,0,.2-.1.2-.2,1.7-1.2,2.9-3,3.8-4.8,1.1-2.2,1.9-4.7,2.2-7.1.2-1.6.4-3.1.4-4.7h0c0-1.6-.1-3.2-.4-4.7-.4-2.5-1.1-4.9-2.2-7.1-.9-1.7-2-3.3-3.5-4.5-.5.5-.9,1-1.3,1.6.1.2.3.4.4.6,2.3,3.5,3.5,7.7,3.8,11.8,0,.8,0,1.6,0,2.4,0,.8,0,1.6,0,2.4-.3,4.2-1.4,8.3-3.8,11.8-.3.4-.6.9-.9,1.3-.4.5-.8.9-1.2,1.4-.5.5-1,.9-1.5,1.3h-.1c1,.1,2-.1,2.8-.5Z"/>
          <path class="cls-2" d="M85.5,66.6c1.7-1.2,2.9-3,3.8-4.8,1.1-2.2,1.9-4.7,2.2-7.1.2-1.6.4-3.1.4-4.7h0c0-1.6-.1-3.2-.4-4.7-.4-2.5-1.1-4.9-2.2-7.1-.9-1.8-2.2-3.6-3.8-4.8-1.2-.9-2.8-1.5-4.3-1.6h0c1.5,1.1,2.8,2.5,3.8,4,2.3,3.5,3.5,7.7,3.8,11.8,0,.8,0,1.6,0,2.4,0,.8,0,1.6,0,2.4-.3,4.2-1.4,8.3-3.8,11.8-1,1.5-2.3,2.9-3.8,4h0c1.5,0,3.1-.6,4.3-1.5Z"/>
          <path class="cls-2" d="M78.3,32.5c-.4.2-.8.4-1.2.7,0,0-.2.1-.2.2-.5.4-.9.8-1.4,1.2-.6.6-1.1,1.2-1.5,1.9-.4.5-.7,1.1-1,1.7-1.1,2.2-1.9,4.7-2.2,7.1-.2,1.6-.4,3.1-.4,4.7h0c0,1.6.1,3.2.4,4.7.4,2.5,1.1,4.9,2.2,7.1.1.3.3.5.4.8.6-1.1,1.1-2.3,1.5-3.5-.7-2.2-1.2-4.5-1.3-6.8,0-.8,0-1.6,0-2.4h0c0-.8,0-1.6,0-2.4.2-2.8.8-5.6,1.9-8.2.4-1,.9-2,1.5-2.9.1-.2.3-.4.4-.7.3-.4.6-.9.9-1.3.4-.5.8-.9,1.2-1.4.5-.5,1-.9,1.5-1.3,0,0,0,0,.1,0h0c-1,0-2,.2-2.8.6Z"/>
          <path class="cls-2" d="M72.6,32.5c-.4.2-.8.4-1.2.7,0,0-.2.1-.2.2-1.7,1.2-2.9,3-3.8,4.8-1.1,2.2-1.9,4.7-2.2,7.1-.2,1.6-.4,3.1-.4,4.7h0c0,1.6.1,3.2.4,4.7.4,2.5,1.1,4.9,2.2,7.1.9,1.7,2,3.3,3.5,4.5.5-.5.9-1,1.3-1.6-.1-.2-.3-.4-.4-.6-2.3-3.5-3.5-7.7-3.8-11.8,0-.8,0-1.6,0-2.4s0-1.6,0-2.4c.3-4.2,1.4-8.3,3.8-11.8.3-.4.6-.9.9-1.3.4-.5.8-.9,1.2-1.4.5-.5,1-.9,1.5-1.3,0,0,0,0,.1,0h0c-1,0-2,.2-2.8.6Z"/>
          <path class="cls-2" d="M65.5,33.3c-1.7,1.2-2.9,3-3.8,4.8-1.1,2.2-1.9,4.7-2.2,7.1-.2,1.6-.4,3.1-.4,4.7h0c0,1.6.1,3.2.4,4.7.4,2.5,1.1,4.9,2.2,7.1.9,1.8,2.2,3.6,3.8,4.8,1.2.9,2.8,1.5,4.3,1.6h0c-1.5-1.1-2.8-2.6-3.8-4.1-2.3-3.5-3.5-7.7-3.8-11.8,0-.8,0-1.6,0-2.4s0-1.6,0-2.4c.3-4.2,1.4-8.3,3.8-11.8,1-1.5,2.3-2.9,3.8-4h0c-1.6,0-3.1.6-4.3,1.5Z"/>
          <path class="cls-2" d="M76.5,66.3c.5-.5.9-1,1.3-1.6-.1-.2-.3-.4-.4-.6-.1-.2-.3-.4-.4-.7-.4.7-.9,1.3-1.5,1.9.3.3.6.6,1,.9"/>
          <path class="cls-2" d="M79.6,65.1c-.4.3-.8.5-1.2.7.9.4,1.9.7,2.8.7h0c-.6-.5-1.1-.9-1.6-1.4"/>
          <path class="cls-2" d="M75,66.5c.2,0,.3,0,.5,0-.2-.1-.3-.2-.5-.3-.4-.3-.7-.6-1.1-.9-.4.3-.8.5-1.2.7.6.3,1.2.5,1.8.6.2,0,.3,0,.5,0M75.5,66.5h0c0,0,0,0,0-.1-.1,0-.3,0-.5,0,.2,0,.4,0,.5,0Z"/>
          <path class="cls-2" d="M74.5,33.6c-.5.5-.9,1-1.3,1.6.1.2.3.4.4.6.1.2.3.4.4.7.4-.7.9-1.3,1.5-1.9-.3-.3-.6-.6-1-.9"/>
          <path class="cls-2" d="M71.4,33.2c.4-.3.8-.5,1.2-.7-.9-.4-1.9-.7-2.8-.7h0c.6.5,1.1.9,1.6,1.4"/>
          <path class="cls-2" d="M78.3,32.5c-.6-.3-1.2-.5-1.8-.6-.2,0-.3,0-.5,0h0c-.2,0-.4,0-.5,0h0c0,0,0,0,0,.1h0c.2.1.3.2.5.3.4.3.7.6,1.1.9.4-.3.8-.5,1.2-.7"/>
        </g>
        <rect class="cls-1" width="200" height="100"/>
      </g>
    </g>
  </g>
</svg>