<svg width="143" height="73" viewBox="0 0 143 73" fill="none" xmlns="http://www.w3.org/2000/svg">
<g clip-path="url(#clip0_763_673)">
<path d="M45.5383 28.9543H44.2305C41.8286 28.9543 40.5635 30.1604 40.5635 31.9481C40.5635 33.9754 41.4354 34.9163 43.239 36.131L44.7178 37.1232L40.4439 43.4788H37.2556L41.0935 37.799C38.8796 36.2251 37.6402 34.711 37.6402 32.1192C37.6402 28.8858 39.9054 26.6875 44.2049 26.6875H48.4788V43.4788H45.5383V28.9543Z" fill="white"/>
<path d="M72.3185 31.3281H63.8904V32.3631C63.8904 35.3313 63.6938 39.172 62.6766 41.2079H61.7791V46.2547H64.4546V43.4746H70.9423V46.2547H73.6178V41.2079H72.3271V31.3281H72.3185ZM69.4294 41.2079H65.3435C66.147 39.3688 66.3607 36.067 66.3607 33.9627V33.6035H69.4208V41.2164L69.4294 41.2079Z" fill="white"/>
<path d="M57.6677 36.1354H53.8041V31.3281H50.9064V43.4832H53.8041V38.4107H57.6677V43.4832H60.5568V31.3281H57.6677V36.1354Z" fill="white"/>
<path d="M102.424 33.3527C103.544 33.3527 104.638 33.7376 105.219 34.1055V31.6676C104.612 31.3254 103.544 31.0859 102.108 31.0859C98.4149 31.0859 96.4916 33.7205 96.4916 37.4158C96.4916 41.4704 98.3636 43.72 102.227 43.72C103.561 43.72 104.509 43.4805 105.219 42.9673V40.6235C104.492 41.1282 103.612 41.4447 102.398 41.4447C100.33 41.4447 99.4834 39.8537 99.4834 37.3388C99.4834 34.824 100.526 33.3527 102.424 33.3527Z" fill="white"/>
<path d="M96.1069 31.3281H93.1836L89.1063 36.9309V31.3281H86.2172V43.4832H89.1063V37.5126L93.3802 43.4832H96.6625L92.0211 36.9309L96.1069 31.3281Z" fill="white"/>
<path d="M79.5072 31.0859C75.9855 31.0859 74.3102 33.7633 74.3102 37.4415C74.3102 41.6671 76.3958 43.72 80.097 43.72C81.9433 43.72 83.3024 43.241 84.1572 42.6593V40.3156C83.2597 40.9229 81.7553 41.4532 80.3449 41.4532C78.2336 41.4532 77.4301 40.461 77.3104 38.4337H84.2854V36.9111C84.2854 32.6855 82.4135 31.0859 79.5243 31.0859H79.5072ZM81.3279 36.3038H77.2934C77.3703 34.3706 78.0712 33.3527 79.4559 33.3527C80.8407 33.3527 81.3279 34.5332 81.3279 36.0557V36.2953V36.3038Z" fill="white"/>
</g>
<defs>
<clipPath id="clip0_763_673">
<rect width="67.9548" height="19.5627" fill="white" transform="translate(37.2556 26.6875)"/>
</clipPath>
</defs>
</svg>
